<?xml version="1.0" encoding="utf-8"?>
<!-- Generator: Adobe Illustrator 16.0.0, SVG Export Plug-In . SVG Version: 6.00 Build 0)  -->
<!DOCTYPE svg PUBLIC "-//W3C//DTD SVG 1.1//EN" "http://www.w3.org/Graphics/SVG/1.1/DTD/svg11.dtd">
<svg version="1.1" xmlns="http://www.w3.org/2000/svg" xmlns:xlink="http://www.w3.org/1999/xlink" x="0px" y="0px"
	 width="155.905px" height="155.905px" viewBox="0 0 155.905 155.905" enable-background="new 0 0 155.905 155.905"
	 xml:space="preserve">
<g id="colors">
	<rect x="162.992" y="-7.086" fill="#529599" width="28.346" height="170.08"/>
	<rect x="194.03" y="-7.086" fill="#ACCACC" width="28.346" height="170.08"/>
	<rect x="225.068" y="-7.086" fill="#F0F7F4" width="28.346" height="170.08"/>
	<rect x="256.106" y="-7.086" fill="#F9CDCF" width="28.346" height="170.08"/>
	<rect x="287.145" y="-7.086" fill="#F08C9E" width="28.346" height="170.08"/>
</g>
<g id="circle">
	<circle fill="#529599" cx="77.953" cy="77.953" r="70.866"/>
</g>
<g id="stork1" display="none">
	<g display="inline">
		<path fill="#F0F7F4" d="M67.835,95.596c-33.642,0-24.358-42.698-24.358-42.698c33.75,34.75,41.262,24.968,41.262,24.968
			S79.943,95.596,67.835,95.596z"/>
		<path fill="#F9CDCF" d="M84.738,77.866c0,0-18.261,21.781-41.262-24.968L84.738,77.866z"/>
		<path fill="#BA7300" d="M96.715,66.714c0,0,16.177-5.424,35.094-8.901C131.809,57.813,109.516,58.217,96.715,66.714z"/>
		<path fill="#F0F7F4" d="M101.643,62.146c-3.5-0.167-10.666-8.833-16.43,11.162c-5.764,19.995-17.378,22.288-17.378,22.288
			c26.358,0,20.059-28.663,27.892-27.573C95.727,68.023,92.559,66.144,101.643,62.146z"/>
		<circle cx="96.102" cy="63.304" r="0.583"/>
		<path fill="#DEE7A4" d="M96.715,66.714c11.32-6.5,35.094-8.901,35.094-8.901c-8.833-1.5-26.666,4.5-30.166,4.333
			c-9.084,3.998-5.916,5.877-5.916,5.877c7.131,0.992,36.082-4.543,36.082-4.543L96.715,66.714z"/>
		<path fill="#F0F7F4" d="M84.738,77.866c0,0-4.637,22.656-47.762,24.906C-6.148,105.022,71.776,90.828,84.738,77.866z"/>
	</g>
</g>
<g id="stork2" display="none">
	<g display="inline">
		<path fill="#ACCACC" d="M147.444,96.048c0-20.128-16.169-46.445-23.778-46.445l0,0c3.805,0,11.89,29.826,11.89,39.889
			s-8.085,13.222-11.89,13.222v19.778C131.275,122.492,147.444,116.175,147.444,96.048z"/>
		<path fill="#F9CDCF" d="M129.61,69.548c0,5.031-4.042,6.611-5.944,6.611v26.555c3.805,0,11.89-3.158,11.89-13.222
			s-8.085-39.889-11.89-39.889v0C125.568,49.604,129.61,64.516,129.61,69.548z"/>
		<path fill="#ACCACC" d="M82.589,66.792L58.073,22.834c0,0-25.167,26.667,0,49.667C83.24,95.501,82.589,66.792,82.589,66.792z"/>
		<path fill="#F0F7F4" d="M60.051,90.432c-44.856,0-32.478-56.93-32.478-56.93c45,46.333,55.016,33.291,55.016,33.291
			S76.195,90.432,60.051,90.432z"/>
		<path fill="#BA7300" d="M98.558,51.922c0,0,21.569-7.231,46.793-11.868C145.351,40.054,115.626,40.594,98.558,51.922z"/>
		<path fill="#F0F7F4" d="M105.128,45.832c-4.667-0.222-14.222-11.778-21.906,14.882c-7.685,26.661-23.171,29.717-23.171,29.717
			c35.145,0,26.745-38.217,37.189-36.764C97.24,53.668,93.016,51.163,105.128,45.832z"/>
		<circle cx="97.74" cy="47.376" r="0.778"/>
		<path fill="#DEE7A4" d="M98.558,51.922c15.094-8.667,46.793-11.868,46.793-11.868c-11.778-2-35.556,6-40.223,5.778
			c-12.112,5.331-7.888,7.836-7.888,7.836c9.507,1.323,48.11-6.058,48.11-6.058L98.558,51.922z"/>
		<path fill="#ACCACC" d="M60.051,90.432c0,0-10.922,31.847-51.589,8.736c0,0,26.956,20.82,51.589,8.41s22.538-40.786,22.538-40.786
			L60.051,90.432z"/>
		<path fill="#F0F7F4" d="M82.589,66.792c0,0,18.573,20.202,0,44.733c-18.572,24.531-37.041,21.42-37.041,21.42L82.589,66.792z"/>
		<path fill="none" d="M117.722,69.548c0,5.031,4.042,6.611,5.944,6.611V49.604C121.764,49.604,117.722,64.516,117.722,69.548z"/>
		<path fill="#F0F7F4" d="M111.777,89.492c0-10.063,8.084-39.889,11.889-39.889l0,0c-7.609,0-23.777,26.317-23.777,46.445
			c0,20.127,16.168,26.444,23.777,26.444v-19.778C119.861,102.714,111.777,99.556,111.777,89.492z"/>
		<path fill="#F08C9E" d="M111.777,89.492c0,10.063,8.084,13.222,11.889,13.222V76.159c-1.902,0-5.944-1.58-5.944-6.611
			c0-5.032,4.042-19.944,5.944-19.944v0C119.861,49.603,111.777,79.429,111.777,89.492z"/>
	</g>
</g>
<g id="stork3" display="none">
	<path display="inline" fill="#FFF1C6" d="M140.726,74.149c0-22.453-12.247-27.846-17.729-29.137
		c-0.189,1.227-1.223,2.172-2.487,2.227c4.956,2.846,5.843,19.17,6.003,24.93c4.06,1.474,8.41,1.889,11.213,1.986L140.726,74.149z"
		/>
	<path display="inline" fill="#FBCDA9" d="M140.726,74.149c0-16.168-20.333,0.034-20.333-29.541
		C104.012,76.382,140.726,74.149,140.726,74.149z"/>
	<path display="inline" fill="#BA7300" d="M101.065,49.038c0,0,18.624-6.247,40.407-10.249
		C141.473,38.789,115.806,39.255,101.065,49.038z"/>
	<path display="inline" fill="#FFF1C6" d="M120.393,41.973c-1.457,0-2.638,1.181-2.638,2.636c0,1.456,1.181,2.637,2.638,2.637
		c0.039,0,0.078-0.004,0.116-0.006c1.265-0.055,2.298-1,2.487-2.227c0.02-0.132,0.032-0.265,0.032-0.404
		C123.028,43.153,121.849,41.973,120.393,41.973z"/>
	<path display="inline" fill="#FFFFFF" d="M106.739,43.779c-4.031-0.192-12.282-10.171-18.918,12.851
		c-6.636,23.023-20.009,25.663-20.009,25.663c30.349,0,23.094-33.003,32.115-31.747C99.928,50.546,96.277,48.382,106.739,43.779z"/>
	<path display="inline" fill="none" stroke="#FFFFFF" stroke-width="0.25" stroke-miterlimit="10" d="M67.813,93.986
		c0,7.915-6.404,14.318-14.318,14.318"/>
	<path display="inline" fill="none" stroke="#FFFFFF" stroke-width="0.25" stroke-miterlimit="10" d="M67.813,93.986
		c-5.596,5.598-14.652,5.598-20.249,0"/>
	<circle display="inline" cx="100.359" cy="45.112" r="0.67"/>
	<path display="inline" fill="#DEE7A4" d="M101.065,49.038c13.034-7.484,40.407-10.249,40.407-10.249
		c-10.171-1.727-30.704,5.181-34.733,4.99c-10.462,4.603-6.812,6.767-6.812,6.767c8.21,1.142,41.545-5.232,41.545-5.232
		L101.065,49.038z"/>
	<path display="inline" fill="none" d="M140.726,74.149l-3.001,0.007C139.555,74.221,140.726,74.149,140.726,74.149z"/>
	<ellipse display="inline" fill="#FFFFFF" cx="129.577" cy="74.932" rx="6.692" ry="9.776"/>
	<circle display="inline" fill="#FFFFFF" cx="129.576" cy="61.878" r="5.086"/>
	<circle display="inline" cx="127.782" cy="61.207" r="0.67"/>
	<circle display="inline" cx="131.289" cy="61.207" r="0.671"/>
	<path display="inline" fill="none" stroke="#FBCDA9" stroke-linecap="round" stroke-miterlimit="10" d="M130.797,64.651
		c-0.677,0.674-1.767,0.674-2.442,0"/>
	<path display="inline" fill="#FFF17D" d="M124.489,61.878c0,0-2.1-5.503,3.293-9.03c5.393-3.527-0.513,3.527,3.015,1.871
		c3.529-1.655,4.775-1.366,3.865,0.216c-0.912,1.583,1.57,1.873,3.063,1.224c0,0-3.063,2.229-3.063,5.72l-2.702-3.55
		c0,0-1.227-1.535-2.383-1.535c-1.109,0-2.466,1.535-2.466,1.535L124.489,61.878z"/>
	<circle display="inline" fill="#FDDEC9" cx="126.696" cy="69.843" r="0.168"/>
	<circle display="inline" fill="#FDDEC9" cx="132.454" cy="69.843" r="0.168"/>
	<ellipse display="inline" fill="#FFFFFF" cx="135.333" cy="67.495" rx="1.046" ry="2.339"/>
	<ellipse display="inline" fill="#FFFFFF" cx="123.818" cy="67.495" rx="1.047" ry="2.339"/>
	<path display="inline" fill="none" d="M61.154,70.354l-0.223-0.009C61.026,70.378,61.101,70.382,61.154,70.354z"/>
	<path display="inline" fill="#F6F6F6" d="M67.813,70.599L47.563,45.112C47.563,45.112,65.575,70.599,67.813,70.599z"/>
	<path display="inline" fill="#F6F6F6" d="M60.931,70.345l0.223,0.009c1.509-0.79-13.59-25.242-13.59-25.242l3.152,18.339
		c4.235,2.921,8.14,5.59,9.938,6.753C60.762,70.274,60.852,70.318,60.931,70.345z"/>
	<path display="inline" fill="#FFFFFF" d="M61.154,70.354l6.659,0.245c-2.238,0-20.249-25.486-20.249-25.486
		S62.663,69.564,61.154,70.354z"/>
	<path display="inline" fill="#FFFFFF" d="M67.813,70.599l-6.659-0.245c-0.053,0.028-0.128,0.024-0.223-0.009
		c-0.079-0.027-0.168-0.071-0.278-0.141c-1.797-1.163-5.702-3.832-9.938-6.753c-7.375-5.084-15.748-10.933-15.748-10.933
		S53.48,72.135,51.842,73.252c-2.568,1.753-37.409-24.214-37.409-24.214v18.343l44.783,14.912l-44.783-11.07
		c0,0,11.708,13.485,33.13,13.485c21.423,0,20.249,9.278,20.249,9.278c15.814,0,21.438-12.986,21.438-19.444
		C89.251,68.083,83.627,70.599,67.813,70.599z"/>
	<path display="inline" fill="#FFF1C6" d="M139.219,85.812c1.47-2.957,2.129-6.838,1.507-11.662c0,0-1.171,0.071-3.001,0.007
		c-2.803-0.098-7.153-0.513-11.213-1.986c-8.131-2.953-15.094-10.152-6.119-27.561c0,0-7.551,5.832-8.213,25.545
		C112.891,72.272,121.843,97.668,139.219,85.812z"/>
	<path display="inline" fill="#FDDEC9" d="M112.16,75.156c0.466,19.173,20.9,23.05,27.059,10.655
		c-17.376,11.856-26.328-13.54-27.039-15.657C112.129,71.732,112.117,73.397,112.16,75.156z"/>
	<path display="inline" fill="none" stroke="#FFFFFF" stroke-width="0.25" stroke-miterlimit="10" d="M47.563,93.986
		c0,5.025-4.066,9.093-9.092,9.093"/>
	<path display="inline" fill="none" stroke="#FFFFFF" stroke-width="0.25" stroke-miterlimit="10" d="M47.563,93.986
		c-3.553,3.555-9.304,3.555-12.857,0"/>
	<path display="inline" fill="none" stroke="#FFFFFF" stroke-width="0.25" stroke-miterlimit="10" d="M47.563,93.986
		c-5.025,0-9.092-4.065-9.092-9.092"/>
	<path display="inline" fill="none" stroke="#FFFFFF" stroke-width="0.25" stroke-miterlimit="10" d="M53.494,108.303
		c0,5.026-4.066,9.093-9.091,9.093"/>
	<path display="inline" fill="none" stroke="#FFFFFF" stroke-width="0.25" stroke-miterlimit="10" d="M53.494,108.303
		c-3.553,3.555-9.304,3.555-12.857,0"/>
	<path display="inline" fill="none" stroke="#FFFFFF" stroke-width="0.25" stroke-miterlimit="10" d="M53.494,108.303
		c-5.026,0-9.091-4.065-9.091-9.091"/>
</g>
<g id="stork4" display="none">
	<g display="inline">
		<path fill="#F0F7F4" d="M53.634,97.899c-48.06,0-34.797-60.997-34.797-60.997c48.214,49.642,58.945,35.668,58.945,35.668
			S70.932,97.899,53.634,97.899z"/>
		<path fill="#F0F7F4" d="M78.617,107.556C44.634,141.539,10.88,89.03,10.88,89.03c69.196,1.011,66.902-16.459,66.902-16.459
			S90.848,95.325,78.617,107.556z"/>
		<path fill="#BA7300" d="M94.892,56.64c0,0,23.11-7.748,50.135-12.716C145.026,43.924,113.179,44.502,94.892,56.64z"/>
		<path fill="#F0F7F4" d="M101.931,50.114c-5-0.238-15.237-12.619-23.471,15.945c-8.233,28.564-24.825,31.84-24.825,31.84
			c37.655,0,28.655-40.947,39.845-39.39C93.479,58.51,88.954,55.826,101.931,50.114z"/>
		<circle cx="94.015" cy="51.769" r="0.833"/>
		<path fill="#DEE7A4" d="M94.892,56.64c16.172-9.286,50.135-12.716,50.135-12.716c-12.619-2.143-38.096,6.429-43.096,6.19
			c-12.977,5.712-8.451,8.396-8.451,8.396c10.187,1.418,51.547-6.491,51.547-6.491L94.892,56.64z"/>
	</g>
</g>
<g id="egg" display="none">
	<path display="inline" fill="#ACCACC" d="M122.706,83.439c-1.041,2.465-2.118,5.014-6.254,5.014s-5.213-2.549-6.254-5.014
		c-1.083-2.564-2.106-4.986-6.579-4.986s-5.496,2.422-6.579,4.986c-1.041,2.465-2.118,5.014-6.254,5.014s-5.213-2.549-6.254-5.014
		c-1.083-2.564-2.106-4.986-6.579-4.986s-5.496,2.422-6.579,4.986c-1.041,2.465-2.118,5.014-6.254,5.014s-5.213-2.549-6.254-5.014
		c-1.083-2.564-2.106-4.986-6.579-4.986s-5.496,2.422-6.579,4.986c-1.041,2.465-2.118,5.014-6.254,5.014s-5.213-2.549-6.254-5.014
		c-1.082-2.563-2.105-4.982-6.569-4.986c0.199,38.326,23.097,69.313,51.323,69.313c28.228,0,51.125-30.987,51.324-69.313
		C124.812,78.456,123.788,80.876,122.706,83.439z"/>
	<path display="inline" fill="#F0F7F4" d="M34.121,83.05c0.998,2.363,1.86,4.403,5.333,4.403s4.335-2.04,5.333-4.403
		c1.108-2.623,2.364-5.597,7.5-5.597s6.392,2.974,7.5,5.597c0.998,2.363,1.86,4.403,5.333,4.403s4.335-2.04,5.333-4.403
		c1.108-2.623,2.364-5.597,7.5-5.597s6.392,2.974,7.5,5.597c0.998,2.363,1.86,4.403,5.333,4.403s4.335-2.04,5.333-4.403
		c1.108-2.623,2.364-5.597,7.5-5.597s6.392,2.974,7.5,5.597c0.998,2.363,1.86,4.403,5.333,4.403s4.335-2.04,5.333-4.403
		c1.108-2.622,2.363-5.594,7.493-5.597c-0.197-38.325-23.096-69.314-51.324-69.314c-28.228,0-51.126,30.989-51.324,69.314
		C31.758,77.457,33.014,80.429,34.121,83.05z"/>
</g>
<g id="egg2" display="none">
	<path display="inline" fill="#F0F7F4" d="M113.62,92.953c0,30.191-24.253,39.666-35.667,39.666s-35.667-9.475-35.667-39.666
		s24.253-69.667,35.667-69.667S113.62,62.762,113.62,92.953z"/>
</g>
<g id="stethoscope" display="none">
	<g display="inline">
		<path fill="#D9EFFD" d="M88.028,96.519c-7.371,0-13.346,1.306-13.346,2.916h26.69C101.373,97.824,95.398,96.519,88.028,96.519z"/>
		<ellipse fill="#FFFFFF" cx="88.028" cy="99.435" rx="13.346" ry="2.917"/>
		<path fill="#F9CDCF" d="M105.994,106.648l-4.621-7.214c0,1.611-5.975,2.917-13.345,2.917c-7.371,0-13.346-1.306-13.346-2.917
			l-4.62,7.214l-0.717,1.12c0,2.256,8.364,4.084,18.683,4.084c10.319,0,18.684-1.828,18.684-4.084L105.994,106.648z"/>
		<path fill="#F9CDCF" d="M88.028,96.519c-7.371,0-13.346,1.306-13.346,2.916h26.69C101.373,97.824,95.398,96.519,88.028,96.519z"/>
		<path fill="#FFFFFF" d="M50.308,73.463h-1.25v-0.048C34.588,72.296,23.85,51.977,23.85,38.671c0-0.46,0.374-0.833,0.833-0.833
			c0.459,0,0.833,0.373,0.833,0.833c0,14.369,11.305,32.536,24.167,33.111c12.862-0.575,24.167-18.742,24.167-33.111
			c0-0.46,0.373-0.833,0.833-0.833s0.833,0.373,0.833,0.833c0,13.306-10.738,33.625-25.208,34.743V73.463z"/>
		<path fill="#FFFFFF" d="M49.683,90.129c-14.652,0-25.833-36.535-25.833-51.458c0-0.46,0.374-0.833,0.833-0.833
			c0.459,0,0.833,0.373,0.833,0.833c0,14.035,10.716,49.792,24.167,49.792c13.451,0,24.167-35.756,24.167-49.792
			c0-0.46,0.373-0.833,0.833-0.833s0.833,0.373,0.833,0.833C75.516,53.594,64.335,90.129,49.683,90.129z"/>
		<ellipse fill="#FFFFFF" cx="88.028" cy="97.977" rx="5.821" ry="1.458"/>
		<path fill="#FFFFFF" d="M88.028,120.546c-19.049,0-31.58-4.257-37.246-12.65c-5.878-8.71-2.039-18.499-1.873-18.911
			c0.172-0.427,0.654-0.632,1.084-0.462c0.426,0.172,0.633,0.657,0.462,1.084c-0.038,0.093-3.67,9.408,1.718,17.371
			c5.343,7.897,17.406,11.901,35.854,11.901c16.942,0,26.942-4.549,32.348-8.366c6.364-4.495,10.015-10.511,10.015-16.506
			c0-6.907-5.244-13.878-16.958-13.878c-10.384,0-17.644,2.336-21.578,6.941c-3.733,4.37-3.011,9.269-3.004,9.317
			c0.072,0.455-0.238,0.882-0.692,0.953c-0.456,0.075-0.882-0.238-0.953-0.692c-0.036-0.231-0.846-5.714,3.382-10.66
			c4.267-4.994,11.953-7.526,22.846-7.526c10.966,0,18.625,6.393,18.625,15.544c0,6.544-3.908,13.056-10.72,17.867
			C113.303,117.548,101.784,120.546,88.028,120.546z"/>
		<path fill="#FFFFFF" d="M68.089,38.671c0,6.806,1.475,1.007,3.296,1.007v-2.014C69.564,37.665,68.089,31.866,68.089,38.671z"/>
		<path fill="#F9CDCF" d="M74.683,38.671c0-0.556-1.476-1.007-3.297-1.007v2.014C73.207,39.678,74.683,39.227,74.683,38.671z"/>
		<path fill="#FFFFFF" d="M31.285,38.671c0,6.806-1.476,1.007-3.297,1.007v-2.014C29.809,37.665,31.285,31.866,31.285,38.671z"/>
		<path fill="#F9CDCF" d="M24.691,38.671c0-0.556,1.477-1.007,3.297-1.007v2.014C26.167,39.678,24.691,39.227,24.691,38.671z"/>
	</g>
</g>
<g id="baby1" display="none">
	<path display="inline" fill="#ACCACC" d="M40.658,69.215c0.868-2.054,1.765-4.178,5.212-4.178c3.446,0,4.344,2.124,5.211,4.178
		c0.902,2.137,1.755,4.155,5.482,4.155s4.58-2.019,5.482-4.155c0.868-2.054,1.765-4.178,5.212-4.178
		c3.446,0,4.344,2.124,5.211,4.178c0.902,2.137,1.755,4.155,5.482,4.155c3.728,0,4.58-2.019,5.482-4.155
		c0.868-2.054,1.766-4.178,5.212-4.178s4.344,2.124,5.211,4.178c0.903,2.137,1.756,4.155,5.483,4.155
		c3.727,0,4.58-2.019,5.482-4.155c0.867-2.054,1.765-4.178,5.211-4.178c3.447,0,4.345,2.124,5.212,4.178
		c0.901,2.135,1.755,4.152,5.475,4.155c-0.166-31.938-19.247-57.761-42.77-57.761S35.348,41.432,35.182,73.37
		C38.904,73.368,39.757,71.351,40.658,69.215z"/>
	<path display="inline" fill="#FFFFFF" d="M129.286,82.953c0-0.053-0.003-0.105-0.003-0.158v0.314
		C129.283,83.057,129.286,83.006,129.286,82.953z"/>
	<path display="inline" d="M35.174,81.703v0.417c0-0.141,0.007-0.277,0.007-0.417C35.179,81.703,35.177,81.703,35.174,81.703z"/>
	<path display="inline" d="M129.283,82.453c-0.002,0-0.004,0-0.007,0c0.001,0.115,0.007,0.229,0.007,0.342V82.453z"/>
	<path display="inline" d="M129.283,83.109c0,0.115-0.006,0.23-0.007,0.344c0.003,0,0.005,0,0.007,0V83.109z"/>
	<path display="inline" d="M35.174,82.536c0.002,0,0.005,0,0.008,0c0-0.14-0.008-0.276-0.008-0.416V82.536z"/>
	<g display="inline">
		<ellipse fill="#FFF7C5" cx="64.895" cy="68.814" rx="1.335" ry="4.044"/>
		<ellipse fill="#FBCDA9" cx="64.896" cy="68.814" rx="1.113" ry="3.37"/>
		<ellipse fill="#FFF7C5" cx="91.006" cy="68.814" rx="1.334" ry="4.044"/>
		<ellipse fill="#FBCDA9" cx="91.006" cy="68.814" rx="1.112" ry="3.37"/>
		<path fill="#FFF7C5" d="M91.007,68.814c0-8.131-4.926-14.723-13.056-14.723c-8.131,0-13.056,6.592-13.056,14.723
			c0,8.13,4.925,14.722,13.056,14.722C86.081,83.536,91.007,76.945,91.007,68.814z"/>
		<path fill="#FBCDA9" d="M77.951,78.716c-1.387,0-2.774-0.528-3.83-1.583c-0.163-0.163-0.163-0.427,0-0.589
			c0.163-0.163,0.426-0.163,0.589,0c1.787,1.787,4.694,1.787,6.481,0c0.162-0.163,0.426-0.163,0.589,0s0.163,0.426,0,0.589
			C80.725,78.188,79.337,78.716,77.951,78.716z"/>
		<path fill="#FFFFFF" d="M68.033,66.87c0,0,0.308-1.944,3.891-1.944c3.583,0,3.891,1.944,3.891,1.944H68.033z"/>
		<path fill="#FFFFFF" d="M71.924,68.814c-3.583,0-3.891-1.944-3.891-1.944h7.782C75.814,66.87,75.507,68.814,71.924,68.814"/>
		<path fill="#694100" d="M71.924,68.814c1.074,0,1.945-0.87,1.945-1.944h-3.89C69.979,67.944,70.85,68.814,71.924,68.814z"/>
		<path fill="#BA7300" d="M71.924,64.926c1.074,0,1.945,0.87,1.945,1.944h-3.89C69.979,65.796,70.85,64.926,71.924,64.926z"/>
		<path opacity="0.5" fill="#FFFFFF" d="M70.548,65.496l1.375,1.375v-1.944C71.387,64.926,70.9,65.143,70.548,65.496z"/>
		<circle cx="71.924" cy="66.87" r="0.972"/>
		<circle fill="#FFFFFF" cx="71.924" cy="66.87" r="0.242"/>
		<path fill="#FFFFFF" d="M80.087,66.87c0,0,0.308-1.944,3.891-1.944s3.891,1.944,3.891,1.944H80.087z"/>
		<path fill="#FFFFFF" d="M83.978,68.814c-3.583,0-3.891-1.944-3.891-1.944h7.781C87.868,66.87,87.561,68.814,83.978,68.814"/>
		<path fill="#694100" d="M83.978,68.814c1.074,0,1.945-0.87,1.945-1.944h-3.891C82.032,67.944,82.903,68.814,83.978,68.814z"/>
		<path fill="#BA7300" d="M83.978,64.926c1.074,0,1.945,0.87,1.945,1.944h-3.891C82.032,65.796,82.903,64.926,83.978,64.926z"/>
		<path opacity="0.5" fill="#FFFFFF" d="M82.603,65.496l1.375,1.375v-1.944C83.44,64.926,82.954,65.143,82.603,65.496z"/>
		<circle cx="83.978" cy="66.87" r="0.973"/>
		<circle fill="#FFFFFF" cx="83.978" cy="66.87" r="0.242"/>
		<ellipse fill="#FBCDA9" cx="77.951" cy="72.47" rx="1.823" ry="0.364"/>
		<path fill="#694100" d="M77.951,54.092c0,0-2.832-4.615,2.862-6.004c5.694-1.389,0.106-3.68,1.79-6.11c0,0-0.517,0.903,0.688,2.5
			c1.203,1.597,1.344,2.719-2.338,5.138S77.951,54.092,77.951,54.092z"/>
	</g>
	<path display="inline" fill="#ACCACC" d="M114.479,77.873c-0.831-1.969-1.55-3.669-4.444-3.669c-2.894,0-3.612,1.7-4.443,3.669
		c-0.924,2.185-1.971,4.664-6.25,4.664c-4.28,0-5.327-2.479-6.25-4.664c-0.832-1.969-1.551-3.669-4.444-3.669
		s-3.612,1.7-4.444,3.669c-0.924,2.185-1.97,4.664-6.25,4.664c-4.28,0-5.326-2.479-6.25-4.664c-0.832-1.969-1.55-3.669-4.444-3.669
		c-2.894,0-3.613,1.7-4.444,3.669c-0.924,2.185-1.97,4.664-6.25,4.664s-5.326-2.479-6.25-4.664c-0.832-1.969-1.55-3.669-4.444-3.669
		c-2.894,0-3.613,1.7-4.444,3.669c-0.924,2.185-1.969,4.661-6.244,4.664c0.164,31.938,19.246,57.762,42.77,57.762
		s42.605-25.824,42.771-57.762C116.448,82.533,115.401,80.056,114.479,77.873z"/>
</g>
<g id="baby_1_" display="none">
	<path display="inline" fill="#FFFFFF" d="M74.68,88.814c-17.978,0-32.55,21.287-32.55,47.544c0,0.929,0.023,1.851,0.059,2.767
		c10.5,6.152,22.715,9.694,35.765,9.694c10.331,0,20.137-2.229,28.988-6.203c0.184-2.05,0.289-4.135,0.289-6.258
		C107.23,110.102,92.656,88.814,74.68,88.814z"/>
	<circle display="inline" fill="#FFFFFF" cx="74.68" cy="72.873" r="24.734"/>
	<circle display="inline" cx="65.954" cy="69.605" r="3.268"/>
	<circle display="inline" cx="83.01" cy="69.605" r="3.268"/>
	<path display="inline" fill="none" stroke="#FBCDA9" stroke-linecap="round" stroke-miterlimit="10" d="M80.619,86.351
		c-3.283,3.284-8.596,3.284-11.879,0"/>
	<path display="inline" fill="#FFF17D" d="M49.946,72.873c0,0-10.217-26.772,16.008-43.922c26.226-17.15-2.497,17.149,14.665,9.1
		c17.16-8.05,23.229-6.65,18.795,1.05c-4.434,7.699,7.639,9.099,14.902,5.949c0,0-14.902,10.842-14.902,27.823L86.277,55.605
		c0,0-5.967-7.467-11.598-7.467c-5.383,0-11.993,7.467-11.993,7.467L49.946,72.873z"/>
	<circle display="inline" fill="#FDDEC9" cx="60.679" cy="111.605" r="0.816"/>
	<circle display="inline" fill="#FDDEC9" cx="88.68" cy="111.605" r="0.816"/>
	<ellipse display="inline" fill="#FFFFFF" cx="102.68" cy="100.189" rx="5.09" ry="11.375"/>
	<ellipse display="inline" fill="#FFFFFF" cx="46.679" cy="100.189" rx="5.09" ry="11.375"/>
</g>
<g id="pregnant" display="none">
	<path display="inline" fill="#F9CDCF" d="M108.039,100.745c-1.695-7.448-2.651-15.71-2.651-24.427c0-2.544,0.089-5.046,0.244-7.505
		c0.969-15.25,4.836-28.69,10.474-38.018c0-5.749,0.37-9.637-5.128-9.637s-4.53-1.227-6.996-2.369
		c-2.148-0.995-4.386-1.528-6.686-1.528c-7.045,0-13.511,4.939-18.586,13.177c-4.658,1.62-8.359,2.544-8.359,2.544
		c-3.971,0-7.305,2.692-8.3,6.347c-0.197,0.723-0.311,1.479-0.311,2.264c0,0.629,0.075,1.24,0.204,1.83
		c0.302,1.387,0.931,2.651,1.812,3.701c-5.258,4.685-12.406,11.717-16.563,18.606c-4.633,6.004-7.396,13.525-7.396,21.696
		c0,10.622,4.659,20.151,12.043,26.664c5.086,4.487,11.466,7.542,18.508,8.535c6.711,10.066,9.463,14.192,12.765,15.886
		c2.294,1.175,4.854,1.178,9.193,1.178c12.512,0,22.655-10.143,22.655-22.654c0-4.032-1.057-7.814-2.903-11.093
		C110.972,104.02,109.616,102.269,108.039,100.745z"/>
	<path display="inline" fill="#F08C9E" d="M70.346,122.627c-7.042-0.993-13.422-4.048-18.508-8.535
		c-1.2,2.598-1.874,5.486-1.874,8.535c0,11.257,9.125,20.381,20.382,20.381c4.833,0,9.271-1.685,12.765-4.495
		C79.81,136.819,77.057,132.693,70.346,122.627z"/>
	<path display="inline" fill="#F0F7F4" d="M101.349,68.972c-5.398-7.007-13.869-11.526-23.398-11.526
		c-16.308,0-29.528,13.22-29.528,29.529c0,16.307,13.22,29.526,29.528,29.526c10.995,0,20.578-6.013,25.662-14.926
		c-1.437-9.109-2.271-19.888-2.271-31.453C101.341,69.737,101.347,69.356,101.349,68.972z"/>
	<path display="inline" fill="#F0F7F4" d="M99.167,25.775c0-4.091-11.65,9.259-15.742,9.259c-4.091,0-7.407,3.317-7.407,7.408
		c0,4.091,3.316,7.408,7.407,7.408C99.167,49.849,99.167,29.866,99.167,25.775z"/>
	<circle display="inline" fill="#F08C9E" cx="81.018" cy="41.372" r="2.083"/>
	<path display="inline" fill="#F08C9E" d="M62.05,39.33c-0.133-0.027-0.271-0.042-0.412-0.042c-1.151,0-2.083,0.933-2.083,2.083
		c0,1.15,0.933,2.083,2.083,2.083c0.104,0,0.204-0.016,0.304-0.031c-0.128-0.59-0.204-1.201-0.204-1.83
		C61.739,40.809,61.854,40.053,62.05,39.33z"/>
	<path display="inline" fill="#F08C9E" d="M114.885,51.804c0.767-5.876,1.221-13.142,1.221-21.009
		c-5.638,9.328-9.505,22.768-10.474,38.018c-0.155,2.459-0.244,4.961-0.244,7.505c0,8.717,0.956,16.979,2.651,24.427
		c1.577,1.523,2.933,3.274,4.018,5.198c2.365-5.039,4.049-17.969,4.049-33.13C116.105,64.946,115.651,57.68,114.885,51.804z"/>
	<polygon display="inline" fill="#F9CDCF" points="103.432,12.899 94.901,12.899 92.401,24.68 105.932,24.68 	"/>
</g>
<g id="pregnant2" display="none">
	<path display="inline" fill="#F08C9E" d="M68.828,128.941c-8.451-1.19-16.106-4.857-22.21-10.24
		c-1.439,3.115-2.248,6.583-2.248,10.24c0,13.508,10.95,24.459,24.458,24.459c5.8,0,11.125-2.023,15.317-5.396
		C80.184,145.973,76.881,141.021,68.828,128.941z"/>
	<path display="inline" fill="#F9CDCF" d="M110.877,73.373c0-3.053,0.106-6.055,0.293-9.006c1.162-18.3,5.804-34.428,12.568-45.621
		c-6.13-10.143-13.994-16.24-22.571-16.24c-8.454,0-16.213,5.927-22.303,15.813c-5.589,1.943-10.031,3.053-10.031,3.053
		c-5.707,0-10.333,4.626-10.333,10.333c0,2.528,0.911,4.841,2.418,6.637c-6.31,5.621-14.887,14.061-19.876,22.327
		c-5.56,7.206-8.875,16.231-8.875,26.036c0,12.744,5.591,24.18,14.451,31.996c6.104,5.383,13.759,9.05,22.21,10.24
		c8.053,12.08,11.355,17.031,15.317,19.063c2.753,1.412,5.825,1.414,11.032,1.414c15.014,0,27.186-12.171,27.186-27.186
		c0-7.677-3.188-14.605-8.305-19.549C112.024,93.747,110.877,83.832,110.877,73.373z"/>
	<path display="inline" fill="#F08C9E" d="M99.262,85.963c0-9.266,3.261-17.768,8.691-24.429c-7.095-8.702-17.896-14.263-30-14.263
		c-21.369,0-38.691,17.323-38.691,38.692c0,21.368,17.322,38.691,38.691,38.691c12.104,0,22.905-5.561,30-14.264
		C102.522,103.729,99.262,95.228,99.262,85.963z"/>
	<path display="inline" fill="#F08C9E" d="M84.522,40.331c-4.221,0-7.746-2.944-8.654-6.889c-0.148,0.644-0.234,1.311-0.234,2
		c0,4.909,3.979,8.889,8.889,8.889c18.89,0,18.89-23.98,18.89-28.889c0-0.194-0.029-0.345-0.071-0.476
		C102.953,23.246,100.467,40.331,84.522,40.331z"/>
</g>
<g id="doctor" display="none">
	<polygon display="inline" fill="#F9CDCF" points="79.876,10.98 69.64,10.98 66.64,25.117 82.876,25.117 	"/>
	<path display="inline" fill="#ACCACC" d="M46.043,25.117v116.106c9.593,4.848,20.427,7.596,31.91,7.596
		c9,0,17.599-1.695,25.52-4.755V25.117H46.043z"/>
	<path display="inline" fill="#ACCACC" d="M46.043,25.117c0,0-14.357,0.071-14.357,20c0,13.586,0,58.971,0,86.489
		c0.732,0.632,1.476,1.249,2.233,1.851L46.043,25.117z"/>
	<path display="inline" fill="#F0F7F4" d="M46.043,141.224V25.117l-12.124,108.34C37.67,136.438,41.729,139.043,46.043,141.224z"/>
	<rect x="48.785" y="91.212" display="inline" fill="#ACCACC" width="23.334" height="4.416"/>
	<circle display="inline" fill="#F0F7F4" cx="74.795" cy="97.592" r="2.384"/>
	<circle display="inline" fill="#F0F7F4" cx="74.795" cy="88.509" r="2.384"/>
	<circle display="inline" fill="#F0F7F4" cx="74.795" cy="79.427" r="2.384"/>
	<circle display="inline" fill="#F0F7F4" cx="74.795" cy="70.345" r="2.384"/>
	<circle display="inline" fill="#F0F7F4" cx="74.795" cy="61.262" r="2.384"/>
	<path display="inline" fill="#F08C9E" d="M66.64,25.117c0,0-6.994,28.487,8.118,28.487s8.118-28.487,8.118-28.487H66.64z"/>
	<rect x="50.39" y="58.877" display="inline" fill="#F0F7F4" width="17.813" height="4.77"/>
	<path display="inline" fill="#ACCACC" d="M110.651,82.547c7.179-15.212,7.179-30.165,7.179-37.43c0-19.929-14.357-20-14.357-20
		L110.651,82.547L110.651,82.547z"/>
	<g display="inline">
		<path fill="#D9EFFD" d="M97.803,39.188c-4.422,0-8.008,0.783-8.008,1.75h16.016C105.811,39.971,102.225,39.188,97.803,39.188z"/>
		<ellipse fill="#FFFFFF" cx="97.803" cy="40.938" rx="8.008" ry="1.75"/>
		<path fill="#F08C9E" d="M108.582,45.266l-2.771-4.328c0,0.966-3.586,1.75-8.008,1.75s-8.008-0.784-8.008-1.75l-2.771,4.328
			l-0.43,0.672c0,1.353,5.018,2.45,11.209,2.45s11.211-1.097,11.211-2.45L108.582,45.266z"/>
		<path fill="#F9CDCF" d="M97.803,39.188c-4.422,0-8.008,0.783-8.008,1.75h16.016C105.811,39.971,102.225,39.188,97.803,39.188z"/>
		<path fill="#FFFFFF" d="M75.17,25.354h-0.75v-0.029c-8.682-0.671-15.124-12.862-15.124-20.846c0-0.276,0.224-0.5,0.5-0.5
			s0.5,0.224,0.5,0.5c0,8.621,6.782,19.521,14.499,19.866c7.718-0.345,14.5-11.245,14.5-19.866c0-0.276,0.225-0.5,0.5-0.5
			c0.277,0,0.5,0.224,0.5,0.5c0,7.983-6.442,20.175-15.125,20.846V25.354z"/>
		<path fill="#FFFFFF" d="M74.795,35.354c-8.791,0-15.499-21.921-15.499-30.875c0-0.276,0.224-0.5,0.5-0.5s0.5,0.224,0.5,0.5
			c0,8.421,6.43,29.875,14.499,29.875c8.07,0,14.5-21.454,14.5-29.875c0-0.276,0.225-0.5,0.5-0.5c0.277,0,0.5,0.224,0.5,0.5
			C90.295,13.433,83.587,35.354,74.795,35.354z"/>
		<ellipse fill="#FFFFFF" cx="97.803" cy="40.063" rx="3.492" ry="0.875"/>
		<path fill="#FFFFFF" d="M97.803,53.604c-11.429,0-18.947-2.554-22.348-7.59c-3.527-5.225-1.223-11.099-1.123-11.347
			c0.104-0.255,0.395-0.38,0.65-0.276c0.256,0.103,0.38,0.394,0.277,0.65c-0.023,0.056-2.203,5.645,1.031,10.423
			c3.205,4.738,10.443,7.141,21.512,7.141c10.166,0,16.166-2.73,19.408-5.02c3.819-2.696,6.01-6.306,6.01-9.903
			c0-4.145-3.146-8.327-10.176-8.327c-6.217,0-10.568,1.396-12.933,4.149c-2.242,2.61-1.819,5.579-1.815,5.608
			c0.041,0.272-0.145,0.528-0.418,0.57c-0.272,0.042-0.527-0.143-0.57-0.415c-0.021-0.139-0.507-3.429,2.029-6.397
			c2.561-2.996,7.172-4.515,13.707-4.515c6.58,0,11.176,3.835,11.176,9.327c0,3.926-2.345,7.833-6.432,10.72
			C112.968,51.805,106.057,53.604,97.803,53.604z"/>
		<path fill="#FFFFFF" d="M85.84,4.479c0,4.083,0.885,0.604,1.978,0.604V3.875C86.725,3.875,85.84,0.396,85.84,4.479z"/>
		<path fill="#F08C9E" d="M89.795,4.479c0-0.333-0.885-0.604-1.978-0.604v1.208C88.91,5.083,89.795,4.813,89.795,4.479z"/>
		<path fill="#FFFFFF" d="M63.757,4.479c0,4.083-0.886,0.604-1.978,0.604V3.875C62.871,3.875,63.757,0.396,63.757,4.479z"/>
		<path fill="#F08C9E" d="M59.801,4.479c0-0.333,0.886-0.604,1.979-0.604v1.208C60.687,5.083,59.801,4.813,59.801,4.479z"/>
	</g>
	<path display="inline" fill="#529599" d="M110.651,82.547c0,0,10.159,0-7.179,0S86.594,48.046,86.594,48.046h22.42L110.651,82.547z
		"/>
	<ellipse display="inline" fill="#F9CDCF" cx="97.804" cy="48.388" rx="11.21" ry="2.45"/>
	<circle display="inline" fill="#F9CDCF" cx="97.803" cy="45.938" r="2.551"/>
	<circle display="inline" fill="#F9CDCF" cx="92.847" cy="45.938" r="2.552"/>
	<circle display="inline" fill="#F9CDCF" cx="87.744" cy="45.938" r="2.551"/>
	<circle display="inline" fill="#F9CDCF" cx="102.906" cy="45.938" r="2.551"/>
	<circle display="inline" fill="#F9CDCF" cx="108.008" cy="45.938" r="2.551"/>
</g>
<g id="doctor2">
	<g>
		<path fill="#ACCACC" d="M113.544,106.554l-35.598,15.948l-35.598-15.948c-28.203,0,0,47.849,0,47.849h71.195
			C113.544,154.402,141.776,106.554,113.544,106.554z"/>
		<polygon fill="#F9CDCF" points="42.349,106.554 77.988,101.105 113.544,106.554 77.946,122.502 		"/>
		<polygon fill="#F08C9E" points="42.349,61.27 42.349,23.135 77.988,1.503 113.544,23.135 113.544,61.27 		"/>
		<ellipse fill="#F0F7F4" cx="77.946" cy="61.27" rx="35.598" ry="45.285"/>
		<rect x="42.349" y="26.134" fill="#F9CDCF" width="71.195" height="18.769"/>
		<circle fill="#ACCACC" cx="77.946" cy="26.134" r="13.383"/>
		<rect x="52.647" y="60.9" fill="#ACCACC" width="19.798" height="10.268"/>
		<rect x="83.444" y="60.9" fill="#ACCACC" width="19.798" height="10.268"/>
		<path fill="#ACCACC" d="M103.328,78.423h-25.34H52.647c0,0-6.754,2.566,0,17.132c5.067,10.927,45.612,10.927,50.681,0
			C110.081,80.989,103.328,78.423,103.328,78.423z"/>
	</g>
</g>
</svg>
