<?xml version="1.0" encoding="UTF-8" standalone="no"?>
<svg
   xmlns:dc="http://purl.org/dc/elements/1.1/"
   xmlns:cc="http://creativecommons.org/ns#"
   xmlns:rdf="http://www.w3.org/1999/02/22-rdf-syntax-ns#"
   xmlns:svg="http://www.w3.org/2000/svg"
   xmlns="http://www.w3.org/2000/svg"
   xmlns:sodipodi="http://sodipodi.sourceforge.net/DTD/sodipodi-0.dtd"
   xmlns:inkscape="http://www.inkscape.org/namespaces/inkscape"
   width="628px"
   height="470px"
   viewBox="0 0 628 470"
   version="1.1"
   id="svg2"
   inkscape:version="0.91 r13725"
   sodipodi:docname="graphCiconia.svg">
  <metadata
     id="metadata48">
    <rdf:RDF>
      <cc:Work
         rdf:about="">
        <dc:format>image/svg+xml</dc:format>
        <dc:type
           rdf:resource="http://purl.org/dc/dcmitype/StillImage" />
        <dc:title>Slice 1</dc:title>
      </cc:Work>
    </rdf:RDF>
  </metadata>
  <sodipodi:namedview
     pagecolor="#ffffff"
     bordercolor="#666666"
     borderopacity="1"
     objecttolerance="10"
     gridtolerance="10"
     guidetolerance="10"
     inkscape:pageopacity="0"
     inkscape:pageshadow="2"
     inkscape:window-width="1446"
     inkscape:window-height="762"
     id="namedview46"
     showgrid="false"
     inkscape:zoom="1.0042553"
     inkscape:cx="359.93819"
     inkscape:cy="238.19609"
     inkscape:window-x="1"
     inkscape:window-y="45"
     inkscape:window-maximized="0"
     inkscape:current-layer="svg2" />
  <!-- Generator: Sketch 42 (36781) - http://www.bohemiancoding.com/sketch -->
  <title
     id="title4">Slice 1</title>
  <desc
     id="desc6">Created with Sketch.</desc>
  <defs
     id="defs8" />
  <path
     style="fill:none;fill-rule:evenodd;stroke:#529599;stroke-width:1.04325593;stroke-linecap:square;stroke-miterlimit:4;stroke-dasharray:6.25953578, 6.25953578000000022;stroke-dashoffset:1.3714999;fill-opacity:0;stroke-opacity:1"
     inkscape:connector-curvature="0"
     id="Line"
     d="m -0.34594956,271.5 614.70036956,0" />
  <path
     style="fill:#529599;fill-opacity:1;fill-rule:evenodd;stroke:none;stroke-width:1;stroke-linecap:square;opacity:1"
     inkscape:connector-curvature="0"
     d="m 627.34322,271.00212 -10.8,-6.48517 0,12.97034 10.8,-6.48517 z"
     id="Line-decoration-1" />
  <path
     style="fill:none;fill-rule:evenodd;stroke:#529599;stroke-width:1.01901209;stroke-linecap:square;stroke-miterlimit:4;stroke-dasharray:6.11407229, 6.11407229000000019;stroke-dashoffset:1.33189809;fill-opacity:0;stroke-opacity:1"
     inkscape:connector-curvature="0"
     id="path13"
     d="m 309.00212,469.42149 0,-456.889589" />
  <text
     style="font-weight:normal;font-size:14.37937164px;font-family:Helvetica;fill:#000000;fill-rule:evenodd;stroke:none;stroke-width:1"
     font-weight="normal"
     font-size="12"
     id="Ciconia"
     x="-54.889404"
     y="-62.184776">
    <tspan
       id="tspan18"
       y="151.10922"
       x="469.95767">Ciconia</tspan>
  </text>
  <text
     style="font-weight:normal;font-size:14.37937164px;font-family:Helvetica;fill:#000000;fill-rule:evenodd;stroke:none;stroke-width:1"
     font-weight="normal"
     font-size="12"
     id="Doctissimo"
     y="-56.845318"
     x="-13.08432">
    <tspan
       id="tspan21"
       y="436.84641"
       x="58.812542">Doctissimo</tspan>
  </text>
  <text
     style="font-weight:normal;font-size:14.37937164px;font-family:Helvetica;fill:#000000;fill-rule:evenodd;stroke:none;stroke-width:1"
     font-weight="normal"
     font-size="12"
     id="Grossesse+"
     x="-76.408096"
     y="-87.078842">
    <tspan
       id="tspan27"
       y="174.14641"
       x="177.62747">Grossesse+</tspan>
  </text>
  <text
     style="font-weight:bold;font-size:12px;font-family:Helvetica-Bold, Helvetica;fill:#529599;fill-rule:evenodd;stroke:none;stroke-width:1;fill-opacity:1;"
     font-weight="bold"
     font-size="12"
     id="Personalisé"
     x="-18.919493"
     y="2.9788136">
    <tspan
       id="tspan33"
       y="286.97882"
       x="541.08051"
       style="fill:#529599;fill-opacity:1;">Personalisé</tspan>
  </text>
  <text
     style="font-weight:bold;font-size:12px;font-family:Helvetica-Bold, Helvetica;fill:#529599;fill-rule:evenodd;stroke:none;stroke-width:1;fill-opacity:1;"
     font-weight="bold"
     font-size="12"
     id="Générique"
     x="6.9703388"
     y="4.9788136">
    <tspan
       id="tspan36"
       y="288.97879"
       x="6.9703388"
       style="fill:#529599;fill-opacity:1;">Générique</tspan>
  </text>
  <text
     style="font-weight:bold;font-size:12px;font-family:Helvetica-Bold, Helvetica;fill:#529599;fill-rule:evenodd;stroke:none;stroke-width:1;fill-opacity:1;"
     font-weight="bold"
     font-size="12"
     id="text38"
     x="-751.54926"
     y="-142.95122"
     transform="matrix(0,-1,1,0,0,0)">
    <tspan
       id="tspan40"
       y="324.04877"
       x="-463.54926"
       style="fill:#529599;fill-opacity:1;">Gratuit</tspan>
  </text>
  <text
     style="font-weight:bold;font-size:12px;font-family:Helvetica-Bold, Helvetica;fill:#529599;fill-opacity:1;fill-rule:evenodd;stroke:none;stroke-width:1"
     font-weight="bold"
     font-size="12"
     id="text42"
     x="-348.90381"
     y="312.02859"
     transform="matrix(0,-1,1,0,0,0)">
    <tspan
       id="tspan44"
       y="324.02859"
       x="-57.903835"
       style="fill:#529599;fill-opacity:1">Payant</tspan>
  </text>
  <circle
     style="opacity:1;fill:#529599;fill-opacity:1;stroke:#ffffff;stroke-width:1.19828093;stroke-opacity:1"
     id="path4209"
     cx="215.32001"
     cy="-133.06721"
     transform="scale(1,-1)"
     r="18.494654" />
  <g
     transform="matrix(1.198281,0,0,1.198281,-62.538078,-109.14027)"
     style="font-style:normal;font-weight:normal;font-size:10px;line-height:125%;font-family:sans-serif;text-align:center;letter-spacing:0px;word-spacing:0px;text-anchor:middle;fill:#000000;fill-opacity:1;stroke:none;stroke-width:1px;stroke-linecap:butt;stroke-linejoin:miter;stroke-opacity:1"
     id="flowRoot4235">
    <path
       d="m 175.54883,383.08423 -1.08887,-3.16895 -1.15723,3.16895 2.2461,0 z m -1.59668,-4.2334 1.09863,0 2.60254,7.17285 -1.06445,0 -0.72754,-2.14844 -2.83692,0 -0.77636,2.14844 -0.9961,0 2.7002,-7.17285 z m 0.50293,0 0,0 z"
       style="font-style:normal;font-variant:normal;font-weight:normal;font-stretch:normal;font-family:Helvetica;-inkscape-font-specification:Helvetica"
       id="path4444" />
    <path
       d="m 178.4541,378.85083 0.87891,0 0,7.17285 -0.87891,0 0,-7.17285 z"
       style="font-style:normal;font-variant:normal;font-weight:normal;font-stretch:normal;font-family:Helvetica;-inkscape-font-specification:Helvetica"
       id="path4446" />
    <path
       d="m 180.65625,380.8186 0.89355,0 0,5.20508 -0.89355,0 0,-5.20508 z m 0,-1.96777 0.89355,0 0,0.99609 -0.89355,0 0,-0.99609 z"
       style="font-style:normal;font-variant:normal;font-weight:normal;font-stretch:normal;font-family:Helvetica;-inkscape-font-specification:Helvetica"
       id="path4448" />
    <path
       d="m 182.88281,380.79419 0.86914,0 0,0.74219 q 0.3125,-0.38575 0.56641,-0.56153 0.43457,-0.29785 0.98633,-0.29785 0.625,0 1.00586,0.30762 0.21484,0.17578 0.39062,0.51758 0.29297,-0.41992 0.68848,-0.62012 0.39551,-0.20508 0.88867,-0.20508 1.05469,0 1.43555,0.76172 0.20508,0.41016 0.20508,1.10352 l 0,3.48144 -0.91309,0 0,-3.63281 q 0,-0.52246 -0.26367,-0.71777 -0.25879,-0.19532 -0.63477,-0.19532 -0.51758,0 -0.89355,0.34668 -0.3711,0.34668 -0.3711,1.15723 l 0,3.04199 -0.89355,0 0,-3.41308 q 0,-0.53223 -0.12695,-0.77637 -0.2002,-0.36621 -0.74707,-0.36621 -0.49805,0 -0.90821,0.38574 -0.40527,0.38574 -0.40527,1.39648 l 0,2.77344 -0.87891,0 0,-5.22949 z"
       style="font-style:normal;font-variant:normal;font-weight:normal;font-stretch:normal;font-family:Helvetica;-inkscape-font-specification:Helvetica"
       id="path4450" />
    <path
       d="m 193.38086,380.677 q 0.55664,0 1.0791,0.26367 0.52246,0.25879 0.7959,0.67383 0.26367,0.39551 0.35156,0.92285 0.0781,0.36133 0.0781,1.15235 l -3.83301,0 q 0.0244,0.7959 0.37598,1.27929 0.35156,0.47852 1.08886,0.47852 0.68848,0 1.09864,-0.4541 0.23437,-0.26367 0.33203,-0.61035 l 0.86425,0 q -0.0342,0.28808 -0.22949,0.64453 -0.19043,0.35156 -0.42969,0.57617 -0.40039,0.39062 -0.99121,0.52734 -0.31738,0.0781 -0.71777,0.0781 -0.97656,0 -1.65527,-0.70801 -0.67871,-0.71289 -0.67871,-1.99219 0,-1.25976 0.68359,-2.0459 0.68359,-0.78613 1.78711,-0.78613 z m 1.40137,2.31446 q -0.0537,-0.57129 -0.24903,-0.91309 -0.36133,-0.63477 -1.20605,-0.63477 -0.60547,0 -1.01563,0.43946 -0.41015,0.43457 -0.43457,1.1084 l 2.90528,0 z m -1.48438,-2.32422 0,0 z"
       style="font-style:normal;font-variant:normal;font-weight:normal;font-stretch:normal;font-family:Helvetica;-inkscape-font-specification:Helvetica"
       id="path4452" />
    <path
       d="m 196.76953,380.79419 0.83496,0 0,0.74219 q 0.3711,-0.45899 0.78613,-0.65918 0.41504,-0.2002 0.92286,-0.2002 1.11328,0 1.5039,0.77637 0.21485,0.4248 0.21485,1.21582 l 0,3.35449 -0.89356,0 0,-3.2959 q 0,-0.47851 -0.1416,-0.77148 -0.23437,-0.48828 -0.84961,-0.48828 -0.3125,0 -0.51269,0.0635 -0.36133,0.10743 -0.63477,0.42969 -0.21973,0.25879 -0.28809,0.53711 -0.0635,0.27344 -0.0635,0.78613 l 0,2.73926 -0.87891,0 0,-5.22949 z m 2.06543,-0.12695 0,0 z"
       style="font-style:normal;font-variant:normal;font-weight:normal;font-stretch:normal;font-family:Helvetica;-inkscape-font-specification:Helvetica"
       id="path4454" />
    <path
       d="m 202.51172,379.33423 0.88867,0 0,1.45996 0.83496,0 0,0.71777 -0.83496,0 0,3.41309 q 0,0.27344 0.18555,0.36621 0.10254,0.0537 0.34179,0.0537 0.0635,0 0.13672,0 0.0733,-0.005 0.1709,-0.0147 l 0,0.69336 q -0.15137,0.0439 -0.31738,0.0635 -0.16113,0.0195 -0.35156,0.0195 -0.61524,0 -0.83496,-0.3125 -0.21973,-0.31738 -0.21973,-0.82031 l 0,-3.46192 -0.70801,0 0,-0.71777 0.70801,0 0,-1.45996 z"
       style="font-style:normal;font-variant:normal;font-weight:normal;font-stretch:normal;font-family:Helvetica;-inkscape-font-specification:Helvetica"
       id="path4456" />
    <path
       d="m 205.80273,384.63208 q 0,0.38086 0.27832,0.60059 0.27832,0.21972 0.65918,0.21972 0.46387,0 0.89844,-0.21484 0.73242,-0.35645 0.73242,-1.16699 l 0,-0.70801 q -0.16113,0.10254 -0.41504,0.1709 -0.2539,0.0684 -0.49804,0.0976 l -0.53223,0.0684 q -0.47851,0.0635 -0.71777,0.2002 -0.40528,0.22949 -0.40528,0.73242 z m 2.12891,-1.77734 q 0.30273,-0.0391 0.40527,-0.25391 0.0586,-0.11719 0.0586,-0.33691 0,-0.44922 -0.32227,-0.64942 -0.31738,-0.20508 -0.91308,-0.20508 -0.68848,0 -0.97657,0.3711 -0.16113,0.20508 -0.20996,0.61035 l -0.82031,0 q 0.0244,-0.9668 0.625,-1.34277 0.60547,-0.38086 1.40137,-0.38086 0.92285,0 1.49902,0.35156 0.57129,0.35156 0.57129,1.09375 l 0,3.01269 q 0,0.13672 0.0537,0.21973 0.0586,0.083 0.23926,0.083 0.0586,0 0.13183,-0.005 0.0733,-0.01 0.15625,-0.0244 l 0,0.64942 q -0.20507,0.0586 -0.3125,0.0732 -0.10742,0.0147 -0.29296,0.0147 -0.45411,0 -0.65918,-0.32227 -0.10743,-0.1709 -0.15137,-0.4834 -0.26856,0.35156 -0.77149,0.61035 -0.50293,0.25879 -1.10839,0.25879 -0.72754,0 -1.19141,-0.43945 -0.45898,-0.44434 -0.45898,-1.1084 0,-0.72754 0.4541,-1.12793 0.4541,-0.40039 1.1914,-0.49316 l 1.40137,-0.17578 z m -0.72754,-2.1875 0,0 z"
       style="font-style:normal;font-variant:normal;font-weight:normal;font-stretch:normal;font-family:Helvetica;-inkscape-font-specification:Helvetica"
       id="path4458" />
    <path
       d="m 210.87109,379.33423 0.88868,0 0,1.45996 0.83496,0 0,0.71777 -0.83496,0 0,3.41309 q 0,0.27344 0.18554,0.36621 0.10254,0.0537 0.3418,0.0537 0.0635,0 0.13672,0 0.0732,-0.005 0.1709,-0.0147 l 0,0.69336 q -0.15137,0.0439 -0.31739,0.0635 -0.16113,0.0195 -0.35156,0.0195 -0.61523,0 -0.83496,-0.3125 -0.21973,-0.31738 -0.21973,-0.82031 l 0,-3.46192 -0.708,0 0,-0.71777 0.708,0 0,-1.45996 z"
       style="font-style:normal;font-variant:normal;font-weight:normal;font-stretch:normal;font-family:Helvetica;-inkscape-font-specification:Helvetica"
       id="path4460" />
    <path
       d="m 213.48828,380.8186 0.89356,0 0,5.20508 -0.89356,0 0,-5.20508 z m 0,-1.96777 0.89356,0 0,0.99609 -0.89356,0 0,-0.99609 z"
       style="font-style:normal;font-variant:normal;font-weight:normal;font-stretch:normal;font-family:Helvetica;-inkscape-font-specification:Helvetica"
       id="path4462" />
    <path
       d="m 217.79004,385.45728 q 0.87402,0 1.19629,-0.65918 0.32715,-0.66407 0.32715,-1.47461 0,-0.73243 -0.23438,-1.19141 -0.37109,-0.72266 -1.2793,-0.72266 -0.80566,0 -1.17187,0.61524 -0.36621,0.61523 -0.36621,1.48437 0,0.83496 0.36621,1.3916 0.36621,0.55665 1.16211,0.55665 z m 0.0342,-4.81446 q 1.01074,0 1.70898,0.67383 0.69825,0.67383 0.69825,1.98242 0,1.26465 -0.61524,2.08985 -0.61523,0.82519 -1.90918,0.82519 -1.0791,0 -1.71387,-0.72754 -0.63476,-0.73242 -0.63476,-1.96289 0,-1.31836 0.66894,-2.09961 0.66895,-0.78125 1.79688,-0.78125 z m -0.0293,0.0244 0,0 z"
       style="font-style:normal;font-variant:normal;font-weight:normal;font-stretch:normal;font-family:Helvetica;-inkscape-font-specification:Helvetica"
       id="path4464" />
    <path
       d="m 221.28125,380.79419 0.83496,0 0,0.74219 q 0.37109,-0.45899 0.78613,-0.65918 0.41504,-0.2002 0.92286,-0.2002 1.11328,0 1.5039,0.77637 0.21485,0.4248 0.21485,1.21582 l 0,3.35449 -0.89356,0 0,-3.2959 q 0,-0.47851 -0.1416,-0.77148 -0.23438,-0.48828 -0.84961,-0.48828 -0.3125,0 -0.5127,0.0635 -0.36132,0.10743 -0.63476,0.42969 -0.21973,0.25879 -0.28809,0.53711 -0.0635,0.27344 -0.0635,0.78613 l 0,2.73926 -0.87891,0 0,-5.22949 z m 2.06543,-0.12695 0,0 z"
       style="font-style:normal;font-variant:normal;font-weight:normal;font-stretch:normal;font-family:Helvetica;-inkscape-font-specification:Helvetica"
       id="path4466" />
    <path
       d="m 178.30273,393.20142 q 0.61524,0 1.07422,0.30273 0.24903,0.1709 0.50782,0.49805 l 0,-0.65918 0.81054,0 0,4.75586 q 0,0.99609 -0.29297,1.57226 -0.54687,1.06446 -2.06543,1.06446 -0.84472,0 -1.42089,-0.38086 -0.57618,-0.37598 -0.64454,-1.18164 l 0.89356,0 q 0.0635,0.35156 0.25391,0.54199 0.29785,0.29297 0.9375,0.29297 1.01074,0 1.32324,-0.71289 0.18554,-0.41993 0.1709,-1.49903 -0.26368,0.40039 -0.63477,0.59571 -0.37109,0.19531 -0.98145,0.19531 -0.8496,0 -1.48925,-0.60059 -0.63477,-0.60547 -0.63477,-1.99707 0,-1.31347 0.63965,-2.05078 0.64453,-0.7373 1.55273,-0.7373 z m 1.58204,2.68554 q 0,-0.97168 -0.4004,-1.44043 -0.40039,-0.46875 -1.0205,-0.46875 -0.92774,0 -1.26953,0.86914 -0.18067,0.46387 -0.18067,1.21582 0,0.88379 0.35645,1.34766 0.36133,0.45898 0.96679,0.45898 0.94727,0 1.33301,-0.85449 0.21485,-0.4834 0.21485,-1.12793 z m -1.4795,-2.71972 0,0 z"
       style="font-style:normal;font-variant:normal;font-weight:normal;font-stretch:normal;font-family:Helvetica;-inkscape-font-specification:Helvetica"
       id="path4468" />
    <path
       d="m 182.04785,393.29419 0.83496,0 0,0.90332 q 0.10254,-0.26367 0.50293,-0.63965 0.40039,-0.38086 0.92285,-0.38086 0.0244,0 0.083,0.005 0.0586,0.005 0.2002,0.0195 l 0,0.92773 q -0.0781,-0.0146 -0.14649,-0.0195 -0.0635,-0.005 -0.1416,-0.005 -0.66406,0 -1.02051,0.42968 -0.35644,0.42481 -0.35644,0.98145 l 0,3.00781 -0.87891,0 0,-5.22949 z"
       style="font-style:normal;font-variant:normal;font-weight:normal;font-stretch:normal;font-family:Helvetica;-inkscape-font-specification:Helvetica"
       id="path4470" />
    <path
       d="m 187.43848,397.95728 q 0.87402,0 1.19629,-0.65918 0.32714,-0.66407 0.32714,-1.47461 0,-0.73243 -0.23437,-1.19141 -0.37109,-0.72266 -1.2793,-0.72266 -0.80566,0 -1.17187,0.61524 -0.36621,0.61523 -0.36621,1.48437 0,0.83496 0.36621,1.3916 0.36621,0.55665 1.16211,0.55665 z m 0.0342,-4.81446 q 1.01074,0 1.70898,0.67383 0.69824,0.67383 0.69824,1.98242 0,1.26465 -0.61523,2.08985 -0.61524,0.82519 -1.90918,0.82519 -1.0791,0 -1.71387,-0.72754 -0.63476,-0.73242 -0.63476,-1.96289 0,-1.31836 0.66894,-2.09961 0.66895,-0.78125 1.79688,-0.78125 z m -0.0293,0.0244 0,0 z"
       style="font-style:normal;font-variant:normal;font-weight:normal;font-stretch:normal;font-family:Helvetica;-inkscape-font-specification:Helvetica"
       id="path4472" />
    <path
       d="m 191.45215,396.88306 q 0.0391,0.43945 0.21972,0.67382 0.33204,0.42481 1.15235,0.42481 0.48828,0 0.85937,-0.20996 0.3711,-0.21485 0.3711,-0.65918 0,-0.33692 -0.29785,-0.5127 -0.19043,-0.10742 -0.75196,-0.24902 l -0.69824,-0.17578 q -0.66894,-0.16602 -0.98633,-0.37109 -0.5664,-0.35645 -0.5664,-0.98633 0,-0.74219 0.53222,-1.20117 0.53711,-0.45899 1.44043,-0.45899 1.18164,0 1.7041,0.69336 0.32715,0.43945 0.31739,0.94727 l -0.83008,0 q -0.0244,-0.29786 -0.20996,-0.542 -0.30274,-0.34668 -1.04981,-0.34668 -0.49804,0 -0.75683,0.19043 -0.25391,0.19043 -0.25391,0.50293 0,0.3418 0.33691,0.54688 0.19532,0.12207 0.57618,0.21484 l 0.58105,0.1416 q 0.94727,0.2295 1.26953,0.44434 0.5127,0.33691 0.5127,1.05957 0,0.69824 -0.53223,1.20605 -0.52734,0.50782 -1.61133,0.50782 -1.16699,0 -1.65527,-0.52735 -0.4834,-0.53222 -0.51758,-1.31347 l 0.84473,0 z m 1.29883,-3.71582 0,0 z"
       style="font-style:normal;font-variant:normal;font-weight:normal;font-stretch:normal;font-family:Helvetica;-inkscape-font-specification:Helvetica"
       id="path4474" />
    <path
       d="m 196.47168,396.88306 q 0.0391,0.43945 0.21973,0.67382 0.33203,0.42481 1.15234,0.42481 0.48828,0 0.85937,-0.20996 0.3711,-0.21485 0.3711,-0.65918 0,-0.33692 -0.29785,-0.5127 -0.19043,-0.10742 -0.75196,-0.24902 l -0.69824,-0.17578 q -0.66894,-0.16602 -0.98633,-0.37109 -0.5664,-0.35645 -0.5664,-0.98633 0,-0.74219 0.53222,-1.20117 0.53711,-0.45899 1.44043,-0.45899 1.18164,0 1.70411,0.69336 0.32714,0.43945 0.31738,0.94727 l -0.83008,0 q -0.0244,-0.29786 -0.20996,-0.542 -0.30274,-0.34668 -1.04981,-0.34668 -0.49804,0 -0.75683,0.19043 -0.25391,0.19043 -0.25391,0.50293 0,0.3418 0.33692,0.54688 0.19531,0.12207 0.57617,0.21484 l 0.58105,0.1416 q 0.94727,0.2295 1.26953,0.44434 0.5127,0.33691 0.5127,1.05957 0,0.69824 -0.53223,1.20605 -0.52734,0.50782 -1.61133,0.50782 -1.16699,0 -1.65527,-0.52735 -0.4834,-0.53222 -0.51758,-1.31347 l 0.84473,0 z m 1.29883,-3.71582 0,0 z"
       style="font-style:normal;font-variant:normal;font-weight:normal;font-stretch:normal;font-family:Helvetica;-inkscape-font-specification:Helvetica"
       id="path4476" />
    <path
       d="m 203.14648,393.177 q 0.55664,0 1.07911,0.26367 0.52246,0.25879 0.79589,0.67383 0.26368,0.39551 0.35157,0.92285 0.0781,0.36133 0.0781,1.15235 l -3.83301,0 q 0.0244,0.7959 0.37598,1.27929 0.35156,0.47852 1.08887,0.47852 0.68847,0 1.09863,-0.4541 0.23438,-0.26367 0.33203,-0.61035 l 0.86426,0 q -0.0342,0.28808 -0.22949,0.64453 -0.19043,0.35156 -0.42969,0.57617 -0.40039,0.39062 -0.99121,0.52734 -0.31738,0.0781 -0.71777,0.0781 -0.97657,0 -1.65528,-0.70801 -0.67871,-0.71289 -0.67871,-1.99219 0,-1.25976 0.68359,-2.0459 0.6836,-0.78613 1.78711,-0.78613 z m 1.40137,2.31446 q -0.0537,-0.57129 -0.24902,-0.91309 -0.36133,-0.63477 -1.20606,-0.63477 -0.60547,0 -1.01562,0.43946 -0.41016,0.43457 -0.43457,1.1084 l 2.90527,0 z m -1.48437,-2.32422 0,0 z"
       style="font-style:normal;font-variant:normal;font-weight:normal;font-stretch:normal;font-family:Helvetica;-inkscape-font-specification:Helvetica"
       id="path4478" />
    <path
       d="m 207.05762,396.88306 q 0.0391,0.43945 0.21972,0.67382 0.33203,0.42481 1.15235,0.42481 0.48828,0 0.85937,-0.20996 0.3711,-0.21485 0.3711,-0.65918 0,-0.33692 -0.29786,-0.5127 -0.19043,-0.10742 -0.75195,-0.24902 l -0.69824,-0.17578 q -0.66895,-0.16602 -0.98633,-0.37109 -0.56641,-0.35645 -0.56641,-0.98633 0,-0.74219 0.53223,-1.20117 0.53711,-0.45899 1.44043,-0.45899 1.18164,0 1.7041,0.69336 0.32715,0.43945 0.31739,0.94727 l -0.83008,0 q -0.0244,-0.29786 -0.20996,-0.542 -0.30274,-0.34668 -1.04981,-0.34668 -0.49805,0 -0.75683,0.19043 -0.25391,0.19043 -0.25391,0.50293 0,0.3418 0.33691,0.54688 0.19532,0.12207 0.57618,0.21484 l 0.58105,0.1416 q 0.94727,0.2295 1.26953,0.44434 0.5127,0.33691 0.5127,1.05957 0,0.69824 -0.53223,1.20605 -0.52734,0.50782 -1.61133,0.50782 -1.16699,0 -1.65527,-0.52735 -0.4834,-0.53222 -0.51758,-1.31347 l 0.84473,0 z m 1.29883,-3.71582 0,0 z"
       style="font-style:normal;font-variant:normal;font-weight:normal;font-stretch:normal;font-family:Helvetica;-inkscape-font-specification:Helvetica"
       id="path4480" />
    <path
       d="m 212.07715,396.88306 q 0.0391,0.43945 0.21972,0.67382 0.33204,0.42481 1.15235,0.42481 0.48828,0 0.85937,-0.20996 0.3711,-0.21485 0.3711,-0.65918 0,-0.33692 -0.29785,-0.5127 -0.19043,-0.10742 -0.75196,-0.24902 l -0.69824,-0.17578 q -0.66894,-0.16602 -0.98633,-0.37109 -0.5664,-0.35645 -0.5664,-0.98633 0,-0.74219 0.53222,-1.20117 0.53711,-0.45899 1.44043,-0.45899 1.18164,0 1.7041,0.69336 0.32715,0.43945 0.31739,0.94727 l -0.83008,0 q -0.0244,-0.29786 -0.20996,-0.542 -0.30274,-0.34668 -1.04981,-0.34668 -0.49804,0 -0.75683,0.19043 -0.25391,0.19043 -0.25391,0.50293 0,0.3418 0.33691,0.54688 0.19532,0.12207 0.57618,0.21484 l 0.58105,0.1416 q 0.94727,0.2295 1.26953,0.44434 0.5127,0.33691 0.5127,1.05957 0,0.69824 -0.53223,1.20605 -0.52734,0.50782 -1.61133,0.50782 -1.16699,0 -1.65527,-0.52735 -0.4834,-0.53222 -0.51758,-1.31347 l 0.84473,0 z m 1.29883,-3.71582 0,0 z"
       style="font-style:normal;font-variant:normal;font-weight:normal;font-stretch:normal;font-family:Helvetica;-inkscape-font-specification:Helvetica"
       id="path4482" />
    <path
       d="m 218.75195,393.177 q 0.55664,0 1.0791,0.26367 0.52247,0.25879 0.7959,0.67383 0.26367,0.39551 0.35157,0.92285 0.0781,0.36133 0.0781,1.15235 l -3.83301,0 q 0.0244,0.7959 0.37598,1.27929 0.35156,0.47852 1.08887,0.47852 0.68847,0 1.09863,-0.4541 0.23437,-0.26367 0.33203,-0.61035 l 0.86426,0 q -0.0342,0.28808 -0.22949,0.64453 -0.19043,0.35156 -0.42969,0.57617 -0.40039,0.39062 -0.99121,0.52734 -0.31739,0.0781 -0.71778,0.0781 -0.97656,0 -1.65527,-0.70801 -0.67871,-0.71289 -0.67871,-1.99219 0,-1.25976 0.68359,-2.0459 0.6836,-0.78613 1.78711,-0.78613 z m 1.40137,2.31446 q -0.0537,-0.57129 -0.24902,-0.91309 -0.36133,-0.63477 -1.20606,-0.63477 -0.60547,0 -1.01562,0.43946 -0.41016,0.43457 -0.43457,1.1084 l 2.90527,0 z m -1.48437,-2.32422 0,0 z"
       style="font-style:normal;font-variant:normal;font-weight:normal;font-stretch:normal;font-family:Helvetica;-inkscape-font-specification:Helvetica"
       id="path4484" />
  </g>
  <circle
     transform="scale(1,-1)"
     cy="-113.81276"
     cx="492.96719"
     id="circle4324"
     style="opacity:1;fill:#f08c9e;fill-opacity:1;stroke:#ffffff;stroke-width:1.19828093;stroke-opacity:1"
     r="18.494654" />
  <path
     id="path4346"
     d="M 314.82522,11.233223 308.71473,0.21690053 302.22956,11.449544 314.82522,11.233223 Z"
     inkscape:connector-curvature="0"
     style="opacity:1;fill:#529599;fill-opacity:1;fill-rule:evenodd;stroke:none;stroke-width:1;stroke-linecap:square" />
  <circle
     r="18.494654"
     transform="scale(1,-1)"
     cy="-316.28754"
     cx="176.48526"
     id="circle4367"
     style="opacity:1;fill:#529599;fill-opacity:1;stroke:#ffffff;stroke-width:1.19828093;stroke-opacity:1" />
  <circle
     style="opacity:1;fill:#529599;fill-opacity:1;stroke:#ffffff;stroke-width:1.19828093;stroke-opacity:1"
     id="circle4369"
     cx="94.832718"
     cy="-398.93582"
     transform="scale(1,-1)"
     r="18.494654" />
  <ellipse
     r="18.494654"
     transform="scale(1,-1)"
     cy="-315.29178"
     cx="114.74797"
     id="ellipse4371"
     style="opacity:1;fill:#529599;fill-opacity:1;stroke:#ffffff;stroke-width:1.19828093;stroke-opacity:1" />
  <circle
     style="opacity:1;fill:#529599;fill-opacity:1;stroke:#ffffff;stroke-width:1.19828093;stroke-opacity:1"
     id="circle4373"
     cx="429.409"
     cy="-340.18585"
     transform="scale(1,-1)"
     r="18.494654" />
  <g
     transform="matrix(1.198281,0,0,1.198281,191.38142,-82.254677)"
     style="font-style:normal;font-weight:normal;font-size:10px;line-height:125%;font-family:sans-serif;text-align:center;letter-spacing:0px;word-spacing:0px;text-anchor:middle;fill:#000000;fill-opacity:1;stroke:none;stroke-width:1px;stroke-linecap:butt;stroke-linejoin:miter;stroke-opacity:1"
     id="flowRoot4402">
    <path
       d="m 183.23437,378.85083 1.14747,0 3.62304,5.81055 0,-5.81055 0.92285,0 0,7.17285 -1.08886,0 -3.67676,-5.80566 0,5.80566 -0.92774,0 0,-7.17285 z m 2.78321,0 0,0 z"
       style="font-style:normal;font-variant:normal;font-weight:normal;font-stretch:normal;font-family:Helvetica;-inkscape-font-specification:Helvetica"
       id="path4413" />
    <path
       d="m 191.70117,379.03638 q 0.62012,0 1.04492,0.42968 0.42481,0.42481 0.42481,1.04004 0,0.63477 -0.44434,1.05957 -0.43945,0.41993 -1.02539,0.41993 -0.64941,0 -1.06445,-0.43946 -0.41504,-0.43945 -0.41504,-1.02539 0,-0.625 0.43457,-1.05469 0.43945,-0.42968 1.04492,-0.42968 z m -0.94726,1.47949 q 0,0.38086 0.27832,0.65918 0.27832,0.27832 0.66894,0.27832 0.37598,0 0.6543,-0.27344 0.2832,-0.27832 0.2832,-0.67383 0,-0.38086 -0.27832,-0.65918 -0.27344,-0.27832 -0.65918,-0.27832 -0.38574,0 -0.66894,0.27832 -0.27832,0.27344 -0.27832,0.66895 z"
       style="font-style:normal;font-variant:normal;font-weight:normal;font-stretch:normal;font-family:Helvetica;-inkscape-font-specification:Helvetica"
       id="path4415" />
    <path
       d="m 197.78516,378.85083 2.06054,6.1084 2.03614,-6.1084 1.08886,0 -2.61718,7.17285 -1.03028,0 -2.6123,-7.17285 1.07422,0 z"
       style="font-style:normal;font-variant:normal;font-weight:normal;font-stretch:normal;font-family:Helvetica;-inkscape-font-specification:Helvetica"
       id="path4417" />
    <path
       d="m 205.95898,380.677 q 0.55664,0 1.07911,0.26367 0.52246,0.25879 0.79589,0.67383 0.26368,0.39551 0.35157,0.92285 0.0781,0.36133 0.0781,1.15235 l -3.83301,0 q 0.0244,0.7959 0.37598,1.27929 0.35156,0.47852 1.08887,0.47852 0.68847,0 1.09863,-0.4541 0.23438,-0.26367 0.33203,-0.61035 l 0.86426,0 q -0.0342,0.28808 -0.22949,0.64453 -0.19043,0.35156 -0.42969,0.57617 -0.40039,0.39062 -0.99121,0.52734 -0.31738,0.0781 -0.71777,0.0781 -0.97657,0 -1.65528,-0.70801 -0.67871,-0.71289 -0.67871,-1.99219 0,-1.25976 0.68359,-2.0459 0.6836,-0.78613 1.78711,-0.78613 z m 1.40137,2.31446 q -0.0537,-0.57129 -0.24902,-0.91309 -0.36133,-0.63477 -1.20606,-0.63477 -0.60547,0 -1.01562,0.43946 -0.41016,0.43457 -0.43457,1.1084 l 2.90527,0 z m -1.48437,-2.32422 0,0 z"
       style="font-style:normal;font-variant:normal;font-weight:normal;font-stretch:normal;font-family:Helvetica;-inkscape-font-specification:Helvetica"
       id="path4419" />
    <path
       d="m 209.37207,380.79419 0.83496,0 0,0.90332 q 0.10254,-0.26367 0.50293,-0.63965 0.40039,-0.38086 0.92285,-0.38086 0.0244,0 0.083,0.005 0.0586,0.005 0.2002,0.0195 l 0,0.92773 q -0.0781,-0.0146 -0.14649,-0.0195 -0.0635,-0.005 -0.1416,-0.005 -0.66406,0 -1.02051,0.42968 -0.35644,0.42481 -0.35644,0.98145 l 0,3.00781 -0.87891,0 0,-5.22949 z"
       style="font-style:normal;font-variant:normal;font-weight:normal;font-stretch:normal;font-family:Helvetica;-inkscape-font-specification:Helvetica"
       id="path4421" />
    <path
       d="m 212.86328,379.33423 0.88867,0 0,1.45996 0.83496,0 0,0.71777 -0.83496,0 0,3.41309 q 0,0.27344 0.18555,0.36621 0.10254,0.0537 0.3418,0.0537 0.0635,0 0.13672,0 0.0732,-0.005 0.17089,-0.0147 l 0,0.69336 q -0.15136,0.0439 -0.31738,0.0635 -0.16113,0.0195 -0.35156,0.0195 -0.61524,0 -0.83496,-0.3125 -0.21973,-0.31738 -0.21973,-0.82031 l 0,-3.46192 -0.70801,0 0,-0.71777 0.70801,0 0,-1.45996 z"
       style="font-style:normal;font-variant:normal;font-weight:normal;font-stretch:normal;font-family:Helvetica;-inkscape-font-specification:Helvetica"
       id="path4423" />
    <path
       d="m 171.70117,396.20923 q 0.0342,0.61035 0.28809,0.99121 0.4834,0.71289 1.7041,0.71289 0.54687,0 0.99609,-0.15625 0.86914,-0.30273 0.86914,-1.08398 0,-0.58594 -0.36621,-0.83497 -0.37109,-0.24414 -1.16211,-0.4248 l -0.97168,-0.21973 q -0.95214,-0.21484 -1.34765,-0.47363 -0.6836,-0.44922 -0.6836,-1.34277 0,-0.9668 0.66895,-1.58692 0.66894,-0.62011 1.89453,-0.62011 1.12793,0 1.91406,0.54687 0.79102,0.54199 0.79102,1.73828 l -0.91309,0 q -0.0732,-0.57617 -0.3125,-0.88379 -0.44433,-0.56152 -1.50879,-0.56152 -0.85937,0 -1.23535,0.36133 -0.37597,0.36133 -0.37597,0.83984 0,0.52735 0.43945,0.77149 0.28808,0.15625 1.30371,0.39062 l 1.00586,0.22949 q 0.72754,0.16602 1.12305,0.4541 0.68359,0.50293 0.68359,1.45997 0,1.1914 -0.86914,1.7041 -0.86426,0.51269 -2.01172,0.51269 -1.33789,0 -2.09473,-0.68359 -0.75683,-0.67871 -0.74218,-1.84082 l 0.91308,0 z m 1.96289,-5.05371 0,0 z"
       style="font-style:normal;font-variant:normal;font-weight:normal;font-stretch:normal;font-family:Helvetica;-inkscape-font-specification:Helvetica"
       id="path4425" />
    <path
       d="m 178.2832,397.13208 q 0,0.38086 0.27832,0.60059 0.27832,0.21972 0.65918,0.21972 0.46387,0 0.89844,-0.21484 0.73242,-0.35645 0.73242,-1.16699 l 0,-0.70801 q -0.16113,0.10254 -0.41504,0.1709 -0.2539,0.0684 -0.49804,0.0976 l -0.53223,0.0684 q -0.47852,0.0635 -0.71777,0.2002 -0.40528,0.22949 -0.40528,0.73242 z m 2.12891,-1.77734 q 0.30273,-0.0391 0.40527,-0.25391 0.0586,-0.11719 0.0586,-0.33691 0,-0.44922 -0.32227,-0.64942 -0.31738,-0.20508 -0.91309,-0.20508 -0.68847,0 -0.97656,0.3711 -0.16113,0.20508 -0.20996,0.61035 l -0.82031,0 q 0.0244,-0.9668 0.625,-1.34277 0.60547,-0.38086 1.40137,-0.38086 0.92285,0 1.49902,0.35156 0.57129,0.35156 0.57129,1.09375 l 0,3.01269 q 0,0.13672 0.0537,0.21973 0.0586,0.083 0.23926,0.083 0.0586,0 0.13183,-0.005 0.0733,-0.01 0.15625,-0.0244 l 0,0.64942 q -0.20507,0.0586 -0.3125,0.0732 -0.10742,0.0147 -0.29297,0.0147 -0.4541,0 -0.65918,-0.32227 -0.10742,-0.1709 -0.15136,-0.4834 -0.26856,0.35156 -0.77149,0.61035 -0.50293,0.25879 -1.1084,0.25879 -0.72753,0 -1.1914,-0.43945 -0.45899,-0.44434 -0.45899,-1.1084 0,-0.72754 0.45411,-1.12793 0.4541,-0.40039 1.1914,-0.49316 l 1.40137,-0.17578 z m -0.72754,-2.1875 0,0 z"
       style="font-style:normal;font-variant:normal;font-weight:normal;font-stretch:normal;font-family:Helvetica;-inkscape-font-specification:Helvetica"
       id="path4427" />
    <path
       d="m 185.02148,393.20142 q 0.61524,0 1.07422,0.30273 0.24903,0.1709 0.50782,0.49805 l 0,-0.65918 0.81054,0 0,4.75586 q 0,0.99609 -0.29297,1.57226 -0.54687,1.06446 -2.06543,1.06446 -0.84472,0 -1.42089,-0.38086 -0.57618,-0.37598 -0.64454,-1.18164 l 0.89356,0 q 0.0635,0.35156 0.25391,0.54199 0.29785,0.29297 0.9375,0.29297 1.01074,0 1.32324,-0.71289 0.18554,-0.41993 0.1709,-1.49903 -0.26368,0.40039 -0.63477,0.59571 -0.37109,0.19531 -0.98145,0.19531 -0.8496,0 -1.48925,-0.60059 -0.63477,-0.60547 -0.63477,-1.99707 0,-1.31347 0.63965,-2.05078 0.64453,-0.7373 1.55273,-0.7373 z m 1.58204,2.68554 q 0,-0.97168 -0.4004,-1.44043 -0.40039,-0.46875 -1.0205,-0.46875 -0.92774,0 -1.26953,0.86914 -0.18067,0.46387 -0.18067,1.21582 0,0.88379 0.35645,1.34766 0.36133,0.45898 0.96679,0.45898 0.94727,0 1.33301,-0.85449 0.21485,-0.4834 0.21485,-1.12793 z m -1.4795,-2.71972 0,0 z"
       style="font-style:normal;font-variant:normal;font-weight:normal;font-stretch:normal;font-family:Helvetica;-inkscape-font-specification:Helvetica"
       id="path4429" />
    <path
       d="m 190.91992,393.177 q 0.55664,0 1.0791,0.26367 0.52246,0.25879 0.7959,0.67383 0.26367,0.39551 0.35156,0.92285 0.0781,0.36133 0.0781,1.15235 l -3.83301,0 q 0.0244,0.7959 0.37598,1.27929 0.35156,0.47852 1.08887,0.47852 0.68847,0 1.09863,-0.4541 0.23437,-0.26367 0.33203,-0.61035 l 0.86426,0 q -0.0342,0.28808 -0.2295,0.64453 -0.19042,0.35156 -0.42968,0.57617 -0.40039,0.39062 -0.99121,0.52734 -0.31739,0.0781 -0.71778,0.0781 -0.97656,0 -1.65527,-0.70801 -0.67871,-0.71289 -0.67871,-1.99219 0,-1.25976 0.68359,-2.0459 0.6836,-0.78613 1.78711,-0.78613 z m 1.40137,2.31446 q -0.0537,-0.57129 -0.24902,-0.91309 -0.36133,-0.63477 -1.20606,-0.63477 -0.60547,0 -1.01562,0.43946 -0.41016,0.43457 -0.43457,1.1084 l 2.90527,0 z m -1.48438,-2.32422 0,0 z"
       style="font-style:normal;font-variant:normal;font-weight:normal;font-stretch:normal;font-family:Helvetica;-inkscape-font-specification:Helvetica"
       id="path4431" />
    <path
       d="m 197.30176,392.49829 q 0.0195,-0.54687 0.19043,-0.80078 0.30761,-0.44922 1.18652,-0.44922 0.083,0 0.1709,0.005 0.0879,0.005 0.20019,0.0146 l 0,0.80078 q -0.13671,-0.01 -0.20019,-0.01 -0.0586,-0.005 -0.11231,-0.005 -0.40039,0 -0.47851,0.20996 -0.0781,0.20507 -0.0781,1.05468 l 0.86914,0 0,0.69336 -0.8789,0 0,4.51172 -0.86914,0 0,-4.51172 -0.72754,0 0,-0.69336 0.72754,0 0,-0.82031 z"
       style="font-style:normal;font-variant:normal;font-weight:normal;font-stretch:normal;font-family:Helvetica;-inkscape-font-specification:Helvetica"
       id="path4433" />
    <path
       d="m 202.05273,393.177 q 0.55664,0 1.07911,0.26367 0.52246,0.25879 0.79589,0.67383 0.26368,0.39551 0.35157,0.92285 0.0781,0.36133 0.0781,1.15235 l -3.83301,0 q 0.0244,0.7959 0.37598,1.27929 0.35156,0.47852 1.08887,0.47852 0.68847,0 1.09863,-0.4541 0.23438,-0.26367 0.33203,-0.61035 l 0.86426,0 q -0.0342,0.28808 -0.22949,0.64453 -0.19043,0.35156 -0.42969,0.57617 -0.40039,0.39062 -0.99121,0.52734 -0.31738,0.0781 -0.71777,0.0781 -0.97657,0 -1.65528,-0.70801 -0.67871,-0.71289 -0.67871,-1.99219 0,-1.25976 0.68359,-2.0459 0.6836,-0.78613 1.78711,-0.78613 z m 1.40137,2.31446 q -0.0537,-0.57129 -0.24902,-0.91309 -0.36133,-0.63477 -1.20606,-0.63477 -0.60547,0 -1.01562,0.43946 -0.41016,0.43457 -0.43457,1.1084 l 2.90527,0 z m -1.48437,-2.32422 0,0 z"
       style="font-style:normal;font-variant:normal;font-weight:normal;font-stretch:normal;font-family:Helvetica;-inkscape-font-specification:Helvetica"
       id="path4435" />
    <path
       d="m 205.44141,393.29419 0.86914,0 0,0.74219 q 0.3125,-0.38575 0.5664,-0.56153 0.43457,-0.29785 0.98633,-0.29785 0.625,0 1.00586,0.30762 0.21484,0.17578 0.39063,0.51758 0.29296,-0.41992 0.68847,-0.62012 0.39551,-0.20508 0.88867,-0.20508 1.05469,0 1.43555,0.76172 0.20508,0.41016 0.20508,1.10352 l 0,3.48144 -0.91309,0 0,-3.63281 q 0,-0.52246 -0.26367,-0.71777 -0.25879,-0.19532 -0.63476,-0.19532 -0.51758,0 -0.89356,0.34668 -0.37109,0.34668 -0.37109,1.15723 l 0,3.04199 -0.89356,0 0,-3.41308 q 0,-0.53223 -0.12695,-0.77637 -0.2002,-0.36621 -0.74707,-0.36621 -0.49805,0 -0.9082,0.38574 -0.40528,0.38574 -0.40528,1.39648 l 0,2.77344 -0.8789,0 0,-5.22949 z"
       style="font-style:normal;font-variant:normal;font-weight:normal;font-stretch:normal;font-family:Helvetica;-inkscape-font-specification:Helvetica"
       id="path4437" />
    <path
       d="m 213.76172,393.29419 0.86914,0 0,0.74219 q 0.3125,-0.38575 0.56641,-0.56153 0.43457,-0.29785 0.98632,-0.29785 0.625,0 1.00586,0.30762 0.21485,0.17578 0.39063,0.51758 0.29297,-0.41992 0.68847,-0.62012 0.39551,-0.20508 0.88868,-0.20508 1.05468,0 1.43554,0.76172 0.20508,0.41016 0.20508,1.10352 l 0,3.48144 -0.91308,0 0,-3.63281 q 0,-0.52246 -0.26368,-0.71777 -0.25879,-0.19532 -0.63476,-0.19532 -0.51758,0 -0.89356,0.34668 -0.37109,0.34668 -0.37109,1.15723 l 0,3.04199 -0.89356,0 0,-3.41308 q 0,-0.53223 -0.12695,-0.77637 -0.20019,-0.36621 -0.74707,-0.36621 -0.49805,0 -0.9082,0.38574 -0.40528,0.38574 -0.40528,1.39648 l 0,2.77344 -0.8789,0 0,-5.22949 z"
       style="font-style:normal;font-variant:normal;font-weight:normal;font-stretch:normal;font-family:Helvetica;-inkscape-font-specification:Helvetica"
       id="path4439" />
    <path
       d="m 224.25977,393.177 q 0.55664,0 1.0791,0.26367 0.52246,0.25879 0.7959,0.67383 0.26367,0.39551 0.35156,0.92285 0.0781,0.36133 0.0781,1.15235 l -3.833,0 q 0.0244,0.7959 0.37597,1.27929 0.35156,0.47852 1.08887,0.47852 0.68848,0 1.09863,-0.4541 0.23438,-0.26367 0.33203,-0.61035 l 0.86426,0 q -0.0342,0.28808 -0.22949,0.64453 -0.19043,0.35156 -0.42969,0.57617 -0.40039,0.39062 -0.99121,0.52734 -0.31738,0.0781 -0.71777,0.0781 -0.97657,0 -1.65528,-0.70801 -0.67871,-0.71289 -0.67871,-1.99219 0,-1.25976 0.6836,-2.0459 0.68359,-0.78613 1.78711,-0.78613 z m 1.40136,2.31446 q -0.0537,-0.57129 -0.24902,-0.91309 -0.36133,-0.63477 -1.20606,-0.63477 -0.60546,0 -1.01562,0.43946 -0.41016,0.43457 -0.43457,1.1084 l 2.90527,0 z m -1.48437,-2.32422 0,0 z"
       style="font-style:normal;font-variant:normal;font-weight:normal;font-stretch:normal;font-family:Helvetica;-inkscape-font-specification:Helvetica"
       id="path4441" />
  </g>
</svg>
