<?xml version="1.0" encoding="utf-8"?>
<!-- Generator: Adobe Illustrator 16.0.0, SVG Export Plug-In . SVG Version: 6.00 Build 0)  -->
<!DOCTYPE svg PUBLIC "-//W3C//DTD SVG 1.1//EN" "http://www.w3.org/Graphics/SVG/1.1/DTD/svg11.dtd">
<svg version="1.1" xmlns="http://www.w3.org/2000/svg" xmlns:xlink="http://www.w3.org/1999/xlink" x="0px" y="0px"
	 width="141.732px" height="141.732px" viewBox="0 0 141.732 141.732" enable-background="new 0 0 141.732 141.732"
	 xml:space="preserve">
<g id="colors">
	<rect x="155.905" y="-14.173" fill="#529599" width="28.346" height="170.08"/>
	<rect x="186.943" y="-14.173" fill="#ACCACC" width="28.346" height="170.08"/>
	<rect x="217.981" y="-14.173" fill="#F0F7F4" width="28.346" height="170.08"/>
	<rect x="249.02" y="-14.173" fill="#F9CDCF" width="28.346" height="170.08"/>
	<rect x="280.058" y="-14.173" fill="#F08C9E" width="28.346" height="170.08"/>
</g>
<g id="circle">
	<circle fill="#529599" cx="70.866" cy="70.866" r="70.866"/>
</g>
<g id="stork1" display="none">
	<g display="inline">
		<path fill="#F0F7F4" d="M60.748,88.509c-33.642,0-24.358-42.698-24.358-42.698c33.75,34.75,41.262,24.968,41.262,24.968
			S72.856,88.509,60.748,88.509z"/>
		<path fill="#F9CDCF" d="M77.651,70.779c0,0-18.261,21.781-41.262-24.968L77.651,70.779z"/>
		<path fill="#BA7300" d="M89.628,59.627c0,0,16.177-5.424,35.094-8.901C124.722,50.726,102.429,51.13,89.628,59.627z"/>
		<path fill="#F0F7F4" d="M94.556,55.059c-3.5-0.167-10.666-8.833-16.43,11.162c-5.764,19.995-17.378,22.288-17.378,22.288
			c26.358,0,20.059-28.663,27.892-27.573C88.64,60.936,85.472,59.057,94.556,55.059z"/>
		<circle cx="89.015" cy="56.217" r="0.583"/>
		<path fill="#DEE7A4" d="M89.628,59.627c11.32-6.5,35.094-8.901,35.094-8.901c-8.833-1.5-26.666,4.5-30.166,4.333
			c-9.084,3.998-5.916,5.877-5.916,5.877c7.131,0.992,36.082-4.543,36.082-4.543L89.628,59.627z"/>
		<path fill="#F0F7F4" d="M77.651,70.779c0,0-4.637,22.656-47.762,24.906C-13.235,97.936,64.689,83.741,77.651,70.779z"/>
	</g>
</g>
<g id="stork2">
	<g>
		<path fill="#ACCACC" d="M140.357,88.961c0-20.128-16.169-46.445-23.778-46.445l0,0c3.805,0,11.89,29.826,11.89,39.889
			s-8.085,13.222-11.89,13.222v19.778C124.188,115.405,140.357,109.088,140.357,88.961z"/>
		<path fill="#F9CDCF" d="M122.523,62.461c0,5.031-4.042,6.611-5.944,6.611v26.555c3.805,0,11.89-3.158,11.89-13.222
			s-8.085-39.889-11.89-39.889v0C118.481,42.517,122.523,57.429,122.523,62.461z"/>
		<path fill="#ACCACC" d="M75.502,59.705L50.986,15.748c0,0-25.167,26.667,0,49.667C76.153,88.414,75.502,59.705,75.502,59.705z"/>
		<path fill="#F0F7F4" d="M52.964,83.345c-44.856,0-32.478-56.93-32.478-56.93c45,46.333,55.016,33.291,55.016,33.291
			S69.108,83.345,52.964,83.345z"/>
		<path fill="#BA7300" d="M91.471,44.835c0,0,21.569-7.231,46.793-11.868C138.264,32.967,108.539,33.507,91.471,44.835z"/>
		<path fill="#F0F7F4" d="M98.041,38.745c-4.667-0.222-14.222-11.778-21.906,14.882C68.45,80.288,52.964,83.345,52.964,83.345
			c35.145,0,26.745-38.217,37.189-36.764C90.153,46.581,85.929,44.076,98.041,38.745z"/>
		<circle cx="90.653" cy="40.29" r="0.778"/>
		<path fill="#DEE7A4" d="M91.471,44.835c15.094-8.667,46.793-11.868,46.793-11.868c-11.778-2-35.556,6-40.223,5.778
			c-12.112,5.331-7.888,7.836-7.888,7.836c9.507,1.323,48.11-6.058,48.11-6.058L91.471,44.835z"/>
		<path fill="#ACCACC" d="M52.964,83.345c0,0-10.922,31.847-51.589,8.736c0,0,26.956,20.82,51.589,8.41s22.538-40.786,22.538-40.786
			L52.964,83.345z"/>
		<path fill="#F0F7F4" d="M75.502,59.705c0,0,18.573,20.202,0,44.733c-18.572,24.531-37.041,21.42-37.041,21.42L75.502,59.705z"/>
		<path fill="none" d="M110.635,62.461c0,5.031,4.042,6.611,5.944,6.611V42.517C114.677,42.517,110.635,57.429,110.635,62.461z"/>
		<path fill="#F0F7F4" d="M104.69,82.405c0-10.063,8.084-39.889,11.889-39.889l0,0c-7.609,0-23.777,26.317-23.777,46.445
			c0,20.127,16.168,26.444,23.777,26.444V95.627C112.774,95.627,104.69,92.469,104.69,82.405z"/>
		<path fill="#F08C9E" d="M104.69,82.405c0,10.063,8.084,13.222,11.889,13.222V69.072c-1.902,0-5.944-1.58-5.944-6.611
			c0-5.032,4.042-19.944,5.944-19.944v0C112.774,42.516,104.69,72.342,104.69,82.405z"/>
	</g>
</g>
</svg>
