<?xml version="1.0" encoding="utf-8"?>
<!-- Generator: Adobe Illustrator 16.0.0, SVG Export Plug-In . SVG Version: 6.00 Build 0)  -->
<!DOCTYPE svg PUBLIC "-//W3C//DTD SVG 1.1//EN" "http://www.w3.org/Graphics/SVG/1.1/DTD/svg11.dtd">
<svg version="1.1" xmlns="http://www.w3.org/2000/svg" xmlns:xlink="http://www.w3.org/1999/xlink" x="0px" y="0px"
	 width="141.732px" height="141.732px" viewBox="0 0 141.732 141.732" enable-background="new 0 0 141.732 141.732"
	 xml:space="preserve">
<g id="colors">
	<rect x="155.905" y="-14.173" fill="#529599" width="28.346" height="170.08"/>
	<rect x="186.943" y="-14.173" fill="#ACCACC" width="28.346" height="170.08"/>
	<rect x="217.981" y="-14.173" fill="#F0F7F4" width="28.346" height="170.08"/>
	<rect x="249.02" y="-14.173" fill="#F9CDCF" width="28.346" height="170.08"/>
	<rect x="280.058" y="-14.173" fill="#F08C9E" width="28.346" height="170.08"/>
</g>
<g id="circle">
	<circle fill="#529599" cx="70.866" cy="70.866" r="70.866"/>
</g>
<g id="stork1" display="none">
	<g display="inline">
		<path fill="#F0F7F4" d="M60.748,88.509c-33.642,0-24.358-42.698-24.358-42.698c33.75,34.75,41.262,24.968,41.262,24.968
			S72.856,88.509,60.748,88.509z"/>
		<path fill="#F9CDCF" d="M77.651,70.779c0,0-18.261,21.781-41.262-24.968L77.651,70.779z"/>
		<path fill="#BA7300" d="M89.628,59.627c0,0,16.177-5.424,35.094-8.901C124.722,50.726,102.429,51.13,89.628,59.627z"/>
		<path fill="#F0F7F4" d="M94.556,55.059c-3.5-0.167-10.666-8.833-16.43,11.162c-5.764,19.995-17.378,22.288-17.378,22.288
			c26.358,0,20.059-28.663,27.892-27.573C88.64,60.936,85.472,59.057,94.556,55.059z"/>
		<circle cx="89.015" cy="56.217" r="0.583"/>
		<path fill="#DEE7A4" d="M89.628,59.627c11.32-6.5,35.094-8.901,35.094-8.901c-8.833-1.5-26.666,4.5-30.166,4.333
			c-9.084,3.998-5.916,5.877-5.916,5.877c7.131,0.992,36.082-4.543,36.082-4.543L89.628,59.627z"/>
		<path fill="#F0F7F4" d="M77.651,70.779c0,0-4.637,22.656-47.762,24.906C-13.235,97.936,64.689,83.741,77.651,70.779z"/>
	</g>
</g>
<g id="stork2" display="none">
	<g display="inline">
		<path fill="#ACCACC" d="M140.357,88.961c0-20.128-16.169-46.445-23.778-46.445l0,0c3.805,0,11.89,29.826,11.89,39.889
			s-8.085,13.222-11.89,13.222v19.778C124.188,115.405,140.357,109.088,140.357,88.961z"/>
		<path fill="#F9CDCF" d="M122.523,62.461c0,5.031-4.042,6.611-5.944,6.611v26.555c3.805,0,11.89-3.158,11.89-13.222
			s-8.085-39.889-11.89-39.889v0C118.481,42.517,122.523,57.429,122.523,62.461z"/>
		<path fill="#ACCACC" d="M75.502,59.705L50.986,15.748c0,0-25.167,26.667,0,49.667C76.153,88.414,75.502,59.705,75.502,59.705z"/>
		<path fill="#F0F7F4" d="M52.964,83.345c-44.856,0-32.478-56.93-32.478-56.93c45,46.333,55.016,33.291,55.016,33.291
			S69.108,83.345,52.964,83.345z"/>
		<path fill="#BA7300" d="M91.471,44.835c0,0,21.569-7.231,46.793-11.868C138.264,32.967,108.539,33.507,91.471,44.835z"/>
		<path fill="#F0F7F4" d="M98.041,38.745c-4.667-0.222-14.222-11.778-21.906,14.882C68.45,80.288,52.964,83.345,52.964,83.345
			c35.145,0,26.745-38.217,37.189-36.764C90.153,46.581,85.929,44.076,98.041,38.745z"/>
		<circle cx="90.653" cy="40.29" r="0.778"/>
		<path fill="#DEE7A4" d="M91.471,44.835c15.094-8.667,46.793-11.868,46.793-11.868c-11.778-2-35.556,6-40.223,5.778
			c-12.112,5.331-7.888,7.836-7.888,7.836c9.507,1.323,48.11-6.058,48.11-6.058L91.471,44.835z"/>
		<path fill="#ACCACC" d="M52.964,83.345c0,0-10.922,31.847-51.589,8.736c0,0,26.956,20.82,51.589,8.41s22.538-40.786,22.538-40.786
			L52.964,83.345z"/>
		<path fill="#F0F7F4" d="M75.502,59.705c0,0,18.573,20.202,0,44.733c-18.572,24.531-37.041,21.42-37.041,21.42L75.502,59.705z"/>
		<path fill="none" d="M110.635,62.461c0,5.031,4.042,6.611,5.944,6.611V42.517C114.677,42.517,110.635,57.429,110.635,62.461z"/>
		<path fill="#F0F7F4" d="M104.69,82.405c0-10.063,8.084-39.889,11.889-39.889l0,0c-7.609,0-23.777,26.317-23.777,46.445
			c0,20.127,16.168,26.444,23.777,26.444V95.627C112.774,95.627,104.69,92.469,104.69,82.405z"/>
		<path fill="#F08C9E" d="M104.69,82.405c0,10.063,8.084,13.222,11.889,13.222V69.072c-1.902,0-5.944-1.58-5.944-6.611
			c0-5.032,4.042-19.944,5.944-19.944v0C112.774,42.516,104.69,72.342,104.69,82.405z"/>
	</g>
</g>
<g id="stork3" display="none">
	<path display="inline" fill="#FFF1C6" d="M133.639,67.063c0-22.453-12.247-27.846-17.729-29.137
		c-0.189,1.227-1.223,2.172-2.487,2.227c4.956,2.846,5.843,19.17,6.003,24.93c4.06,1.474,8.41,1.889,11.213,1.986L133.639,67.063z"
		/>
	<path display="inline" fill="#FBCDA9" d="M133.639,67.063c0-16.168-20.333,0.034-20.333-29.541
		C96.925,69.295,133.639,67.063,133.639,67.063z"/>
	<path display="inline" fill="#BA7300" d="M93.979,41.951c0,0,18.624-6.247,40.407-10.249
		C134.386,31.702,108.719,32.168,93.979,41.951z"/>
	<path display="inline" fill="#FFF1C6" d="M113.306,34.886c-1.457,0-2.638,1.181-2.638,2.636c0,1.456,1.181,2.637,2.638,2.637
		c0.039,0,0.078-0.004,0.116-0.006c1.265-0.055,2.298-1,2.487-2.227c0.02-0.132,0.032-0.265,0.032-0.404
		C115.941,36.066,114.762,34.886,113.306,34.886z"/>
	<path display="inline" fill="#FFFFFF" d="M99.652,36.692C95.621,36.5,87.37,26.521,80.734,49.543
		c-6.636,23.023-20.009,25.663-20.009,25.663c30.349,0,23.094-33.003,32.115-31.747C92.841,43.459,89.19,41.295,99.652,36.692z"/>
	<path display="inline" fill="none" stroke="#FFFFFF" stroke-width="0.25" stroke-miterlimit="10" d="M60.726,86.899
		c0,7.915-6.404,14.318-14.318,14.318"/>
	<path display="inline" fill="none" stroke="#FFFFFF" stroke-width="0.25" stroke-miterlimit="10" d="M60.726,86.899
		c-5.596,5.598-14.652,5.598-20.249,0"/>
	<circle display="inline" cx="93.272" cy="38.025" r="0.67"/>
	<path display="inline" fill="#DEE7A4" d="M93.979,41.951c13.034-7.484,40.407-10.249,40.407-10.249
		c-10.171-1.727-30.704,5.181-34.733,4.99c-10.462,4.603-6.812,6.767-6.812,6.767c8.21,1.142,41.545-5.232,41.545-5.232
		L93.979,41.951z"/>
	<path display="inline" fill="none" d="M133.639,67.063l-3.001,0.007C132.468,67.134,133.639,67.063,133.639,67.063z"/>
	<ellipse display="inline" fill="#FFFFFF" cx="122.49" cy="67.845" rx="6.692" ry="9.776"/>
	<circle display="inline" fill="#FFFFFF" cx="122.489" cy="54.792" r="5.086"/>
	<circle display="inline" cx="120.695" cy="54.12" r="0.67"/>
	<circle display="inline" cx="124.202" cy="54.12" r="0.671"/>
	<path display="inline" fill="none" stroke="#FBCDA9" stroke-linecap="round" stroke-miterlimit="10" d="M123.71,57.564
		c-0.677,0.674-1.767,0.674-2.442,0"/>
	<path display="inline" fill="#FFF17D" d="M117.402,54.792c0,0-2.1-5.503,3.293-9.03c5.393-3.527-0.513,3.527,3.015,1.871
		c3.529-1.655,4.775-1.366,3.865,0.216c-0.912,1.583,1.57,1.873,3.063,1.224c0,0-3.063,2.229-3.063,5.72l-2.702-3.55
		c0,0-1.227-1.535-2.383-1.535c-1.109,0-2.466,1.535-2.466,1.535L117.402,54.792z"/>
	<circle display="inline" fill="#FDDEC9" cx="119.609" cy="62.756" r="0.168"/>
	<circle display="inline" fill="#FDDEC9" cx="125.367" cy="62.756" r="0.168"/>
	<ellipse display="inline" fill="#FFFFFF" cx="128.246" cy="60.408" rx="1.046" ry="2.339"/>
	<ellipse display="inline" fill="#FFFFFF" cx="116.731" cy="60.408" rx="1.047" ry="2.339"/>
	<path display="inline" fill="none" d="M54.067,63.267l-0.223-0.009C53.939,63.292,54.014,63.295,54.067,63.267z"/>
	<path display="inline" fill="#F6F6F6" d="M60.726,63.512L40.477,38.025C40.477,38.025,58.488,63.512,60.726,63.512z"/>
	<path display="inline" fill="#F6F6F6" d="M53.844,63.258l0.223,0.009c1.509-0.79-13.59-25.242-13.59-25.242l3.152,18.339
		c4.235,2.921,8.14,5.59,9.938,6.753C53.675,63.188,53.765,63.231,53.844,63.258z"/>
	<path display="inline" fill="#FFFFFF" d="M54.067,63.267l6.659,0.245c-2.238,0-20.249-25.486-20.249-25.486
		S55.576,62.477,54.067,63.267z"/>
	<path display="inline" fill="#FFFFFF" d="M60.726,63.512l-6.659-0.245c-0.053,0.028-0.128,0.024-0.223-0.009
		c-0.079-0.027-0.168-0.071-0.278-0.141c-1.797-1.163-5.702-3.832-9.938-6.753C36.254,51.28,27.88,45.431,27.88,45.431
		s18.513,19.617,16.875,20.734C42.188,67.919,7.347,41.951,7.347,41.951v18.343L52.13,75.206L7.347,64.136
		c0,0,11.708,13.485,33.13,13.485c21.423,0,20.249,9.278,20.249,9.278c15.814,0,21.438-12.986,21.438-19.444
		C82.164,60.996,76.54,63.512,60.726,63.512z"/>
	<path display="inline" fill="#FFF1C6" d="M132.132,78.725c1.47-2.957,2.129-6.838,1.507-11.662c0,0-1.171,0.071-3.001,0.007
		c-2.803-0.098-7.153-0.513-11.213-1.986c-8.131-2.953-15.094-10.152-6.119-27.561c0,0-7.551,5.832-8.213,25.545
		C105.804,65.185,114.756,90.581,132.132,78.725z"/>
	<path display="inline" fill="#FDDEC9" d="M105.073,68.069c0.466,19.173,20.9,23.05,27.059,10.655
		c-17.376,11.856-26.328-13.54-27.039-15.657C105.042,64.645,105.03,66.311,105.073,68.069z"/>
	<path display="inline" fill="none" stroke="#FFFFFF" stroke-width="0.25" stroke-miterlimit="10" d="M40.477,86.899
		c0,5.025-4.066,9.093-9.092,9.093"/>
	<path display="inline" fill="none" stroke="#FFFFFF" stroke-width="0.25" stroke-miterlimit="10" d="M40.477,86.899
		c-3.553,3.555-9.304,3.555-12.857,0"/>
	<path display="inline" fill="none" stroke="#FFFFFF" stroke-width="0.25" stroke-miterlimit="10" d="M40.477,86.899
		c-5.025,0-9.092-4.065-9.092-9.092"/>
	<path display="inline" fill="none" stroke="#FFFFFF" stroke-width="0.25" stroke-miterlimit="10" d="M46.407,101.216
		c0,5.026-4.066,9.093-9.091,9.093"/>
	<path display="inline" fill="none" stroke="#FFFFFF" stroke-width="0.25" stroke-miterlimit="10" d="M46.407,101.216
		c-3.553,3.555-9.304,3.555-12.857,0"/>
	<path display="inline" fill="none" stroke="#FFFFFF" stroke-width="0.25" stroke-miterlimit="10" d="M46.407,101.216
		c-5.026,0-9.091-4.065-9.091-9.091"/>
</g>
<g id="stork4">
	<g>
		<path fill="#F0F7F4" d="M46.547,90.813c-48.06,0-34.797-60.997-34.797-60.997c48.214,49.642,58.945,35.668,58.945,35.668
			S63.845,90.813,46.547,90.813z"/>
		<path fill="#F0F7F4" d="M71.53,100.469C37.547,134.452,3.793,81.943,3.793,81.943c69.196,1.011,66.902-16.459,66.902-16.459
			S83.761,88.238,71.53,100.469z"/>
		<path fill="#BA7300" d="M87.805,49.553c0,0,23.11-7.748,50.135-12.716C137.939,36.837,106.092,37.415,87.805,49.553z"/>
		<path fill="#F0F7F4" d="M94.844,43.027c-5-0.238-15.237-12.619-23.471,15.945c-8.233,28.564-24.825,31.84-24.825,31.84
			c37.655,0,28.655-40.947,39.845-39.39C86.393,51.423,81.867,48.739,94.844,43.027z"/>
		<circle cx="86.928" cy="44.682" r="0.833"/>
		<path fill="#DEE7A4" d="M87.805,49.553c16.172-9.286,50.135-12.716,50.135-12.716c-12.619-2.143-38.096,6.429-43.096,6.19
			c-12.977,5.712-8.451,8.396-8.451,8.396c10.187,1.418,51.547-6.491,51.547-6.491L87.805,49.553z"/>
	</g>
</g>
<g id="egg" display="none">
	<path display="inline" fill="#ACCACC" d="M115.619,76.353c-1.041,2.465-2.118,5.014-6.254,5.014s-5.213-2.549-6.254-5.014
		c-1.083-2.564-2.106-4.986-6.579-4.986s-5.496,2.422-6.579,4.986c-1.041,2.465-2.118,5.014-6.254,5.014s-5.213-2.549-6.254-5.014
		c-1.083-2.564-2.106-4.986-6.579-4.986s-5.496,2.422-6.579,4.986c-1.041,2.465-2.118,5.014-6.254,5.014s-5.213-2.549-6.254-5.014
		c-1.083-2.564-2.106-4.986-6.579-4.986s-5.496,2.422-6.579,4.986c-1.041,2.465-2.118,5.014-6.254,5.014s-5.213-2.549-6.254-5.014
		c-1.082-2.563-2.105-4.982-6.569-4.986c0.199,38.326,23.097,69.313,51.323,69.313c28.228,0,51.125-30.987,51.324-69.313
		C117.725,71.369,116.701,73.789,115.619,76.353z"/>
	<path display="inline" fill="#F0F7F4" d="M27.034,75.963c0.998,2.363,1.86,4.403,5.333,4.403s4.335-2.04,5.333-4.403
		c1.108-2.623,2.364-5.597,7.5-5.597s6.392,2.974,7.5,5.597c0.998,2.363,1.86,4.403,5.333,4.403s4.335-2.04,5.333-4.403
		c1.108-2.623,2.364-5.597,7.5-5.597s6.392,2.974,7.5,5.597c0.998,2.363,1.86,4.403,5.333,4.403s4.335-2.04,5.333-4.403
		c1.108-2.623,2.364-5.597,7.5-5.597s6.392,2.974,7.5,5.597c0.998,2.363,1.86,4.403,5.333,4.403s4.335-2.04,5.333-4.403
		c1.108-2.622,2.363-5.594,7.493-5.597C121.994,32.041,99.096,1.052,70.867,1.052c-28.228,0-51.126,30.989-51.324,69.314
		C24.671,70.37,25.927,73.342,27.034,75.963z"/>
</g>
<g id="stethoscope" display="none">
	<g display="inline">
		<path fill="#D9EFFD" d="M80.941,89.432c-7.371,0-13.346,1.306-13.346,2.916h26.69C94.286,90.737,88.312,89.432,80.941,89.432z"/>
		<ellipse fill="#FFFFFF" cx="80.941" cy="92.348" rx="13.346" ry="2.917"/>
		<path fill="#F9CDCF" d="M98.907,99.562l-4.621-7.214c0,1.611-5.975,2.917-13.345,2.917c-7.371,0-13.346-1.306-13.346-2.917
			l-4.62,7.214l-0.717,1.12c0,2.256,8.364,4.084,18.683,4.084c10.319,0,18.684-1.828,18.684-4.084L98.907,99.562z"/>
		<path fill="#F9CDCF" d="M80.941,89.432c-7.371,0-13.346,1.306-13.346,2.916h26.69C94.286,90.737,88.312,89.432,80.941,89.432z"/>
		<path fill="#FFFFFF" d="M43.221,66.376h-1.25v-0.048c-14.47-1.119-25.208-21.438-25.208-34.743c0-0.46,0.374-0.833,0.833-0.833
			c0.459,0,0.833,0.373,0.833,0.833c0,14.369,11.305,32.536,24.167,33.111c12.862-0.575,24.167-18.742,24.167-33.111
			c0-0.46,0.373-0.833,0.833-0.833s0.833,0.373,0.833,0.833c0,13.306-10.738,33.625-25.208,34.743V66.376z"/>
		<path fill="#FFFFFF" d="M42.596,83.042c-14.652,0-25.833-36.535-25.833-51.458c0-0.46,0.374-0.833,0.833-0.833
			c0.459,0,0.833,0.373,0.833,0.833c0,14.035,10.716,49.792,24.167,49.792c13.451,0,24.167-35.756,24.167-49.792
			c0-0.46,0.373-0.833,0.833-0.833s0.833,0.373,0.833,0.833C68.429,46.507,57.248,83.042,42.596,83.042z"/>
		<ellipse fill="#FFFFFF" cx="80.941" cy="90.89" rx="5.821" ry="1.458"/>
		<path fill="#FFFFFF" d="M80.941,113.459c-19.049,0-31.58-4.257-37.246-12.65c-5.878-8.71-2.039-18.499-1.873-18.911
			c0.172-0.427,0.654-0.632,1.084-0.462c0.426,0.172,0.633,0.657,0.462,1.084c-0.038,0.093-3.67,9.408,1.718,17.371
			c5.343,7.897,17.406,11.901,35.854,11.901c16.942,0,26.942-4.549,32.348-8.366c6.364-4.495,10.015-10.511,10.015-16.506
			c0-6.907-5.244-13.878-16.958-13.878c-10.384,0-17.644,2.336-21.578,6.941c-3.733,4.37-3.011,9.269-3.004,9.317
			c0.072,0.455-0.238,0.882-0.692,0.953c-0.456,0.075-0.882-0.238-0.953-0.692c-0.036-0.231-0.846-5.714,3.382-10.66
			c4.267-4.994,11.953-7.526,22.846-7.526c10.966,0,18.625,6.393,18.625,15.544c0,6.544-3.908,13.056-10.72,17.867
			C106.216,110.461,94.697,113.459,80.941,113.459z"/>
		<path fill="#FFFFFF" d="M61.002,31.584c0,6.806,1.475,1.007,3.296,1.007v-2.014C62.478,30.578,61.002,24.779,61.002,31.584z"/>
		<path fill="#F9CDCF" d="M67.596,31.584c0-0.556-1.476-1.007-3.297-1.007v2.014C66.12,32.591,67.596,32.14,67.596,31.584z"/>
		<path fill="#FFFFFF" d="M24.198,31.584c0,6.806-1.476,1.007-3.297,1.007v-2.014C22.722,30.578,24.198,24.779,24.198,31.584z"/>
		<path fill="#F9CDCF" d="M17.604,31.584c0-0.556,1.477-1.007,3.297-1.007v2.014C19.081,32.591,17.604,32.14,17.604,31.584z"/>
	</g>
</g>
</svg>
