<?xml version="1.0" encoding="UTF-8" standalone="no"?>
<svg
   xmlns:dc="http://purl.org/dc/elements/1.1/"
   xmlns:cc="http://creativecommons.org/ns#"
   xmlns:rdf="http://www.w3.org/1999/02/22-rdf-syntax-ns#"
   xmlns:svg="http://www.w3.org/2000/svg"
   xmlns="http://www.w3.org/2000/svg"
   xmlns:sodipodi="http://sodipodi.sourceforge.net/DTD/sodipodi-0.dtd"
   xmlns:inkscape="http://www.inkscape.org/namespaces/inkscape"
   version="1.1"
   x="0px"
   y="0px"
   viewBox="0 0 100 125"
   id="svg2"
   inkscape:version="0.91 r13725"
   sodipodi:docname="accessible.svg">
  <metadata
     id="metadata16">
    <rdf:RDF>
      <cc:Work
         rdf:about="">
        <dc:format>image/svg+xml</dc:format>
        <dc:type
           rdf:resource="http://purl.org/dc/dcmitype/StillImage" />
      </cc:Work>
    </rdf:RDF>
  </metadata>
  <defs
     id="defs14" />
  <sodipodi:namedview
     pagecolor="#ffffff"
     bordercolor="#666666"
     borderopacity="1"
     objecttolerance="10"
     gridtolerance="10"
     guidetolerance="10"
     inkscape:pageopacity="0"
     inkscape:pageshadow="2"
     inkscape:window-width="1440"
     inkscape:window-height="832"
     id="namedview12"
     showgrid="false"
     inkscape:zoom="1.888"
     inkscape:cx="-27.330509"
     inkscape:cy="62.5"
     inkscape:window-x="0"
     inkscape:window-y="0"
     inkscape:window-maximized="0"
     inkscape:current-layer="g4" />
  <g
     transform="translate(-2.1186441,-940.82828)"
     id="g4">
    <path
       sodipodi:type="inkscape:offset"
       inkscape:radius="-1.0380584"
       inkscape:original="M 38 5 C 31.408117 5 26 10.40812 26 17 C 26 22.789051 30.17545 27.648149 35.65625 28.75 L 44.09375 58.75 L 44.125 58.8125 C 44.602226 60.5576 45.371853 62.09155 46.5625 63.21875 C 47.768978 64.36085 49.428888 65 51 65 L 69.03125 65 C 69.865935 65 70.079256 65.08595 70.25 65.21875 C 70.420744 65.35125 70.76531 65.7647 71.15625 66.9375 A 3.0003 3.0003 0 0 0 71.15625 66.96875 L 80.15625 92.96875 A 3.0093118 3.0093118 0 1 0 85.84375 91 L 76.84375 65.03125 C 76.84065 65.02125 76.84685 65.009 76.84375 65 C 76.235001 63.1845 75.338826 61.6118 73.90625 60.5 C 72.46632 59.3825 70.673413 59 69.03125 59 L 51 59 C 50.829732 59 50.859432 59.01 50.6875 58.84375 C 50.515568 58.68095 50.175659 58.22415 49.90625 57.21875 A 3.0003 3.0003 0 0 0 49.875 57.1875 L 45.3125 41 L 79 41 A 3.0003 3.0003 0 1 0 79 35 L 43.65625 35 L 41.78125 28.375 C 46.538628 26.778345 50 22.271967 50 17 C 50 10.40812 44.591883 5 38 5 z M 38 11 C 41.349242 11 44 13.65076 44 17 C 44 20.34924 41.349242 23 38 23 C 34.650758 23 32 20.34924 32 17 C 32 13.65076 34.650758 11 38 11 z M 34.0625 43.40625 A 3.0003001 3.0003001 0 0 0 33.25 43.53125 C 22.056434 46.52244 14 56.9784 14 69 C 14 83.3238 25.676131 95 40 95 C 53.566566 95 64.860039 84.59375 66 71.28125 A 3.0136328 3.0136328 0 1 0 60 70.75 C 59.123929 80.9808 50.498783 89 40 89 C 28.918771 89 20 80.0812 20 69 C 20 59.6766 26.308625 51.5849 34.8125 49.3125 A 3.0003001 3.0003001 0 0 0 34.0625 43.40625 z "
       style="color:#000000;font-style:normal;font-variant:normal;font-weight:normal;font-stretch:normal;font-size:medium;line-height:normal;font-family:Sans;-inkscape-font-specification:Sans;text-indent:0;text-align:start;text-decoration:none;text-decoration-line:none;letter-spacing:normal;word-spacing:normal;text-transform:none;direction:ltr;block-progression:tb;writing-mode:lr-tb;baseline-shift:baseline;text-anchor:start;display:inline;overflow:visible;visibility:visible;opacity:1;fill:#000000;fill-opacity:1;stroke:none;stroke-width:5.86956549;marker:none;enable-background:accumulate"
       id="path4148"
       d="m 38,6.0371094 c -6.02412,0 -10.962891,4.9387736 -10.962891,10.9628906 0,5.289906 3.821682,9.72672 8.824219,10.732422 a 1.0381622,1.0381622 0 0 1 0.794922,0.736328 l 8.410156,29.904297 -0.01367,-0.02539 a 1.0381622,1.0381622 0 0 1 0.07422,0.191406 c 0.443148,1.620484 1.137047,2.968286 2.148438,3.925782 1.001686,0.948236 2.435028,1.498047 3.724609,1.498047 l 18.03125,0 c 0.452973,0 0.771279,0.01758 1.074219,0.08203 0.302939,0.06446 0.616175,0.225125 0.78125,0.353516 0.462651,0.359024 0.828245,0.933975 1.253906,2.210937 a 1.0381622,1.0381622 0 0 1 0.03125,0.123047 l 8.964844,25.896484 a 1.0381622,1.0381622 0 0 1 0.002,0.002 c 0.335847,0.977599 1.531,1.560784 2.507812,1.222657 0.976813,-0.338128 1.557203,-1.535698 1.216797,-2.511719 a 1.0381622,1.0381622 0 0 1 0,-0.002 l -9,-25.96875 a 1.0381622,1.0381622 0 0 1 -0.01172,-0.0332 c -0.0059,-0.01914 0.0028,-0.01133 -0.002,-0.0293 C 75.281565,63.623975 74.48744,62.265513 73.269531,61.320312 72.068679,60.388355 70.51222,60.037109 69.03125,60.037109 l -18.03125,0 c -0.03241,0 -0.0658,0.0052 -0.167969,-0.002 -0.102167,-0.0071 -0.305349,-0.04642 -0.464843,-0.128906 -0.31213,-0.161418 -0.324569,-0.239956 -0.392579,-0.308594 l -0.002,-0.002 C 49.663463,59.302488 49.371763,58.655106 49.101562,57.878906 A 1.0381622,1.0381622 0 0 1 48.875,57.46875 l -4.5625,-16.1875 a 1.0381622,1.0381622 0 0 1 1,-1.318359 l 33.6875,0 a 1.0381622,1.0381622 0 0 1 0.01563,0 C 80.052198,39.97755 81.003906,39.036677 81.003906,38 c 0,-1.036677 -0.951708,-1.97755 -1.988281,-1.962891 a 1.0381622,1.0381622 0 0 1 -0.01563,0 l -35.34375,0 a 1.0381622,1.0381622 0 0 1 -0.998047,-0.753906 l -1.875,-6.625 a 1.0381622,1.0381622 0 0 1 0.667969,-1.267578 C 45.79399,25.933103 48.962891,21.817601 48.962891,17 48.962891,10.975883 44.02412,6.0371094 38,6.0371094 Z m 0,3.9257812 c 3.896957,0 7.037109,3.1401544 7.037109,7.0371094 0,3.896955 -3.140152,7.037109 -7.037109,7.037109 -3.896957,0 -7.037109,-3.140154 -7.037109,-7.037109 0,-3.896955 3.140152,-7.0371094 7.037109,-7.0371094 z M 34.068359,44.445312 c -0.176414,0.0036 -0.352405,0.02961 -0.521484,0.08008 a 1.0381622,1.0381622 0 0 1 -0.0293,0.0078 C 22.786893,47.4007 15.037109,57.442179 15.037109,69 c 0,13.75968 11.203142,24.962891 24.962891,24.962891 13.035737,0 23.870684,-9.991897 24.964844,-22.769532 a 1.0381622,1.0381622 0 0 1 0.0059,-0.04102 c 0.130606,-1.049677 -0.73346,-2.117646 -1.787109,-2.210938 -1.053649,-0.09329 -2.090624,0.806987 -2.146485,1.863282 a 1.0381622,1.0381622 0 0 1 -0.002,0.0332 C 60.113605,81.599817 51.027377,90.037109 40,90.037109 28.361779,90.037109 18.962891,80.638192 18.962891,69 c 0,-9.791664 6.608085,-18.291441 15.582031,-20.689453 a 1.0381622,1.0381622 0 0 1 0.0098,-0.0039 c 0.915842,-0.235264 1.576148,-1.20844 1.457031,-2.146485 -0.118929,-0.936565 -0.999469,-1.713496 -1.94336,-1.714844 z"
       transform="matrix(0.86365373,0,0,0.86365373,9.465508,959.17949)" />
  </g>
</svg>
