<?xml version="1.0" encoding="UTF-8" standalone="no"?>
<svg
   xmlns:dc="http://purl.org/dc/elements/1.1/"
   xmlns:cc="http://creativecommons.org/ns#"
   xmlns:rdf="http://www.w3.org/1999/02/22-rdf-syntax-ns#"
   xmlns:svg="http://www.w3.org/2000/svg"
   xmlns="http://www.w3.org/2000/svg"
   xmlns:sodipodi="http://sodipodi.sourceforge.net/DTD/sodipodi-0.dtd"
   xmlns:inkscape="http://www.inkscape.org/namespaces/inkscape"
   version="1.1"
   x="0px"
   y="0px"
   viewBox="0 0 100 125"
   enable-background="new 0 0 100 100"
   xml:space="preserve"
   id="svg2"
   inkscape:version="0.91 r13725"
   sodipodi:docname="atomic.svg"
   width="100"
   height="125"><metadata
     id="metadata24"><rdf:RDF><cc:Work
         rdf:about=""><dc:format>image/svg+xml</dc:format><dc:type
           rdf:resource="http://purl.org/dc/dcmitype/StillImage" /><dc:title></dc:title></cc:Work></rdf:RDF></metadata><defs
     id="defs22" /><sodipodi:namedview
     pagecolor="#ffffff"
     bordercolor="#666666"
     borderopacity="1"
     objecttolerance="10"
     gridtolerance="10"
     guidetolerance="10"
     inkscape:pageopacity="0"
     inkscape:pageshadow="2"
     inkscape:window-width="891"
     inkscape:window-height="736"
     id="namedview20"
     showgrid="false"
     inkscape:zoom="2.36"
     inkscape:cx="91.525424"
     inkscape:cy="100.84746"
     inkscape:window-x="0"
     inkscape:window-y="0"
     inkscape:window-maximized="0"
     inkscape:current-layer="svg2" /><g
     id="g4"
     transform="translate(-0.84745763,10.169492)"><g
       id="g6"><circle
         cx="50"
         cy="52"
         r="6"
         id="circle8" /><path
         d="M 50,12 C 57.732,12 64,29.908 64,52 64,74.092 57.732,92 50,92 42.268,92 36,74.092 36,52 36,29.908 42.268,12 50,12 M 50,8 C 38.183,8 32,30.135 32,52 32,73.865 38.183,96 50,96 61.817,96 68,73.865 68,52 68,30.135 61.817,8 50,8 l 0,0 z"
         id="path10"
         inkscape:connector-curvature="0" /><path
         d="m 24.385,25.934 c 7.985,0 20.98,5.423 33.828,14.728 17.892,12.96 28.719,28.54 24.182,34.803 -1.278,1.766 -3.644,2.602 -6.779,2.602 -7.985,0 -20.98,-5.421 -33.828,-14.727 C 23.897,50.38 13.069,34.8 17.606,28.537 c 1.279,-1.766 3.642,-2.603 6.779,-2.603 m 0,-4 c -5.733,0 -8.613,2.314 -10.02,4.257 -2.311,3.19 -3.557,9.167 3.636,19.519 4.817,6.932 12.432,14.344 21.439,20.869 13.189,9.553 27.051,15.487 36.175,15.487 5.733,0 8.613,-2.313 10.019,-4.255 2.312,-3.191 3.558,-9.168 -3.635,-19.52 C 77.183,51.358 69.568,43.947 60.56,37.422 47.369,27.868 33.508,21.934 24.385,21.934 l 0,0 z"
         id="path12"
         inkscape:connector-curvature="0" /><path
         d="m 75.615,25.934 c 3.137,0 5.5,0.837 6.779,2.603 C 86.931,34.8 76.103,50.38 58.212,63.34 45.365,72.645 32.37,78.065 24.385,78.065 c -3.136,0 -5.501,-0.836 -6.779,-2.602 C 13.069,69.2 23.896,53.62 41.788,40.66 54.635,31.356 67.63,25.934 75.615,25.934 m 0,-4 c -9.123,0 -22.984,5.935 -36.175,15.488 -9.009,6.525 -16.623,13.937 -21.439,20.869 -7.192,10.352 -5.946,16.328 -3.635,19.52 1.405,1.941 4.285,4.255 10.019,4.255 9.124,0 22.985,-5.935 36.175,-15.487 C 69.568,60.054 77.182,52.641 81.999,45.71 89.191,35.358 87.945,29.382 85.634,26.19 84.229,24.248 81.349,21.934 75.615,21.934 l 0,0 z"
         id="path14"
         inkscape:connector-curvature="0" /><circle
         cx="82"
         cy="62"
         r="6"
         id="circle16" /><circle
         cx="18"
         cy="42"
         r="6"
         id="circle18" /></g></g></svg>