<svg xmlns:dc="http://purl.org/dc/elements/1.1/" xmlns:cc="http://creativecommons.org/ns#" xmlns:rdf="http://www.w3.org/1999/02/22-rdf-syntax-ns#" xmlns:svg="http://www.w3.org/2000/svg" xmlns="http://www.w3.org/2000/svg" xmlns:sodipodi="http://sodipodi.sourceforge.net/DTD/sodipodi-0.dtd" xmlns:inkscape="http://www.inkscape.org/namespaces/inkscape" version="1.1" x="0px" y="0px" viewBox="0 0 100 125"><g transform="translate(0,-952.36218)"><path style="font-size:medium;font-style:normal;font-variant:normal;font-weight:normal;font-stretch:normal;text-indent:0;text-align:start;text-decoration:none;line-height:normal;letter-spacing:normal;word-spacing:normal;text-transform:none;direction:ltr;block-progression:tb;writing-mode:lr-tb;text-anchor:start;baseline-shift:baseline;opacity:1;color:#000000;fill:#000000;fill-opacity:1;stroke:none;stroke-width:2;marker:none;visibility:visible;display:inline;overflow:visible;enable-background:accumulate;font-family:Sans;-inkscape-font-specification:Sans" d="M 39.875 6.96875 A 1.0001 1.0001 0 0 0 39 8 L 39 18 A 1.0001 1.0001 0 1 0 41 18 L 41 8 A 1.0001 1.0001 0 0 0 39.875 6.96875 z M 26.90625 11.96875 A 1.0001 1.0001 0 0 0 26.15625 13.53125 L 31.15625 21.53125 A 1.0001 1.0001 0 1 0 32.84375 20.46875 L 27.84375 12.46875 A 1.0001 1.0001 0 0 0 26.90625 11.96875 z M 52.9375 11.96875 A 1.0001 1.0001 0 0 0 52.15625 12.46875 L 47.15625 20.46875 A 1.0001 1.0001 0 1 0 48.84375 21.53125 L 53.84375 13.53125 A 1.0001 1.0001 0 0 0 52.9375 11.96875 z M 40 25 C 36.693297 25 34 27.69328 34 31 L 34 47 C 31.808205 47 29.393769 47.72435 27.4375 49.21875 C 25.481231 50.71305 24 53.0567 24 56 L 24 70 C 24 75.9658 27.492303 80.0257 30.78125 83.3125 C 32.425723 84.9559 34.039961 86.41935 35.1875 87.84375 C 36.335039 89.26805 37 90.6 37 92 A 1.0001 1.0001 0 0 0 38 93 L 58 93 A 1.0001 1.0001 0 1 0 58 91 L 38.78125 91 C 38.520932 89.3965 37.816083 87.91695 36.75 86.59375 C 35.460039 84.99255 33.824277 83.4795 32.21875 81.875 C 29.007697 78.6661 26 75.1888 26 70 L 26 56 C 26 53.704 27.059588 52.0083 28.625 50.8125 C 30.190412 49.6167 32.278519 49 34 49 L 34 53 A 1.0001 1.0001 0 1 0 36 53 L 36 31 C 36 28.76668 37.766703 27 40 27 C 42.233297 27 44 28.76668 44 31 L 44 46 A 1.0001 1.0001 0 0 0 46 46 C 46 43.7667 47.766703 42 50 42 C 52.233297 42 54 43.7667 54 46 L 54 52 A 1.0001 1.0001 0 0 0 56 52 C 56 49.7667 57.766705 48 60 48 C 62.233295 48 64 49.7667 64 52 L 64 58 A 1.0001 1.0001 0 0 0 66 58 C 66 55.7667 67.766703 54 70 54 C 72.233297 54 74 55.7667 74 58 L 74 74 C 74 80.76 71.237161 87.25635 63.5625 91.09375 A 1.0001 1.0001 0 1 0 64.4375 92.875 C 72.762839 88.7123 76 81.3278 76 74 L 76 58 C 76 54.6933 73.306703 52 70 52 C 68.452699 52 67.065584 52.62735 66 53.59375 L 66 52 C 66 48.6933 63.306705 46 60 46 C 58.452698 46 57.065583 46.62741 56 47.59375 L 56 46 C 56 42.6933 53.306703 40 50 40 C 48.452699 40 47.065584 40.62741 46 41.59375 L 46 31 C 46 27.69328 43.306703 25 40 25 z " transform="translate(0,952.36218)"/></g><text x="0" y="115" fill="#000000" font-size="5px" font-weight="bold" font-family="'Helvetica Neue', Helvetica, Arial-Unicode, Arial, Sans-serif">Created by throwaway icons</text><text x="0" y="120" fill="#000000" font-size="5px" font-weight="bold" font-family="'Helvetica Neue', Helvetica, Arial-Unicode, Arial, Sans-serif">from the Noun Project</text></svg>