<?xml version="1.0" encoding="UTF-8" standalone="no"?>
<svg
   xmlns:dc="http://purl.org/dc/elements/1.1/"
   xmlns:cc="http://creativecommons.org/ns#"
   xmlns:rdf="http://www.w3.org/1999/02/22-rdf-syntax-ns#"
   xmlns:svg="http://www.w3.org/2000/svg"
   xmlns="http://www.w3.org/2000/svg"
   xmlns:sodipodi="http://sodipodi.sourceforge.net/DTD/sodipodi-0.dtd"
   xmlns:inkscape="http://www.inkscape.org/namespaces/inkscape"
   version="1.1"
   x="0px"
   y="0px"
   viewBox="0 0 100 125"
   enable-background="new 0 0 100 100"
   xml:space="preserve"
   id="svg2"
   inkscape:version="0.91 r13725"
   sodipodi:docname="bible.svg"><metadata
     id="metadata18"><rdf:RDF><cc:Work
         rdf:about=""><dc:format>image/svg+xml</dc:format><dc:type
           rdf:resource="http://purl.org/dc/dcmitype/StillImage" /></cc:Work></rdf:RDF></metadata><defs
     id="defs16" /><sodipodi:namedview
     pagecolor="#ffffff"
     bordercolor="#666666"
     borderopacity="1"
     objecttolerance="10"
     gridtolerance="10"
     guidetolerance="10"
     inkscape:pageopacity="0"
     inkscape:pageshadow="2"
     inkscape:window-width="1177"
     inkscape:window-height="730"
     id="namedview14"
     showgrid="false"
     inkscape:zoom="1.888"
     inkscape:cx="40.730932"
     inkscape:cy="62.5"
     inkscape:window-x="0"
     inkscape:window-y="0"
     inkscape:window-maximized="0"
     inkscape:current-layer="svg2" /><g
     id="g4146"
     transform="translate(-0.52966102,12.182203)"><path
       id="path4"
       d="m 81.472,10.276 -54.478,0 c -1.104,0 -2,0.896 -2,2 0,1.104 0.896,2 2,2 l 54.478,0 c 1.104,0 2,-0.896 2,-2 0,-1.104 -0.896,-2 -2,-2 z"
       inkscape:connector-curvature="0"
       style="fill:#000000" /><path
       id="path6"
       d="m 81.472,16.91 -56.31,0 c -2.555,0 -4.634,-2.079 -4.634,-4.634 0,-2.555 2.079,-4.634 4.634,-4.634 l 56.31,0 c 1.104,0 2,-0.896 2,-2 0,-1.104 -0.896,-2 -2,-2 l -56.31,0 c -4.761,0 -8.634,3.874 -8.634,8.634 0,0.215 0.008,0.429 0.023,0.64 -0.016,0.101 -0.023,0.203 -0.023,0.308 l 0,61.389 c 0,0.129 0.002,0.255 0.006,0.38 -0.004,0.099 -0.006,0.198 -0.006,0.298 0,4.761 3.873,8.634 8.634,8.634 l 10.086,0 0,10.433 c 0,0.757 0.428,1.45 1.105,1.789 0.678,0.337 1.487,0.265 2.095,-0.189 l 5.553,-4.164 5.289,4.139 c 0.358,0.281 0.794,0.425 1.232,0.425 0.298,0 0.598,-0.066 0.876,-0.202 0.688,-0.335 1.124,-1.033 1.124,-1.798 l 0,-10.432 28.949,0 c 1.104,0 2,-0.896 2,-2 l 0,-63.016 c 10e-4,-1.104 -0.895,-2 -1.999,-2 z m -60.944,58.382 0.005,-0.208 c 0.002,-0.047 0.003,-0.095 10e-4,-0.142 -0.003,-0.107 -0.006,-0.217 -0.006,-0.328 l 0,-55.055 c 1.34,0.855 2.93,1.352 4.634,1.352 l 3.14,0 0,59.016 -3.14,0 c -2.555,-0.001 -4.634,-2.08 -4.634,-4.635 z M 48.522,90.254 45.259,87.7 C 44.547,87.143 43.55,87.133 42.826,87.675 l -3.578,2.684 0,-6.433 9.274,0 0,6.328 z m 30.95,-10.328 -47.17,0 0,-59.016 47.17,0 0,59.016 z"
       inkscape:connector-curvature="0"
       style="fill:#000000" /><path
       id="path8"
       d="m 46.478,44.58 7.233,0 0,16.159 c 0,1.104 0.896,2 2,2 1.104,0 2,-0.896 2,-2 l 0,-16.159 7.233,0 c 1.104,0 2,-0.896 2,-2 0,-1.104 -0.896,-2 -2,-2 l -7.233,0 0,-6.647 c 0,-1.104 -0.896,-2 -2,-2 -1.104,0 -2,0.896 -2,2 l 0,6.647 -7.233,0 c -1.104,0 -2,0.896 -2,2 0,1.104 0.895,2 2,2 z"
       inkscape:connector-curvature="0"
       style="fill:#000000" /></g></svg>