<svg xmlns:dc="http://purl.org/dc/elements/1.1/" xmlns:cc="http://creativecommons.org/ns#" xmlns:rdf="http://www.w3.org/1999/02/22-rdf-syntax-ns#" xmlns:svg="http://www.w3.org/2000/svg" xmlns="http://www.w3.org/2000/svg" xmlns:sodipodi="http://sodipodi.sourceforge.net/DTD/sodipodi-0.dtd" xmlns:inkscape="http://www.inkscape.org/namespaces/inkscape" version="1.1" x="0px" y="0px" viewBox="0 0 100 125"><g transform="translate(0,-952.36215)"><path style="font-size:medium;font-style:normal;font-variant:normal;font-weight:normal;font-stretch:normal;text-indent:0;text-align:start;text-decoration:none;line-height:normal;letter-spacing:normal;word-spacing:normal;text-transform:none;direction:ltr;block-progression:tb;writing-mode:lr-tb;text-anchor:start;baseline-shift:baseline;opacity:1;color:#000000;fill:#000000;fill-opacity:1;stroke:none;stroke-width:3.99999976000000010;marker:none;visibility:visible;display:inline;overflow:visible;enable-background:accumulate;font-family:Sans;-inkscape-font-specification:Sans" d="m 33.4375,958.37707 a 2.0001999,1.9991506 0 0 0 -1.59375,1.31182 C 30.282364,963.78702 29,968.97319 29,973.96265 c 0,7.71032 2.683546,13.5434 6.5,18.17796 3.267011,3.96734 7.290374,7.13947 11.25,10.24469 -3.95756,3.1035 -7.98476,6.2481 -11.25,10.2134 -3.816452,4.6343 -6.5,10.4676 -6.5,18.1779 0,4.9894 1.282379,10.1755 2.84375,14.2737 a 2.0025097,2.0014592 0 1 0 3.75,-1.4055 C 34.179427,1039.9327 33,1035.0615 33,1030.7766 c 0,-2.3756 0.287287,-4.4718 0.78125,-6.4028 l 32.4375,0 c 0.493963,1.931 0.78125,4.0272 0.78125,6.4028 0,1.1603 -0.09579,2.3802 -0.25,3.5918 l -26.75,0 a 2.0001999,1.9991506 0 0 0 -0.1875,0 2.0022089,2.0011585 0 1 0 0.1875,3.9979 l 26,0 c -0.445778,1.882 -0.986808,3.6854 -1.59375,5.2785 a 2.0025097,2.0014592 0 1 0 3.75,1.4055 C 69.71762,1040.9521 71,1035.766 71,1030.7766 c 0,-7.7103 -2.683548,-13.5436 -6.5,-18.1779 -3.26524,-3.9653 -7.29244,-7.1099 -11.25,-10.2134 3.959626,-3.10522 7.982989,-6.27735 11.25,-10.24469 3.816454,-4.63456 6.5,-10.46764 6.5,-18.17796 0,-4.98946 -1.282366,-10.17563 -2.84375,-14.27376 a 2.0001999,1.9991506 0 0 0 -2.03125,-1.31182 2.0001999,1.9991506 0 0 0 -1.71875,2.71733 c 0.606936,1.59301 1.147971,3.42771 1.59375,5.30972 l -32,0 c 0.445779,-1.88201 0.986814,-3.71671 1.59375,-5.30972 a 2.0001999,1.9991506 0 0 0 -2.15625,-2.71733 z m -0.1875,12.02494 33.5,0 c 0.154208,1.21161 0.25,2.40034 0.25,3.56064 0,2.37551 -0.287286,4.50312 -0.78125,6.43411 l -32.4375,0 C 33.287286,978.46577 33,976.33816 33,973.96265 c 0,-1.1603 0.09579,-2.34903 0.25,-3.56064 z m 1.96875,13.99266 29.5625,0 c -0.905436,1.89964 -2.044375,3.60015 -3.375,5.21601 -3.075623,3.73493 -7.184965,6.89422 -11.40625,10.21339 -4.221285,-3.31917 -8.330627,-6.47846 -11.40625,-10.21339 -1.330625,-1.61586 -2.469564,-3.31637 -3.375,-5.21601 z M 50,1004.9463 c 4.21787,3.3165 8.332992,6.4503 11.40625,10.1823 1.331532,1.6168 2.469281,3.346 3.375,5.2472 l -29.5625,0 c 0.905719,-1.9012 2.043468,-3.6304 3.375,-5.2472 3.073258,-3.732 7.18838,-6.8658 11.40625,-10.1823 z"/></g><text x="0" y="115" fill="#000000" font-size="5px" font-weight="bold" font-family="'Helvetica Neue', Helvetica, Arial-Unicode, Arial, Sans-serif">Created by Iconsparty</text><text x="0" y="120" fill="#000000" font-size="5px" font-weight="bold" font-family="'Helvetica Neue', Helvetica, Arial-Unicode, Arial, Sans-serif">from the Noun Project</text></svg>