<?xml version="1.0" encoding="UTF-8" standalone="no"?>
<svg
   xmlns:dc="http://purl.org/dc/elements/1.1/"
   xmlns:cc="http://creativecommons.org/ns#"
   xmlns:rdf="http://www.w3.org/1999/02/22-rdf-syntax-ns#"
   xmlns:svg="http://www.w3.org/2000/svg"
   xmlns="http://www.w3.org/2000/svg"
   xmlns:sodipodi="http://sodipodi.sourceforge.net/DTD/sodipodi-0.dtd"
   xmlns:inkscape="http://www.inkscape.org/namespaces/inkscape"
   viewBox="0 0 42 75"
   version="1.1"
   x="0px"
   y="0px"
   id="svg2"
   inkscape:version="0.91 r13725"
   sodipodi:docname="etat.svg">
  <metadata
     id="metadata44">
    <rdf:RDF>
      <cc:Work
         rdf:about="">
        <dc:format>image/svg+xml</dc:format>
        <dc:type
           rdf:resource="http://purl.org/dc/dcmitype/StillImage" />
      </cc:Work>
    </rdf:RDF>
  </metadata>
  <defs
     id="defs42" />
  <sodipodi:namedview
     pagecolor="#ffffff"
     bordercolor="#666666"
     borderopacity="1"
     objecttolerance="10"
     gridtolerance="10"
     guidetolerance="10"
     inkscape:pageopacity="0"
     inkscape:pageshadow="2"
     inkscape:window-width="640"
     inkscape:window-height="480"
     id="namedview40"
     showgrid="false"
     inkscape:zoom="3.1466667"
     inkscape:cx="15.438559"
     inkscape:cy="34.045205"
     inkscape:window-x="0"
     inkscape:window-y="0"
     inkscape:window-maximized="0"
     inkscape:current-layer="svg2" />
  <title
     id="title4">36 -Battle Standard- (medieval, antique, old)</title>
  <desc
     id="desc6">Created with Sketch.</desc>
  <g
     id="g8"
     transform="matrix(0.77300242,0,0,0.77300242,4.7669492,13.48377)"
     style="fill:none;fill-rule:evenodd;stroke:none;stroke-width:1">
    <g
       transform="translate(-728,-711)"
       id="g10"
       style="stroke:#000000;stroke-width:2">
      <g
         transform="translate(729,712)"
         id="g12">
        <polygon
           points="9.494,8.0005 4,8.0005 4,48.0005 20,40.0005 36,48.0005 36,8.0005 30.506,8.0005 "
           id="polygon14"
           style="stroke-linejoin:round" />
        <path
           d="m 18,26.0005 c 0,4.812 -2.5,8 -2.5,8 l 2.5,-0.5 2,2.5 2,-2.5 2.5,0.5 c 0,0 -2.5,-3.188 -2.5,-8 4.813,0 8,2.5 8,2.5 l -0.5,-2.5 2.5,-2 -2.5,-2 0.5,-2.5 c 0,0 -3.187,2.5 -8,2.5 0,-4.813 2.5,-8 2.5,-8 l -2.5,0.5 -2,-2.5 -2,2.5 -2.5,-0.5 c 0,0 2.5,3.187 2.5,8 -4.812,0 -8,-2.5 -8,-2.5 l 0.5,2.5 -2.5,2 2.5,2 -0.5,2.5 c 0,0 3.188,-2.5 8,-2.5 l 0,0 z"
           id="path16"
           inkscape:connector-curvature="0"
           style="stroke-linejoin:round" />
        <path
           d="m 4,57.0005 0,-9"
           id="path18"
           inkscape:connector-curvature="0"
           style="stroke-linecap:round;stroke-linejoin:round" />
        <path
           d="m 8,55.0005 0,-9"
           id="path20"
           inkscape:connector-curvature="0"
           style="stroke-linecap:round;stroke-linejoin:round" />
        <path
           d="m 12,53.0005 0,-9"
           id="path22"
           inkscape:connector-curvature="0"
           style="stroke-linecap:round;stroke-linejoin:round" />
        <path
           d="m 23,4.0005 -6,0 0,-2.735 C 17,0.5665 17.566,5e-4 18.265,5e-4 l 3.47,0 c 0.699,0 1.265,0.566 1.265,1.265 l 0,2.735 0,0 z"
           id="path24"
           inkscape:connector-curvature="0" />
        <path
           d="m 38.735,8.0005 -37.47,0 C 0.566,8.0005 0,7.4345 0,6.7355 l 0,-1.47 c 0,-0.699 0.566,-1.265 1.265,-1.265 l 37.47,0 c 0.699,0 1.265,0.566 1.265,1.265 l 0,1.47 c 0,0.699 -0.566,1.265 -1.265,1.265 l 0,0 z"
           id="path26"
           inkscape:connector-curvature="0" />
        <polygon
           points="17,58.0005 23,58.0005 23,41.5005 20,40.0005 17,41.5005 "
           id="polygon28"
           style="stroke-linejoin:round" />
        <path
           d="m 36,57.0005 0,-9"
           id="path30"
           inkscape:connector-curvature="0"
           style="stroke-linecap:round;stroke-linejoin:round" />
        <path
           d="m 32,55.0005 0,-9"
           id="path32"
           inkscape:connector-curvature="0"
           style="stroke-linecap:round;stroke-linejoin:round" />
        <path
           d="m 28,53.0005 0,-9"
           id="path34"
           inkscape:connector-curvature="0"
           style="stroke-linecap:round;stroke-linejoin:round" />
      </g>
    </g>
  </g>
</svg>
