<?xml version="1.0" encoding="UTF-8" standalone="no"?>
<svg
   xmlns:dc="http://purl.org/dc/elements/1.1/"
   xmlns:cc="http://creativecommons.org/ns#"
   xmlns:rdf="http://www.w3.org/1999/02/22-rdf-syntax-ns#"
   xmlns:svg="http://www.w3.org/2000/svg"
   xmlns="http://www.w3.org/2000/svg"
   xmlns:sodipodi="http://sodipodi.sourceforge.net/DTD/sodipodi-0.dtd"
   xmlns:inkscape="http://www.inkscape.org/namespaces/inkscape"
   version="1.1"
   x="0px"
   y="0px"
   viewBox="0 0 90 112.5"
   enable-background="new 0 0 90 90"
   xml:space="preserve"
   id="svg2"
   inkscape:version="0.91 r13725"
   sodipodi:docname="living.svg"><metadata
     id="metadata20"><rdf:RDF><cc:Work
         rdf:about=""><dc:format>image/svg+xml</dc:format><dc:type
           rdf:resource="http://purl.org/dc/dcmitype/StillImage" /></cc:Work></rdf:RDF></metadata><defs
     id="defs18" /><sodipodi:namedview
     pagecolor="#ffffff"
     bordercolor="#666666"
     borderopacity="1"
     objecttolerance="10"
     gridtolerance="10"
     guidetolerance="10"
     inkscape:pageopacity="0"
     inkscape:pageshadow="2"
     inkscape:window-width="640"
     inkscape:window-height="480"
     id="namedview16"
     showgrid="false"
     inkscape:zoom="2.0977778"
     inkscape:cx="45"
     inkscape:cy="56.25"
     inkscape:window-x="0"
     inkscape:window-y="0"
     inkscape:window-maximized="0"
     inkscape:current-layer="svg2" /><g
     id="g4"
     transform="translate(0,9.5338983)"><path
       d="m 69.676,43.312 -20.021,0 0,-31.756 c 0,-0.829 -0.672,-1.5 -1.5,-1.5 -0.828,0 -1.5,0.671 -1.5,1.5 l 0,31.756 -20.019,0 c -0.829,0 -1.5,0.671 -1.5,1.5 l 0,13.922 c 0,0.828 0.671,1.5 1.5,1.5 l 3.401,0 2.549,24.281 c 0.08,0.764 0.724,1.344 1.492,1.344 l 28.155,0 c 0.768,0 1.412,-0.58 1.492,-1.344 l 2.549,-24.281 3.402,0 c 0.828,0 1.5,-0.672 1.5,-1.5 l 0,-13.922 c 0,-0.829 -0.672,-1.5 -1.5,-1.5 z m -8.794,39.546 -25.454,0 -2.375,-22.625 30.204,0 -2.375,22.625 z m 7.294,-25.625 -3.253,0 -33.535,0 -3.251,0 0,-10.921 40.04,0 0,10.921 z"
       id="path6"
       inkscape:connector-curvature="0" /><path
       d="m 52.858,38.844 c 0.149,0.069 1.52,0.674 3.572,0.674 0,0 0,0 10e-4,0 2.131,0 5.342,-0.67 8.534,-3.862 5.595,-5.595 6.184,-12.637 6.206,-12.934 0.061,-0.811 -0.536,-1.523 -1.345,-1.604 -0.054,-0.005 -0.546,-0.053 -1.352,-0.053 -2.473,0 -8.706,0.481 -13.163,4.938 -5.938,5.938 -3.302,11.859 -3.187,12.108 0.151,0.324 0.411,0.584 0.734,0.733 z m 4.576,-10.72 c 3.371,-3.371 8.109,-3.975 10.48,-4.05 -0.477,2.162 -1.758,6.15 -5.069,9.461 -1.98,1.979 -4.138,2.983 -6.414,2.983 -0.396,0 -0.752,-0.033 -1.063,-0.08 0.96,-1.322 3.071,-3.845 6.467,-5.931 0.471,-0.289 0.618,-0.905 0.329,-1.375 -0.291,-0.471 -0.906,-0.618 -1.376,-0.329 -3.021,1.855 -5.093,4.003 -6.335,5.535 0.047,-1.636 0.654,-3.888 2.981,-6.214 z"
       id="path8"
       inkscape:connector-curvature="0" /><path
       d="m 37.468,31.086 c 0,0 0,0 0,0 2.85,0 4.764,-0.868 4.844,-0.905 0.324,-0.149 0.583,-0.409 0.733,-0.733 0.157,-0.34 3.75,-8.422 -4.435,-16.606 C 30.768,4.999 20.917,4.178 20.501,4.147 19.689,4.081 18.978,4.683 18.897,5.492 c -0.051,0.499 -1.144,12.304 6.808,20.255 4.414,4.413 8.833,5.339 11.763,5.339 z M 36.49,14.962 c 5.039,5.039 4.71,9.874 4.203,12.041 -1.548,-1.031 -5.882,-4.244 -9.362,-9.912 -0.288,-0.471 -0.903,-0.617 -1.375,-0.329 -0.471,0.289 -0.618,0.905 -0.329,1.375 3.155,5.14 6.909,8.341 9.017,9.88 -0.364,0.04 -0.749,0.069 -1.175,0.069 -2.363,0 -5.955,-0.774 -9.642,-4.461 -5.346,-5.346 -5.987,-12.996 -5.997,-16.26 2.905,0.54 9.346,2.283 14.66,7.597 z"
       id="path10"
       inkscape:connector-curvature="0" /></g></svg>