<?xml version="1.0" encoding="UTF-8" standalone="no"?>
<svg
   xmlns:dc="http://purl.org/dc/elements/1.1/"
   xmlns:cc="http://creativecommons.org/ns#"
   xmlns:rdf="http://www.w3.org/1999/02/22-rdf-syntax-ns#"
   xmlns:svg="http://www.w3.org/2000/svg"
   xmlns="http://www.w3.org/2000/svg"
   xmlns:sodipodi="http://sodipodi.sourceforge.net/DTD/sodipodi-0.dtd"
   xmlns:inkscape="http://www.inkscape.org/namespaces/inkscape"
   version="1.1"
   x="0px"
   y="0px"
   viewBox="0 0 100 125"
   style="enable-background:new 0 0 100 100;"
   xml:space="preserve"
   id="svg2"
   inkscape:version="0.91 r13725"
   sodipodi:docname="modular.svg"><metadata
     id="metadata16"><rdf:RDF><cc:Work
         rdf:about=""><dc:format>image/svg+xml</dc:format><dc:type
           rdf:resource="http://purl.org/dc/dcmitype/StillImage" /></cc:Work></rdf:RDF></metadata><defs
     id="defs14" /><sodipodi:namedview
     pagecolor="#ffffff"
     bordercolor="#666666"
     borderopacity="1"
     objecttolerance="10"
     gridtolerance="10"
     guidetolerance="10"
     inkscape:pageopacity="0"
     inkscape:pageshadow="2"
     inkscape:window-width="640"
     inkscape:window-height="480"
     id="namedview12"
     showgrid="false"
     inkscape:zoom="1.888"
     inkscape:cx="50"
     inkscape:cy="62.5"
     inkscape:window-x="0"
     inkscape:window-y="0"
     inkscape:window-maximized="0"
     inkscape:current-layer="g4" /><g
     id="g4"
     transform="translate(0.52966102,12.182203)"><path
       sodipodi:type="inkscape:offset"
       inkscape:radius="0.62167782"
       inkscape:original="M 50 10.324219 C 48.375 10.324219 46.75 10.949219 45.5 12.199219 L 28.900391 28.900391 L 12.199219 45.5 C 10.999219 46.7 10.300781 48.3 10.300781 50 C 10.300781 51.7 10.999219 53.3 12.199219 54.5 L 28.800781 71.099609 L 45.400391 87.699219 C 46.600391 88.899219 48.300391 89.599609 49.900391 89.599609 C 51.500391 89.599609 53.200391 88.999219 54.400391 87.699219 L 71 71.099609 L 87.599609 54.5 C 88.799609 53.3 89.5 51.7 89.5 50 C 89.5 48.3 88.799609 46.7 87.599609 45.5 L 71.099609 28.900391 L 54.5 12.199219 C 53.25 10.949219 51.625 10.324219 50 10.324219 z M 50 12.337891 C 51.125 12.325391 52.249609 12.749609 53.099609 13.599609 L 69 29.599609 L 63.400391 35.199219 C 63.100391 35.499219 62.999219 35.900781 63.199219 36.300781 C 63.399219 36.700781 63.699609 36.900391 64.099609 36.900391 L 64.800781 36.900391 C 66.400781 37.100391 67.800391 37.800391 68.900391 38.900391 C 69.300391 39.400391 69.7 39.900391 70 40.400391 C 71.3 42.900391 71 46.099219 69 48.199219 C 67.7 49.599219 65.999219 50.300391 64.199219 50.400391 C 62.399219 50.400391 60.600781 49.700391 59.300781 48.400391 C 58.000781 47.100391 57.300781 45.499219 57.300781 43.699219 C 57.300781 43.299219 56.999219 42.900781 56.699219 42.800781 C 56.599219 42.800781 56.500391 42.699219 56.400391 42.699219 L 56.300781 42.699219 L 56.199219 42.699219 L 56 42.699219 C 55.9 42.699219 55.800781 42.700781 55.800781 42.800781 L 55.699219 42.800781 C 55.599219 42.800781 55.6 42.9 55.5 43 L 50 48.599609 L 45.900391 44.5 C 47.400391 44.1 48.800391 43.299219 49.900391 42.199219 C 50.300391 41.799219 50.7 41.300781 51 40.800781 C 52 39.300781 52.500391 37.600781 52.400391 35.800781 C 52.400391 33.400781 51.399609 31.2 49.599609 29.5 C 46.299609 26.4 40.899609 26.399609 37.599609 29.599609 C 36.399609 30.699609 35.599219 32.099219 35.199219 33.699219 L 31 29.599609 L 46.900391 13.699219 C 47.750391 12.799219 48.875 12.350391 50 12.337891 z M 43.613281 29.25 C 45.300781 29.225 47.000781 29.8 48.300781 31 C 49.700781 32.3 50.4 34.000781 50.5 35.800781 C 50.5 37.000781 50.299219 38.099609 49.699219 39.099609 C 49.399219 39.699609 49 40.199219 48.5 40.699219 C 47.2 41.999219 45.600781 42.699219 43.800781 42.699219 C 43.400781 42.699219 43.000391 43.000781 42.900391 43.300781 C 42.700391 43.700781 42.799609 44.100391 43.099609 44.400391 L 48.699219 50 L 44.599609 54.099609 C 44.199609 52.599609 43.400781 51.199609 42.300781 50.099609 C 40.600781 48.399609 38.300391 47.5 35.900391 47.5 C 35.600391 47.5 35.3 47.499609 35 47.599609 C 32.9 47.799609 31.099609 48.800781 29.599609 50.300781 C 26.499609 53.600781 26.499219 59.000781 29.699219 62.300781 C 30.799219 63.500781 32.200781 64.299219 33.800781 64.699219 L 29.599609 69 L 13.599609 53.099609 C 12.799609 52.299609 12.300781 51.2 12.300781 50 C 12.300781 48.8 12.799609 47.700391 13.599609 46.900391 L 29.599609 31 L 35.199219 36.599609 C 35.499219 36.899609 35.900781 37.000781 36.300781 36.800781 C 36.700781 36.600781 36.900391 36.300391 36.900391 35.900391 C 36.900391 34.100391 37.7 32.399609 39 31.099609 C 40.25 29.899609 41.925781 29.275 43.613281 29.25 z M 70.400391 31.199219 L 86.300781 47.099609 C 87.100781 47.899609 87.599609 48.999219 87.599609 50.199219 C 87.599609 51.399219 87.100781 52.500781 86.300781 53.300781 L 70.400391 69 L 64.800781 63.400391 C 64.500781 63.100391 64.099219 62.999219 63.699219 63.199219 C 63.299219 63.399219 63.099609 63.699609 63.099609 64.099609 C 63.099609 65.899609 62.3 67.600391 61 68.900391 C 58.5 71.300391 54.299219 71.4 51.699219 69 C 50.299219 67.7 49.6 65.999219 49.5 64.199219 C 49.5 62.799219 49.899609 61.500391 50.599609 60.400391 C 50.799609 60.000391 51.1 59.700781 51.5 59.300781 C 52.8 58.000781 54.399219 57.300781 56.199219 57.300781 C 56.599219 57.300781 56.999609 56.999219 57.099609 56.699219 C 57.299609 56.299219 57.200391 55.899609 56.900391 55.599609 L 51.400391 50 L 55.5 45.900391 C 55.9 47.400391 56.700781 48.800391 57.800781 49.900391 C 59.500781 51.600391 61.799219 52.5 64.199219 52.5 C 66.599219 52.5 68.8 51.499219 70.5 49.699219 C 73.6 46.399219 73.600391 40.999219 70.400391 37.699219 C 69.400391 36.699219 68.200391 35.9 66.900391 35.5 C 66.700391 35.4 66.500781 35.400781 66.300781 35.300781 L 70.400391 31.199219 z M 35.900391 49.5 C 37.800391 49.5 39.500781 50.2 40.800781 51.5 C 42.100781 52.8 42.800781 54.399219 42.800781 56.199219 C 42.800781 56.599219 43.100391 56.999609 43.400391 57.099609 C 43.800391 57.299609 44.2 57.200391 44.5 56.900391 L 50.099609 51.300781 L 54.199219 55.400391 C 52.699219 55.800391 51.299219 56.599219 50.199219 57.699219 C 49.999219 57.899219 49.799609 58.100391 49.599609 58.400391 C 48.299609 60.000391 47.599609 61.999609 47.599609 64.099609 C 47.599609 66.499609 48.600391 68.700391 50.400391 70.400391 C 53.700391 73.500391 59.100391 73.500781 62.400391 70.300781 C 63.600391 69.200781 64.400781 67.799219 64.800781 66.199219 L 68.900391 70.300781 L 53.099609 86.400391 C 51.399609 88.100391 48.600391 88.100391 46.900391 86.400391 L 31 70.400391 L 36.599609 64.800781 C 36.899609 64.500781 37.000781 64.099219 36.800781 63.699219 C 36.600781 63.299219 36.300391 63.099609 35.900391 63.099609 C 34.100391 63.099609 32.399609 62.3 31.099609 61 C 30.799609 60.7 30.500781 60.3 30.300781 60 C 29.600781 58.9 29.300781 57.700391 29.300781 56.400391 C 29.300781 54.700391 29.899609 52.999219 31.099609 51.699219 C 32.399609 50.299219 34.100391 49.6 35.900391 49.5 z "
       id="path4144"
       d="m 50,9.703125 c -1.784405,0 -3.572228,0.689416 -4.939453,2.056641 a 0.62173998,0.62173998 0 0 0 -0.002,0.002 L 28.460938,28.460938 11.761719,45.058594 a 0.62173998,0.62173998 0 0 0 -0.002,0.002 C 10.449677,46.370636 9.6796875,48.129724 9.6796875,50 c 0,1.870276 0.7699895,3.629364 2.0800785,4.939453 l 16.601562,16.599609 16.59961,16.59961 c 1.322061,1.322061 3.158029,2.082031 4.939453,2.082031 1.75552,0 3.623252,-0.654682 4.957031,-2.099609 L 71.439453,71.539062 88.039062,54.939453 C 89.348913,53.629603 90.121094,51.870752 90.121094,50 c 0,-1.869823 -0.771412,-3.627854 -2.080078,-4.9375 l -0.002,-0.002 L 71.541016,28.462891 54.941406,11.761719 a 0.62173998,0.62173998 0 0 0 -0.002,-0.002 C 53.572228,10.392541 51.784405,9.703125 50,9.703125 Z m 0.0078,3.255859 c 0.964144,-0.01071 1.923084,0.350818 2.652344,1.080078 l 15.462891,15.558594 -5.162109,5.16211 c -0.446722,0.446721 -0.630293,1.194493 -0.31836,1.818359 0.274356,0.548713 0.85021,0.943359 1.457031,0.943359 l 0.638672,0 c 1.452499,0.184705 2.702531,0.811226 3.703125,1.804688 0.384219,0.480567 0.752419,0.946753 1.013672,1.378906 1.171821,2.270264 0.895281,5.174897 -0.904297,7.064453 a 0.62173998,0.62173998 0 0 0 -0.0059,0.0059 c -1.182529,1.273493 -2.710626,1.904459 -4.365234,2 -1.63219,-0.0052 -3.268051,-0.643051 -4.439454,-1.814453 -1.198423,-1.198424 -1.818359,-2.622895 -1.818359,-4.261719 0,-0.356229 -0.123348,-0.664028 -0.298828,-0.916016 -0.17548,-0.251987 -0.400858,-0.463697 -0.726563,-0.572265 a 0.62173998,0.62173998 0 0 0 -0.103515,-0.02539 c -0.05765,-0.03312 -0.155832,-0.107422 -0.392578,-0.107422 l -0.09961,0 -0.101562,0 -0.199219,0 c -0.05324,0 -0.144764,-0.02053 -0.339844,0.04687 -0.04762,0.01645 -0.106548,0.07963 -0.164062,0.117188 -0.07513,0.02215 -0.153333,0.0248 -0.212891,0.06641 -0.116316,0.08126 -0.171043,0.165625 -0.201172,0.210937 -0.06026,0.09063 -0.04475,0.06428 -0.02148,0.04102 a 0.62173998,0.62173998 0 0 0 -0.0039,0.0039 l -5.060547,5.152344 -3.001953,-3.001953 c 1.236854,-0.475795 2.405565,-1.136034 3.345703,-2.076172 0.432758,-0.432759 0.853217,-0.958042 1.183594,-1.50586 1.058288,-1.592796 1.599005,-3.424998 1.496093,-5.349609 -0.005,-2.565905 -1.08555,-4.933662 -2.992187,-6.734375 a 0.62173998,0.62173998 0 0 0 -0.002,-0.002 c -3.54226,-3.327577 -9.301254,-3.329476 -12.845703,0.09375 -6.89e-4,6.31e-4 -0.0013,0.0013 -0.002,0.002 -1.038623,0.952691 -1.722767,2.1607 -2.203125,3.46875 L 31.884766,29.59375 47.339844,14.138672 a 0.62173998,0.62173998 0 0 0 0.01172,-0.01172 c 0.732895,-0.776006 1.691966,-1.157254 2.65625,-1.167969 z m -6.384765,16.91211 c 1.540142,-0.02282 3.081616,0.50202 4.255859,1.585937 1.273486,1.18356 1.903786,2.712579 1.998047,4.369141 -0.0029,1.11904 -0.187051,2.079981 -0.710937,2.953125 a 0.62173998,0.62173998 0 0 0 -0.02344,0.04297 c -0.263075,0.52615 -0.611452,0.96692 -1.082031,1.4375 -1.198644,1.198643 -2.620941,1.818359 -4.259766,1.818359 -0.356228,0 -0.66561,0.123617 -0.917969,0.298828 -0.240206,0.166774 -0.431942,0.389488 -0.544921,0.691406 -0.281642,0.612847 -0.114139,1.335081 0.322265,1.771485 L 47.820312,50 44.814453,53.005859 c -0.4752,-1.236674 -1.133873,-2.405357 -2.074219,-3.345703 -1.820739,-1.82074 -4.284491,-2.78125 -6.839843,-2.78125 -0.29946,0 -0.679087,-0.0087 -1.097657,0.13086 l 0.138672,-0.0293 c -2.261546,0.215385 -4.203176,1.302786 -5.78125,2.880859 a 0.62173998,0.62173998 0 0 0 -0.01367,0.01367 c -3.327577,3.54226 -3.329476,9.301254 0.09375,12.845703 6.31e-4,6.88e-4 0.0013,0.0013 0.002,0.002 0.952658,1.038585 2.161157,1.721426 3.46875,2.201172 L 29.59375,68.117188 14.037109,52.658203 C 13.348285,51.968418 12.921875,51.026758 12.921875,50 c 0,-1.026758 0.42641,-1.968418 1.115234,-2.658203 l 0.002,-0.002 15.558594,-15.462891 5.16211,5.162109 c 0.446721,0.446722 1.194493,0.630293 1.818359,0.31836 0.548713,-0.274356 0.943359,-0.85021 0.943359,-1.457031 0,-1.613582 0.718718,-3.157764 1.914063,-4.355469 1.126989,-1.079186 2.649614,-1.651045 4.1875,-1.673828 z m 26.777344,2.207031 15.460937,15.460937 c 0.689959,0.689959 1.117188,1.63244 1.117188,2.660157 0,1.027716 -0.427587,1.972508 -1.117188,2.662109 l -15.458984,15.261719 -5.16211,-5.162109 c -0.446721,-0.446722 -1.194493,-0.630293 -1.818359,-0.31836 -0.548713,0.274356 -0.943359,0.85021 -0.943359,1.457031 0,1.613582 -0.718718,3.157764 -1.914063,4.355469 -2.255272,2.159563 -6.094554,2.254075 -8.441406,0.08984 l -0.002,-0.002 C 50.848723,67.360445 50.220118,65.83262 50.125,64.177734 c 0.0043,-1.272967 0.365223,-2.445852 1,-3.443359 a 0.62173998,0.62173998 0 0 0 0.03125,-0.05664 c 0.144178,-0.288356 0.382917,-0.537214 0.783203,-0.9375 1.198644,-1.198643 2.620941,-1.818359 4.259766,-1.818359 0.356228,0 0.66561,-0.123617 0.917969,-0.298828 0.240206,-0.166774 0.431942,-0.389488 0.544921,-0.691406 0.281642,-0.612847 0.114139,-1.335081 -0.322265,-1.771485 l -5.064453,-5.15625 3.009765,-3.009765 c 0.475795,1.236854 1.136034,2.405565 2.076172,3.345703 1.820572,1.820571 4.282539,2.78125 6.837891,2.78125 2.572823,0 4.947033,-1.08305 6.751953,-2.994141 a 0.62173998,0.62173998 0 0 0 0.002,-0.002 c 3.331701,-3.546649 3.330498,-9.316034 -0.105469,-12.859375 a 0.62173998,0.62173998 0 0 0 -0.0078,-0.0059 C 69.868895,36.288817 68.697967,35.525805 67.417969,35.0625 l 2.982422,-2.984375 z m -3.316407,2.828125 0.09375,0.03711 c -0.02969,-0.01485 -0.02325,-0.0051 -0.05078,-0.01758 -0.01503,-0.0047 -0.0279,-0.0149 -0.04297,-0.01953 z M 35.919922,50.125 c 1.738532,0.005 3.258927,0.631974 4.441406,1.814453 1.198644,1.198644 1.81836,2.620941 1.81836,4.259766 -10e-7,0.355217 0.122269,0.663437 0.296874,0.916015 0.166209,0.240432 0.38913,0.43373 0.691407,0.546875 0.612846,0.281642 1.335081,0.114138 1.771484,-0.322265 l 5.160156,-5.160156 3.00586,3.005859 c -1.236675,0.4752 -2.405358,1.133873 -3.345703,2.074219 -0.193394,0.193393 -0.426217,0.433134 -0.652344,0.763672 -1.383413,1.709521 -2.128906,3.84433 -2.128906,6.076171 0,2.572824 1.083049,4.947034 2.99414,6.751953 a 0.62173998,0.62173998 0 0 0 0.002,0.002 c 3.54226,3.327577 9.301254,3.329476 12.845703,-0.09375 l 0.002,-0.002 c 1.035762,-0.950068 1.718686,-2.155231 2.199218,-3.458984 l 3.003907,3.00586 -15.369141,15.660156 c -1.458446,1.454085 -3.856863,1.453456 -5.314453,-0.002 l -0.002,-0.002 -15.462891,-15.558594 5.162109,-5.16211 c 0.446722,-0.446721 0.630293,-1.194493 0.31836,-1.818359 -0.274356,-0.548713 -0.85021,-0.943359 -1.457031,-0.943359 -1.61589,0 -3.162905,-0.719546 -4.361329,-1.917969 -0.247546,-0.247547 -0.529683,-0.62095 -0.71289,-0.894531 l -0.002,-0.0039 c -0.631539,-0.994065 -0.902344,-2.058906 -0.902344,-3.261718 0,-1.554009 0.548193,-3.102177 1.634766,-4.279297 1.18206,-1.271872 2.709145,-1.900593 4.363281,-1.996094 z" /></g></svg>