<?xml version="1.0" encoding="UTF-8" standalone="no"?>
<svg
   xmlns:dc="http://purl.org/dc/elements/1.1/"
   xmlns:cc="http://creativecommons.org/ns#"
   xmlns:rdf="http://www.w3.org/1999/02/22-rdf-syntax-ns#"
   xmlns:svg="http://www.w3.org/2000/svg"
   xmlns="http://www.w3.org/2000/svg"
   xmlns:sodipodi="http://sodipodi.sourceforge.net/DTD/sodipodi-0.dtd"
   xmlns:inkscape="http://www.inkscape.org/namespaces/inkscape"
   version="1.1"
   x="0px"
   y="0px"
   viewBox="0 0 100 125"
   id="svg2"
   inkscape:version="0.91 r13725"
   sodipodi:docname="optimization.svg">
  <metadata
     id="metadata16">
    <rdf:RDF>
      <cc:Work
         rdf:about="">
        <dc:format>image/svg+xml</dc:format>
        <dc:type
           rdf:resource="http://purl.org/dc/dcmitype/StillImage" />
      </cc:Work>
    </rdf:RDF>
  </metadata>
  <defs
     id="defs14" />
  <sodipodi:namedview
     pagecolor="#ffffff"
     bordercolor="#666666"
     borderopacity="1"
     objecttolerance="10"
     gridtolerance="10"
     guidetolerance="10"
     inkscape:pageopacity="0"
     inkscape:pageshadow="2"
     inkscape:window-width="640"
     inkscape:window-height="480"
     id="namedview12"
     showgrid="false"
     inkscape:zoom="1.888"
     inkscape:cx="40.730932"
     inkscape:cy="58.378917"
     inkscape:window-x="0"
     inkscape:window-y="0"
     inkscape:window-maximized="0"
     inkscape:current-layer="svg2" />
  <g
     transform="translate(0.41101698,-939.76896)"
     id="g4">
    <path
       style="color:#000000;font-style:normal;font-variant:normal;font-weight:normal;font-stretch:normal;font-size:medium;line-height:normal;font-family:Sans;-inkscape-font-specification:Sans;text-indent:0;text-align:start;text-decoration:none;text-decoration-line:none;letter-spacing:normal;word-spacing:normal;text-transform:none;direction:ltr;block-progression:tb;writing-mode:lr-tb;baseline-shift:baseline;text-anchor:start;display:inline;overflow:visible;visibility:visible;opacity:1;fill:#000000;fill-opacity:1;stroke:none;stroke-width:3.42857122;marker:none;enable-background:accumulate"
       d="M 37.8125,6 A 2.0002,2.0002 0 0 0 36,8 l 0,10.59375 c -2.463655,0.949545 -4.806411,2.156172 -7,3.5625 L 24.40625,17.5625 A 2.0002,2.0002 0 0 0 22.78125,17 a 2.0002,2.0002 0 0 0 -1.1875,0.5625 l -9,9 a 2.0002,2.0002 0 0 0 0,2.84375 L 17.1875,34 C 13.294653,40.066147 11,47.264805 11,55 11,76.5154 28.484584,94 50,94 71.515416,94 89,76.5154 89,55 89,47.264805 86.705347,40.066147 82.8125,34 l 4.59375,-4.59375 a 2.0002,2.0002 0 0 0 0,-2.84375 l -9,-9 A 2.0002,2.0002 0 0 0 76.78125,17 2.0002,2.0002 0 0 0 75.59375,17.5625 L 71,22.15625 c -2.193589,-1.406328 -4.536345,-2.612955 -7,-3.5625 L 64,8 A 2.0002,2.0002 0 0 0 62,6 L 38,6 A 2.0002,2.0002 0 0 0 37.8125,6 Z M 40,10 l 20,0 0,7.3125 C 56.81119,16.468157 53.452463,16 50,16 46.547537,16 43.18881,16.468157 40,17.3125 L 40,10 Z M 50,20 C 69.353655,20 85,35.64634 85,55 85,74.3537 69.353655,90 50,90 30.646345,90 15,74.3537 15,55 15,35.64634 30.646345,20 50,20 Z m -27,1.8125 2.71875,2.71875 c -2.27147,1.814817 -4.371281,3.885948 -6.1875,6.15625 L 16.8125,28 23,21.8125 Z m 54,0 6.1875,6.1875 -2.71875,2.6875 c -1.816219,-2.270302 -3.91603,-4.341433 -6.1875,-6.15625 L 77,21.8125 Z M 49.78125,23.96875 A 2.0002,2.0002 0 0 0 48,26 l 0,8 a 2.0002,2.0002 0 1 0 4,0 l 0,-8 A 2.0002,2.0002 0 0 0 49.78125,23.96875 Z M 71.8125,31 a 2.0002,2.0002 0 0 0 -1,0.375 L 51.1875,46.09375 C 50.795285,46.040847 50.405932,46 50,46 c -4.946873,0 -9,4.0531 -9,9 0,4.9469 4.053127,9 9,9 4.946873,0 9,-4.0531 9,-9 0,-0.426642 -0.03541,-0.83861 -0.09375,-1.25 L 73.59375,34.1875 A 2.0002,2.0002 0 0 0 71.8125,31 Z m -42.53125,1.46875 a 2.0002,2.0002 0 0 0 -1.1875,3.4375 L 33.75,41.5625 a 2.0002,2.0002 0 1 0 2.8125,-2.84375 L 30.90625,33.0625 a 2.0002,2.0002 0 0 0 -1.625,-0.59375 z M 62,42.96875 57.125,49.5 C 56.648663,48.885229 56.08484,48.349698 55.46875,47.875 L 62,42.96875 Z M 50,50 c 2.785113,0 5,2.2149 5,5 0,2.7851 -2.214887,5 -5,5 -2.785113,0 -5,-2.2149 -5,-5 0,-2.7851 2.214887,-5 5,-5 z M 20.8125,53 A 2.0021961,2.0021961 0 1 0 21,57 l 8,0 a 2.0002,2.0002 0 1 0 0,-4 l -8,0 a 2.0002,2.0002 0 0 0 -0.1875,0 z m 50,0 A 2.0021961,2.0021961 0 1 0 71,57 l 8,0 a 2.0002,2.0002 0 1 0 0,-4 l -8,0 a 2.0002,2.0002 0 0 0 -0.1875,0 z M 35.125,67.8125 a 2.0002,2.0002 0 0 0 -1.375,0.625 l -5.65625,5.65625 a 2.0002,2.0002 0 1 0 2.8125,2.8125 L 36.5625,71.25 A 2.0002,2.0002 0 0 0 35.125,67.8125 Z m 29.5,0 A 2.0002,2.0002 0 0 0 63.4375,71.25 l 5.65625,5.65625 a 2.0002,2.0002 0 1 0 2.8125,-2.8125 L 66.25,68.4375 a 2.0002,2.0002 0 0 0 -1.625,-0.625 z M 49.78125,73.96875 A 2.0002,2.0002 0 0 0 48,76 l 0,8 a 2.0002,2.0002 0 1 0 4,0 l 0,-8 a 2.0002,2.0002 0 0 0 -2.21875,-2.03125 z"
       transform="translate(0,952.36218)"
       id="path6"
       inkscape:connector-curvature="0" />
  </g>
</svg>
