<?xml version="1.0" encoding="UTF-8" standalone="no"?>
<svg
   xmlns:dc="http://purl.org/dc/elements/1.1/"
   xmlns:cc="http://creativecommons.org/ns#"
   xmlns:rdf="http://www.w3.org/1999/02/22-rdf-syntax-ns#"
   xmlns:svg="http://www.w3.org/2000/svg"
   xmlns="http://www.w3.org/2000/svg"
   xmlns:sodipodi="http://sodipodi.sourceforge.net/DTD/sodipodi-0.dtd"
   xmlns:inkscape="http://www.inkscape.org/namespaces/inkscape"
   version="1.1"
   x="0px"
   y="0px"
   viewBox="0 0 25 31.25"
   enable-background="new 0 0 25 25"
   xml:space="preserve"
   id="svg2"
   inkscape:version="0.91 r13725"
   sodipodi:docname="organization.svg"><metadata
     id="metadata26"><rdf:RDF><cc:Work
         rdf:about=""><dc:format>image/svg+xml</dc:format><dc:type
           rdf:resource="http://purl.org/dc/dcmitype/StillImage" /></cc:Work></rdf:RDF></metadata><defs
     id="defs24" /><sodipodi:namedview
     pagecolor="#ffffff"
     bordercolor="#666666"
     borderopacity="1"
     objecttolerance="10"
     gridtolerance="10"
     guidetolerance="10"
     inkscape:pageopacity="0"
     inkscape:pageshadow="2"
     inkscape:window-width="640"
     inkscape:window-height="480"
     id="namedview22"
     showgrid="false"
     inkscape:zoom="7.552"
     inkscape:cx="10.182733"
     inkscape:cy="15.625"
     inkscape:window-x="0"
     inkscape:window-y="0"
     inkscape:window-maximized="0"
     inkscape:current-layer="svg2" /><g
     id="g4"
     transform="translate(0,3.3103814)"><g
       id="g6"><path
         d="M 16,6 C 16,4.07 14.43,2.5 12.5,2.5 10.57,2.5 9,4.07 9,6 9,7.93 10.57,9.5 12.5,9.5 14.43,9.5 16,7.93 16,6 Z M 10,6 C 10,4.621 11.122,3.5 12.5,3.5 13.878,3.5 15,4.621 15,6 15,7.379 13.878,8.5 12.5,8.5 11.122,8.5 10,7.379 10,6 Z"
         id="path8"
         inkscape:connector-curvature="0" /><path
         d="m 20,16.5 c 0.276,0 0.5,-0.224 0.5,-0.5 l 0,-5 c 0,-0.276 -0.224,-0.5 -0.5,-0.5 l -15,0 c -0.276,0 -0.5,0.224 -0.5,0.5 l 0,5 c 0,0.276 0.224,0.5 0.5,0.5 0.276,0 0.5,-0.224 0.5,-0.5 l 0,-4.5 6.5,0 0,4.5 c 0,0.276 0.224,0.5 0.5,0.5 0.276,0 0.5,-0.224 0.5,-0.5 l 0,-4.5 6.5,0 0,4.5 c 0,0.276 0.224,0.5 0.5,0.5 z"
         id="path10"
         inkscape:connector-curvature="0" /><path
         d="m 20,17.5 c -1.378,0 -2.5,1.121 -2.5,2.5 0,1.379 1.122,2.5 2.5,2.5 1.378,0 2.5,-1.121 2.5,-2.5 0,-1.379 -1.122,-2.5 -2.5,-2.5 z m 0,4 c -0.827,0 -1.5,-0.673 -1.5,-1.5 0,-0.827 0.673,-1.5 1.5,-1.5 0.827,0 1.5,0.673 1.5,1.5 0,0.827 -0.673,1.5 -1.5,1.5 z"
         id="path12"
         inkscape:connector-curvature="0" /><path
         d="m 5,17.5 c -1.378,0 -2.5,1.121 -2.5,2.5 0,1.379 1.122,2.5 2.5,2.5 1.378,0 2.5,-1.121 2.5,-2.5 0,-1.379 -1.122,-2.5 -2.5,-2.5 z m 0,4 c -0.827,0 -1.5,-0.673 -1.5,-1.5 0,-0.827 0.673,-1.5 1.5,-1.5 0.827,0 1.5,0.673 1.5,1.5 0,0.827 -0.673,1.5 -1.5,1.5 z"
         id="path14"
         inkscape:connector-curvature="0" /><path
         d="m 12.5,17.5 c -1.378,0 -2.5,1.121 -2.5,2.5 0,1.379 1.122,2.5 2.5,2.5 1.378,0 2.5,-1.121 2.5,-2.5 0,-1.379 -1.122,-2.5 -2.5,-2.5 z m 0,4 C 11.673,21.5 11,20.827 11,20 c 0,-0.827 0.673,-1.5 1.5,-1.5 0.827,0 1.5,0.673 1.5,1.5 0,0.827 -0.673,1.5 -1.5,1.5 z"
         id="path16"
         inkscape:connector-curvature="0" /></g></g><text
     x="0"
     y="40"
     fill="#000000"
     font-size="5px"
     font-weight="bold"
     font-family="'Helvetica Neue', Helvetica, Arial-Unicode, Arial, Sans-serif"
     id="text18">Created by Ralf Schmitzer</text>
<text
     x="0"
     y="45"
     fill="#000000"
     font-size="5px"
     font-weight="bold"
     font-family="'Helvetica Neue', Helvetica, Arial-Unicode, Arial, Sans-serif"
     id="text20">from the Noun Project</text>
</svg>