<svg xmlns="http://www.w3.org/2000/svg" data-name="Layer 1" viewBox="0 0 96 120" x="0px" y="0px"><title>Artboard 15</title><path d="M84,71.56v-20a5.41,5.41,0,0,0-5.4-5.4H49.8V24.44a10.8,10.8,0,1,0-3.6,0V46.2H17.4A5.41,5.41,0,0,0,12,51.6v20a10.8,10.8,0,1,0,3.6,0v-20a1.8,1.8,0,0,1,1.8-1.8H46.2V71.56a10.8,10.8,0,1,0,3.6,0V49.8H78.6a1.8,1.8,0,0,1,1.8,1.8v20a10.8,10.8,0,1,0,3.6,0ZM21,82.2A7.2,7.2,0,1,1,13.8,75,7.21,7.21,0,0,1,21,82.2Zm34.2,0A7.2,7.2,0,1,1,48,75,7.21,7.21,0,0,1,55.2,82.2ZM48,21a7.2,7.2,0,1,1,7.2-7.2A7.21,7.21,0,0,1,48,21ZM82.2,89.4a7.2,7.2,0,1,1,7.2-7.2A7.21,7.21,0,0,1,82.2,89.4Z"/><text x="0" y="111" fill="#000000" font-size="5px" font-weight="bold" font-family="'Helvetica Neue', Helvetica, Arial-Unicode, Arial, Sans-serif">Created by inipagi studio</text><text x="0" y="116" fill="#000000" font-size="5px" font-weight="bold" font-family="'Helvetica Neue', Helvetica, Arial-Unicode, Arial, Sans-serif">from the Noun Project</text></svg>