<?xml version="1.0" encoding="UTF-8" standalone="no"?>
<svg
   xmlns:dc="http://purl.org/dc/elements/1.1/"
   xmlns:cc="http://creativecommons.org/ns#"
   xmlns:rdf="http://www.w3.org/1999/02/22-rdf-syntax-ns#"
   xmlns:svg="http://www.w3.org/2000/svg"
   xmlns="http://www.w3.org/2000/svg"
   xmlns:sodipodi="http://sodipodi.sourceforge.net/DTD/sodipodi-0.dtd"
   xmlns:inkscape="http://www.inkscape.org/namespaces/inkscape"
   viewBox="0 0 40 75"
   version="1.1"
   x="0px"
   y="0px"
   id="svg2"
   inkscape:version="0.91 r13725"
   sodipodi:docname="religion.svg">
  <metadata
     id="metadata52">
    <rdf:RDF>
      <cc:Work
         rdf:about="">
        <dc:format>image/svg+xml</dc:format>
        <dc:type
           rdf:resource="http://purl.org/dc/dcmitype/StillImage" />
      </cc:Work>
    </rdf:RDF>
  </metadata>
  <defs
     id="defs50" />
  <sodipodi:namedview
     pagecolor="#ffffff"
     bordercolor="#666666"
     borderopacity="1"
     objecttolerance="10"
     gridtolerance="10"
     guidetolerance="10"
     inkscape:pageopacity="0"
     inkscape:pageshadow="2"
     inkscape:window-width="640"
     inkscape:window-height="480"
     id="namedview48"
     showgrid="false"
     inkscape:zoom="3.1466667"
     inkscape:cx="14.438559"
     inkscape:cy="34.585805"
     inkscape:window-x="0"
     inkscape:window-y="0"
     inkscape:window-maximized="0"
     inkscape:current-layer="svg2" />
  <title
     id="title4">41 -Medieval Window- (medieval, antique, old)</title>
  <desc
     id="desc6">Created with Sketch.</desc>
  <g
     id="g8"
     transform="matrix(0.85699153,0,0,0.85699153,2.8601695,11.122964)"
     style="fill:none;fill-rule:evenodd;stroke:none;stroke-width:1;stroke-linecap:round">
    <g
       transform="translate(-129,-831)"
       id="g10"
       style="stroke:#000000;stroke-width:2">
      <g
         transform="translate(130,832)"
         id="g12">
        <path
           d="M 33.963,10.1308 C 33.245,9.2288 32.406,8.4298 31.531,7.6798 L 19,8e-4 6.469,7.6798 C 5.594,8.4298 4.755,9.2288 4.037,10.1308 1.436,13.3978 0,17.4668 0,21.6848 l 0,36.316 19,0 19,0 0,-36.316 c 0,-4.218 -1.436,-8.287 -4.037,-11.554 l 0,0 z"
           id="path14"
           inkscape:connector-curvature="0"
           style="stroke-linejoin:round" />
        <path
           d="m 19,48.0005 0,10"
           id="path16"
           inkscape:connector-curvature="0" />
        <polygon
           points="22,14 16,14 16,22 22,22 "
           id="polygon18" />
        <polygon
           points="25,22 13,22 13,27 25,27 "
           id="polygon20" />
        <polygon
           points="16,44.0005 16,27.0005 22,27.0005 22,44.0005 19,49.0005 "
           id="polygon22" />
        <path
           d="m 36.5539,14.5389 -0.554,0.462 -11,9 0,3 -3,0 0,6 3,3 13,-11 0,-3.316 c 0,-2.479 -0.509,-4.902 -1.446,-7.146 l 0,0 z"
           id="path24"
           inkscape:connector-curvature="0"
           style="stroke-linejoin:round" />
        <polygon
           points="25,36.0005 38,49.0005 38,25.0005 "
           id="polygon26"
           style="stroke-linejoin:round" />
        <polygon
           points="34,58.0005 38,58.0005 38,49.0005 25,36.0005 22,33.0005 22,44.0005 "
           id="polygon28"
           style="stroke-linejoin:round" />
        <path
           d="m 36.5865,14.6209 c -0.661,-1.604 -1.533,-3.12 -2.624,-4.49 -0.718,-0.902 -1.556,-1.701 -2.432,-2.451 l -1.531,-0.938 0,0.259 -7.916,10 -0.084,5 3,0 0,2 11.587,-9.38 0,0 z"
           id="path30"
           inkscape:connector-curvature="0"
           style="stroke-linejoin:round" />
        <polygon
           points="22.084,17.0005 30.141,6.8275 19,0.0005 19,1.0005 19,14.0005 22,14.0005 "
           id="polygon32"
           style="stroke-linejoin:round" />
        <path
           d="m 1.4461,14.5389 0.554,0.462 11,9 0,3 3,0 0,6 -3,3 -13,-11 0,-3.316 c 0,-2.479 0.509,-4.902 1.446,-7.146 l 0,0 z"
           id="path34"
           inkscape:connector-curvature="0"
           style="stroke-linejoin:round" />
        <polygon
           points="13,36.0005 0,49.0005 0,25.0005 "
           id="polygon36"
           style="stroke-linejoin:round" />
        <polygon
           points="4,58.0005 0,58.0005 0,49.0005 13,36.0005 16,33.0005 16,44.0005 "
           id="polygon38"
           style="stroke-linejoin:round" />
        <path
           d="m 1.4135,14.6209 c 0.661,-1.604 1.533,-3.12 2.624,-4.49 0.718,-0.902 1.556,-1.701 2.432,-2.451 l 1.531,-0.938 0,0.259 8,10 0,5 -3,0 0,2 -11.587,-9.38 0,0 z"
           id="path40"
           inkscape:connector-curvature="0"
           style="stroke-linejoin:round" />
        <polygon
           points="15.916,17.0005 7.859,6.8275 19,0.0005 19,1.0005 19,14.0005 16,14.0005 "
           id="polygon42"
           style="stroke-linejoin:round" />
      </g>
    </g>
  </g>
</svg>
