<?xml version="1.0" encoding="UTF-8" standalone="no"?>
<svg
   xmlns:dc="http://purl.org/dc/elements/1.1/"
   xmlns:cc="http://creativecommons.org/ns#"
   xmlns:rdf="http://www.w3.org/1999/02/22-rdf-syntax-ns#"
   xmlns:svg="http://www.w3.org/2000/svg"
   xmlns="http://www.w3.org/2000/svg"
   xmlns:sodipodi="http://sodipodi.sourceforge.net/DTD/sodipodi-0.dtd"
   xmlns:inkscape="http://www.inkscape.org/namespaces/inkscape"
   version="1.1"
   x="0px"
   y="0px"
   viewBox="0 0 64 80"
   style="enable-background:new 0 0 64 64;"
   xml:space="preserve"
   id="svg2"
   inkscape:version="0.91 r13725"
   sodipodi:docname="resources.svg"><metadata
     id="metadata20"><rdf:RDF><cc:Work
         rdf:about=""><dc:format>image/svg+xml</dc:format><dc:type
           rdf:resource="http://purl.org/dc/dcmitype/StillImage" /></cc:Work></rdf:RDF></metadata><defs
     id="defs18" /><sodipodi:namedview
     pagecolor="#ffffff"
     bordercolor="#666666"
     borderopacity="1"
     objecttolerance="10"
     gridtolerance="10"
     guidetolerance="10"
     inkscape:pageopacity="0"
     inkscape:pageshadow="2"
     inkscape:window-width="909"
     inkscape:window-height="731"
     id="namedview16"
     showgrid="false"
     inkscape:zoom="2.95"
     inkscape:cx="-52.237288"
     inkscape:cy="40"
     inkscape:window-x="0"
     inkscape:window-y="0"
     inkscape:window-maximized="0"
     inkscape:current-layer="svg2" /><g
     id="g4"
     transform="matrix(0.92345544,0,0,0.92345544,2.7545106,9.9070531)"><path
       d="M 57.351,27 56,27 56,18 C 56,13.038 51.962,9 47,9 L 17,9 C 12.038,9 8,13.038 8,18 L 8,27 6.649,27 1,31.52 1,55 20,55 21,55 63,55 63,31.52 57.351,27 Z m 1.798,4 -12.298,0 2.5,-2 0.649,0 6.649,0 2.5,2 z M 15,27 l -1,0 0,-9 c 0,-1.654 1.346,-3 3,-3 l 30,0 c 1.654,0 3,1.346 3,3 l 0,9 -1.351,0 -6.572,0 0.805,-2.012 C 42.922,24.99 42.96,25 43,25 c 1.654,0 3,-1.346 3,-3 0,-1.654 -1.346,-3 -3,-3 -1.654,0 -3,1.346 -3,3 0,0.895 0.402,1.691 1.026,2.241 L 39.923,27 35.4,27 36.965,21.263 35.035,20.737 33.327,27 29.276,27 25.592,16.686 18.752,19.422 21.279,27 15.351,27 15,27 Z m 27,-5 c 0,-0.551 0.449,-1 1,-1 0.551,0 1,0.449 1,1 0,0.551 -0.449,1 -1,1 -0.551,0 -1,-0.449 -1,-1 z m -17.279,9 -3.474,-10.422 3.16,-1.264 4.174,11.686 -3.86,0 z m 5.984,0 -0.714,-2 2.791,0 -0.545,2 -1.532,0 z m 4.15,-2 4.268,0 -0.8,2 -4.013,0 0.545,-2 z m 6.422,0 4.872,0 -2.5,2 -3.172,0 0.8,-2 z M 10,18 c 0,-3.86 3.14,-7 7,-7 l 30,0 c 3.86,0 7,3.14 7,7 l 0,9 -2,0 0,-9 c 0,-2.757 -2.243,-5 -5,-5 l -30,0 c -2.757,0 -5,2.243 -5,5 l 0,9 -2,0 0,-9 z M 19,53 3,53 3,32.48 7.351,29 14.65,29 19,32.48 19,53 Z m -1.149,-24 4.095,0 0.667,2 -2.262,0 -2.5,-2 z M 21,53 l 0,-20 40,0 0,20 -40,0 z"
       id="path6"
       inkscape:connector-curvature="0" /><rect
       x="23"
       y="35"
       width="2"
       height="2"
       id="rect8" /><rect
       x="27"
       y="35"
       width="9"
       height="2"
       id="rect10" /></g></svg>