<svg xmlns="http://www.w3.org/2000/svg" xmlns:xlink="http://www.w3.org/1999/xlink" viewBox="0 0 24 30" version="1.1" x="0px" y="0px"><title>design_003-rounded-square-rectangle-shape</title><desc>Created with Sketch.</desc><g stroke="none" stroke-width="1" fill="none" fill-rule="evenodd"><g transform="translate(-140.000000, -44.000000)" fill="#000000"><path d="M142,62.0006308 C142,63.657217 143.342813,65 144.999369,65 L158.000631,65 C159.657217,65 161,63.6571867 161,62.0006308 L161,48.9993692 C161,47.342783 159.657187,46 158.000631,46 L144.999369,46 C143.342783,46 142,47.3428133 142,48.9993692 L142,62.0006308 Z M144.999369,45 L158.000631,45 C160.209421,45 162,46.7904482 162,48.9993692 L162,62.0006308 C162,64.2094214 160.209552,66 158.000631,66 L144.999369,66 C142.790579,66 141,64.2095518 141,62.0006308 L141,48.9993692 C141,46.7905786 142.790448,45 144.999369,45 Z"/></g></g><text x="0" y="39" fill="#000000" font-size="5px" font-weight="bold" font-family="'Helvetica Neue', Helvetica, Arial-Unicode, Arial, Sans-serif">Created by Pham Thi Dieu Linh</text><text x="0" y="44" fill="#000000" font-size="5px" font-weight="bold" font-family="'Helvetica Neue', Helvetica, Arial-Unicode, Arial, Sans-serif">from the Noun Project</text></svg>