<?xml version="1.0" encoding="UTF-8" standalone="no"?>
<svg
   xmlns:dc="http://purl.org/dc/elements/1.1/"
   xmlns:cc="http://creativecommons.org/ns#"
   xmlns:rdf="http://www.w3.org/1999/02/22-rdf-syntax-ns#"
   xmlns:svg="http://www.w3.org/2000/svg"
   xmlns="http://www.w3.org/2000/svg"
   xmlns:sodipodi="http://sodipodi.sourceforge.net/DTD/sodipodi-0.dtd"
   xmlns:inkscape="http://www.inkscape.org/namespaces/inkscape"
   data-name="Layer 1"
   viewBox="0 0 120 150"
   x="0px"
   y="0px"
   id="svg2"
   version="1.1"
   inkscape:version="0.91 r13725"
   sodipodi:docname="universal.svg">
  <metadata
     id="metadata18">
    <rdf:RDF>
      <cc:Work
         rdf:about="">
        <dc:format>image/svg+xml</dc:format>
        <dc:type
           rdf:resource="http://purl.org/dc/dcmitype/StillImage" />
      </cc:Work>
    </rdf:RDF>
  </metadata>
  <sodipodi:namedview
     pagecolor="#ffffff"
     bordercolor="#666666"
     borderopacity="1"
     objecttolerance="10"
     gridtolerance="10"
     guidetolerance="10"
     inkscape:pageopacity="0"
     inkscape:pageshadow="2"
     inkscape:window-width="1145"
     inkscape:window-height="720"
     id="namedview16"
     showgrid="false"
     inkscape:zoom="3.1466667"
     inkscape:cx="67.181263"
     inkscape:cy="71.604764"
     inkscape:window-x="0"
     inkscape:window-y="0"
     inkscape:window-maximized="0"
     inkscape:current-layer="svg2" />
  <defs
     id="defs4">
    <style
       id="style6">.cls-1{fill:none;stroke:#000;stroke-linecap:round;stroke-linejoin:round;stroke-width:3px;}</style>
  </defs>
  <title
     id="title8">thouc</title>
  <path
     class="cls-1"
     d="M 101.25365,74.420225 A 42.204187,42.204187 0 1 1 75.462198,35.529848 42.204187,42.204187 0 0 1 101.25365,74.420225 Z M 68.428166,33.278958 c 0,0 6.252473,5.189551 0,9.878906 -6.252472,4.689354 0,6.252472 -4.689354,12.504944 -4.689354,6.252472 0,6.252472 0,6.252472 0,0 4.689354,15.631181 12.504945,12.504945 7.81559,-3.126236 14.068062,-4.689354 14.068062,0 0,4.689354 6.908978,12.504944 9.706971,10.144636 M 33.851995,104.90102 c 0,0 7.237237,-4.986336 7.925009,-8.425196 0.687772,-3.438863 -5.470914,-8.237636 3.57954,-10.691731 9.050453,-2.454095 -2.469727,-9.019191 -3.688959,-13.489709 -1.219232,-4.470517 -6.033635,1.563118 -8.769092,-2.469726 -2.735457,-4.032845 -15.084089,4.095369 -15.084089,4.095369"
     id="path10"
     inkscape:connector-curvature="0"
     style="fill:none;stroke:#000000;stroke-width:4.68935394px;stroke-linecap:round;stroke-linejoin:round" />
</svg>
