<?xml version="1.0" encoding="UTF-8" standalone="no"?>
<svg
   xmlns:dc="http://purl.org/dc/elements/1.1/"
   xmlns:cc="http://creativecommons.org/ns#"
   xmlns:rdf="http://www.w3.org/1999/02/22-rdf-syntax-ns#"
   xmlns:svg="http://www.w3.org/2000/svg"
   xmlns="http://www.w3.org/2000/svg"
   xmlns:sodipodi="http://sodipodi.sourceforge.net/DTD/sodipodi-0.dtd"
   xmlns:inkscape="http://www.inkscape.org/namespaces/inkscape"
   version="1.1"
   x="0px"
   y="0px"
   viewBox="0 0 91 113.75"
   enable-background="new 0 0 91 91"
   xml:space="preserve"
   id="svg2"
   inkscape:version="0.91 r13725"
   sodipodi:docname="usage3.svg"><metadata
     id="metadata22"><rdf:RDF><cc:Work
         rdf:about=""><dc:format>image/svg+xml</dc:format><dc:type
           rdf:resource="http://purl.org/dc/dcmitype/StillImage" /></cc:Work></rdf:RDF></metadata><defs
     id="defs20" /><sodipodi:namedview
     pagecolor="#ffffff"
     bordercolor="#666666"
     borderopacity="1"
     objecttolerance="10"
     gridtolerance="10"
     guidetolerance="10"
     inkscape:pageopacity="0"
     inkscape:pageshadow="2"
     inkscape:window-width="1420"
     inkscape:window-height="858"
     id="namedview18"
     showgrid="false"
     inkscape:zoom="8.2989011"
     inkscape:cx="46.1377"
     inkscape:cy="61.566455"
     inkscape:window-x="0"
     inkscape:window-y="0"
     inkscape:window-maximized="0"
     inkscape:current-layer="svg2" /><g
     id="g4"
     transform="matrix(0.93347744,0,0,0.93347744,3.5021427,12.261782)"><g
       id="g6"><path
         sodipodi:type="inkscape:offset"
         inkscape:radius="-1.0099885"
         inkscape:original="M 71.066406 44.810547 C 69.679406 44.810547 68.554688 45.934266 68.554688 47.322266 L 68.554688 51.123047 L 52.488281 51.123047 C 51.101281 51.123047 49.976562 52.248719 49.976562 53.636719 C 49.976562 55.024719 51.101281 56.148438 52.488281 56.148438 L 68.554688 56.148438 L 68.554688 77.8125 L 45.628906 77.8125 L 45.628906 68 L 61.289062 68 C 62.678063 68 63.802734 66.874328 63.802734 65.486328 C 63.802734 64.098328 62.678062 62.974609 61.289062 62.974609 L 32.046875 62.974609 L 32.046875 58.216797 C 32.046875 56.828797 30.921203 55.703125 29.533203 55.703125 C 28.145203 55.703125 27.019531 56.828797 27.019531 58.216797 L 27.019531 69.478516 L 17.154297 69.478516 C 15.766297 69.478516 14.640625 70.602234 14.640625 71.990234 L 14.640625 77.8125 L 5.3769531 77.8125 L 5.3769531 71.519531 C 5.3769531 70.131531 4.2512813 69.007812 2.8632812 69.007812 C 1.4752813 69.007812 0.3515625 70.131531 0.3515625 71.519531 L 0.3515625 80.324219 C 0.3515625 81.712219 1.4752813 82.837891 2.8632812 82.837891 L 71.066406 82.837891 C 72.455406 82.837891 73.580078 81.712219 73.580078 80.324219 L 73.580078 47.322266 C 73.580078 45.935266 72.455406 44.810547 71.066406 44.810547 z M 32.046875 67.998047 L 40.605469 67.998047 L 40.605469 77.8125 L 19.667969 77.8125 L 19.667969 74.503906 L 29.533203 74.503906 C 30.921203 74.503906 32.046875 73.378234 32.046875 71.990234 L 32.046875 67.998047 z "
         id="path4150"
         d="m 71.066406,45.820312 c -0.841485,0 -1.501953,0.65956 -1.501953,1.501954 l 0,3.800781 a 1.0100895,1.0100895 0 0 1 -1.009765,1.009765 l -16.066407,0 c -0.840537,0 -1.501953,0.661514 -1.501953,1.503907 0,0.842393 0.660468,1.501953 1.501953,1.501953 l 16.066407,0 a 1.0100895,1.0100895 0 0 1 1.009765,1.009766 l 0,21.664062 a 1.0100895,1.0100895 0 0 1 -1.009765,1.009766 l -22.925782,0 A 1.0100895,1.0100895 0 0 1 44.619141,77.8125 l 0,-9.8125 a 1.0100895,1.0100895 0 0 1 1.009765,-1.009766 l 15.660156,0 c 0.843326,0 1.503907,-0.661489 1.503907,-1.503906 0,-0.842416 -0.659636,-1.501953 -1.503907,-1.501953 l -29.242187,0 a 1.0100895,1.0100895 0 0 1 -1.009766,-1.009766 l 0,-4.757812 c 0,-0.841931 -0.661975,-1.503906 -1.503906,-1.503906 -0.841931,0 -1.503906,0.661975 -1.503906,1.503906 l 0,11.261719 a 1.0100895,1.0100895 0 0 1 -1.009766,1.009765 l -9.865234,0 c -0.842879,0 -1.503906,0.660022 -1.503906,1.501953 l 0,5.822266 a 1.0100895,1.0100895 0 0 1 -1.009766,1.009766 l -9.2636719,0 A 1.0100895,1.0100895 0 0 1 4.3671875,77.8125 l 0,-6.292969 c 0,-0.841931 -0.6610278,-1.501953 -1.5039063,-1.501953 -0.8428781,0 -1.5019531,0.659075 -1.5019531,1.501953 l 0,8.804688 c 0,0.842878 0.6600224,1.503906 1.5019531,1.503906 l 68.2031248,0 c 0.843324,0 1.503907,-0.66149 1.503906,-1.503906 l 0,-33.001953 c 0,-0.841023 -0.66012,-1.501954 -1.503906,-1.501954 z m -39.019531,21.167969 8.558594,0 a 1.0100895,1.0100895 0 0 1 1.009765,1.009766 l 0,9.814453 a 1.0100895,1.0100895 0 0 1 -1.009765,1.009766 l -20.9375,0 A 1.0100895,1.0100895 0 0 1 18.658203,77.8125 l 0,-3.308594 a 1.0100895,1.0100895 0 0 1 1.009766,-1.009765 l 9.865234,0 c 0.841931,0 1.503906,-0.661976 1.503906,-1.503907 l 0,-3.992187 a 1.0100895,1.0100895 0 0 1 1.009766,-1.009766 z" /><path
         sodipodi:type="inkscape:offset"
         inkscape:radius="-0.90166646"
         inkscape:original="M 2.8632812 9.6074219 C 1.4752813 9.6074219 0.34960938 10.731141 0.34960938 12.119141 L 0.34960938 56.542969 C 0.35060938 57.930969 1.4762813 59.056641 2.8632812 59.056641 C 4.2512812 59.056641 5.3769531 57.930969 5.3769531 56.542969 L 5.3769531 42.564453 L 17.154297 42.564453 L 29.533203 42.564453 C 30.921203 42.564453 32.046875 41.440734 32.046875 40.052734 L 32.046875 23.025391 C 32.046875 21.637391 30.921203 20.511719 29.533203 20.511719 C 28.145203 20.511719 27.019531 21.637391 27.019531 23.025391 L 27.019531 37.539062 L 19.666016 37.539062 L 19.666016 14.632812 L 40.601562 14.632812 L 40.601562 26.085938 C 40.601562 27.473938 41.727234 28.597656 43.115234 28.597656 L 54.185547 28.597656 L 54.185547 33.164062 C 54.185547 34.552062 55.310266 35.677734 56.697266 35.677734 C 58.086266 35.677734 59.210938 34.552063 59.210938 33.164062 L 59.210938 28.597656 L 68.554688 28.597656 L 68.554688 32.78125 C 68.554688 34.16925 69.679406 35.294922 71.066406 35.294922 C 72.455406 35.294922 73.580078 34.16925 73.580078 32.78125 L 73.580078 12.119141 C 73.580078 10.731141 72.455406 9.6074219 71.066406 9.6074219 L 2.8632812 9.6074219 z M 5.3769531 14.632812 L 14.642578 14.632812 L 14.642578 37.539062 L 5.3769531 37.539062 L 5.3769531 14.632812 z M 45.626953 14.632812 L 54.185547 14.632812 L 54.185547 23.572266 L 45.626953 23.572266 L 45.626953 14.632812 z M 59.210938 14.632812 L 68.554688 14.632812 L 68.554688 23.572266 L 59.210938 23.572266 L 59.210938 14.632812 z "
         id="path4154"
         d="m 2.8632812,10.509766 c -0.9013428,0 -1.6113281,0.708877 -1.6113281,1.609375 l 0,44.423828 c 6.491e-4,0.900849 0.7121825,1.611328 1.6113281,1.611328 0.9004973,0 1.6113282,-0.710831 1.6113282,-1.611328 l 0,-13.978516 a 0.90175663,0.90175663 0 0 1 0.9023437,-0.902344 l 11.7773439,0 12.378906,0 c 0.901343,0 1.611328,-0.708877 1.611328,-1.609375 l 0,-17.027343 c 0,-0.900498 -0.710831,-1.611328 -1.611328,-1.611329 -0.900497,0 -1.611328,0.710831 -1.611328,1.611329 l 0,14.513671 a 0.90175663,0.90175663 0 0 1 -0.902344,0.902344 l -7.353515,0 a 0.90175663,0.90175663 0 0 1 -0.902344,-0.902344 l 0,-22.90625 a 0.90175663,0.90175663 0 0 1 0.902344,-0.902343 l 20.935546,0 a 0.90175663,0.90175663 0 0 1 0.902344,0.902343 l 0,11.453126 c 0,0.900497 0.709985,1.609374 1.611328,1.609374 l 11.070313,0 a 0.90175663,0.90175663 0 0 1 0.902344,0.902344 l 0,4.566406 c 0,0.90091 0.710229,1.611329 1.609375,1.611329 0.901848,0 1.611328,-0.710397 1.611328,-1.611329 l 0,-4.566406 a 0.90175663,0.90175663 0 0 1 0.902344,-0.902344 l 9.34375,0 a 0.90175663,0.90175663 0 0 1 0.902343,0.902344 l 0,4.183594 c 0,0.90091 0.710229,1.611328 1.609375,1.611328 0.901848,0 1.611328,-0.710398 1.611328,-1.611328 l 0,-20.662109 c 0,-0.900931 -0.708634,-1.609375 -1.611328,-1.609375 l -68.2031248,0 z m 2.5136719,3.220703 9.2656249,0 a 0.90175663,0.90175663 0 0 1 0.902344,0.902343 l 0,22.90625 a 0.90175663,0.90175663 0 0 1 -0.902344,0.902344 l -9.2656249,0 A 0.90175663,0.90175663 0 0 1 4.4746094,37.539062 l 0,-22.90625 a 0.90175663,0.90175663 0 0 1 0.9023437,-0.902343 z m 40.2499999,0 8.558594,0 a 0.90175663,0.90175663 0 0 1 0.902344,0.902343 l 0,8.939454 a 0.90175663,0.90175663 0 0 1 -0.902344,0.902343 l -8.558594,0 a 0.90175663,0.90175663 0 0 1 -0.902344,-0.902343 l 0,-8.939454 a 0.90175663,0.90175663 0 0 1 0.902344,-0.902343 z m 13.583985,0 9.34375,0 a 0.90175663,0.90175663 0 0 1 0.902343,0.902343 l 0,8.939454 a 0.90175663,0.90175663 0 0 1 -0.902343,0.902343 l -9.34375,0 a 0.90175663,0.90175663 0 0 1 -0.902344,-0.902343 l 0,-8.939454 a 0.90175663,0.90175663 0 0 1 0.902344,-0.902343 z" /><path
         sodipodi:type="inkscape:offset"
         inkscape:radius="-0.96392983"
         inkscape:original="M 79.820312 29.453125 C 79.177437 29.453 78.534469 29.697 78.042969 30.1875 C 77.060969 31.1685 77.059062 32.759234 78.039062 33.740234 L 81.839844 37.541016 L 41.583984 37.541016 C 40.195984 37.541016 39.070313 38.666687 39.070312 40.054688 L 39.070312 47.982422 L 17.554688 47.982422 C 16.166687 47.982422 15.041016 49.106141 15.041016 50.494141 L 15.041016 61.460938 L 2.7753906 61.460938 C 1.3873906 61.460938 0.26367188 62.584656 0.26367188 63.972656 C 0.26367188 65.360656 1.3873906 66.486328 2.7753906 66.486328 L 17.552734 66.486328 C 18.940734 66.486328 20.066406 65.360656 20.066406 63.972656 L 20.066406 53.005859 L 41.583984 53.005859 C 42.971984 53.005859 44.097656 51.880187 44.097656 50.492188 L 44.097656 42.564453 L 81.837891 42.564453 L 78.056641 46.347656 C 77.076641 47.328656 77.076594 48.918391 78.058594 49.900391 C 78.548594 50.390391 79.191984 50.636719 79.833984 50.636719 C 80.478984 50.636719 81.121328 50.390391 81.611328 49.900391 L 89.671875 41.837891 C 89.792875 41.716891 89.902047 41.583453 89.998047 41.439453 C 90.016047 41.412453 90.026969 41.382469 90.042969 41.355469 C 90.110969 41.242469 90.177516 41.128859 90.228516 41.005859 C 90.244516 40.967859 90.249672 40.928625 90.263672 40.890625 C 90.304672 40.774625 90.346141 40.658156 90.369141 40.535156 C 90.375141 40.504156 90.372906 40.472406 90.378906 40.441406 C 90.398906 40.313406 90.417969 40.186734 90.417969 40.052734 C 90.417969 39.916734 90.397953 39.78525 90.376953 39.65625 C 90.372953 39.62825 90.375141 39.598312 90.369141 39.570312 C 90.344141 39.445312 90.304719 39.326984 90.261719 39.208984 C 90.247719 39.173984 90.241516 39.136562 90.228516 39.101562 C 90.175516 38.975563 90.109062 38.858141 90.039062 38.744141 C 90.025062 38.719141 90.014047 38.692969 89.998047 38.667969 C 89.902047 38.523969 89.794828 38.390531 89.673828 38.269531 L 81.595703 30.1875 C 81.105703 29.6975 80.463188 29.45325 79.820312 29.453125 z "
         id="path4152"
         d="m 79.820312,30.417969 c -0.398846,-7.8e-5 -0.788586,0.14468 -1.095703,0.451172 -0.613838,0.613213 -0.615237,1.577498 -0.0039,2.189453 l 3.800781,3.800781 a 0.96402622,0.96402622 0 0 1 -0.68164,1.646484 l -40.25586,0 c -0.866834,0 -1.548827,0.681993 -1.548828,1.548829 l 0,7.927734 a 0.96402622,0.96402622 0 0 1 -0.964844,0.964844 l -21.515624,0 c -0.867739,0 -1.548829,0.680041 -1.548829,1.546875 l 0,10.966797 a 0.96402622,0.96402622 0 0 1 -0.964843,0.964843 l -12.2656254,0 c -0.8677381,0 -1.546875,0.679137 -1.546875,1.546875 0,0.867738 0.6800416,1.548828 1.546875,1.548828 l 14.7773434,0 c 0.866834,0 1.548828,-0.681994 1.548828,-1.548828 l 0,-10.966797 a 0.96402622,0.96402622 0 0 1 0.964844,-0.964843 l 21.517578,0 c 0.866834,0 1.548828,-0.681996 1.548828,-1.548828 l 0,-7.927735 a 0.96402622,0.96402622 0 0 1 0.964844,-0.964844 l 37.740235,0 a 0.96402622,0.96402622 0 0 1 0.68164,1.646485 l -3.78125,3.783203 c -0.612015,0.612639 -0.612227,1.575273 0.002,2.189453 0.305893,0.305893 0.698316,0.453125 1.09375,0.453125 0.399581,0 0.789326,-0.146747 1.095704,-0.453125 l 8.060546,-8.0625 c 0.07544,-0.07544 0.143719,-0.159914 0.205078,-0.251953 -0.06488,0.09731 -0.0599,0.08973 0.01758,-0.04102 a 0.96402622,0.96402622 0 0 1 0.0039,-0.0039 c 0.06408,-0.106489 0.103289,-0.179715 0.121094,-0.222656 a 0.96402622,0.96402622 0 0 1 0.002,-0.0059 c -0.03857,0.09161 -0.01763,0.03179 0.01563,-0.06055 l 0.002,-0.0059 c 0.0052,-0.01436 -0.0045,0.0098 0.002,-0.0078 0.03637,-0.104133 0.05807,-0.175535 0.0625,-0.199219 a 0.96402622,0.96402622 0 0 1 0,-0.0059 c -0.02582,0.133395 -0.02805,0.101645 0.0098,-0.09375 l -0.0059,0.03516 c 0.01945,-0.124468 0.02734,-0.197654 0.02734,-0.240235 0,-0.04142 -0.0074,-0.119837 -0.02734,-0.242187 a 0.96402622,0.96402622 0 0 1 -0.0039,-0.01758 c -0.02456,-0.171944 -0.02965,-0.178077 0.0039,-0.02148 a 0.96402622,0.96402622 0 0 1 -0.002,-0.01172 c -0.0097,-0.04863 -0.03145,-0.119405 -0.06836,-0.220704 l 0.01172,0.02734 c -0.05451,-0.13627 -0.0495,-0.139397 -0.03516,-0.107422 -0.02469,-0.05606 -0.06125,-0.123023 -0.115234,-0.210937 a 0.96402622,0.96402622 0 0 1 -0.01953,-0.0332 c -0.03451,-0.06162 -0.01811,-0.03551 -0.0078,-0.01953 -0.06291,-0.0933 -0.127661,-0.174536 -0.197265,-0.24414 l -8.078126,-8.082031 c -0.305334,-0.305335 -0.694901,-0.451095 -1.09375,-0.451172 z" /></g></g></svg>