<?xml version="1.0" encoding="UTF-8" standalone="no"?>
<svg
   xmlns:dc="http://purl.org/dc/elements/1.1/"
   xmlns:cc="http://creativecommons.org/ns#"
   xmlns:rdf="http://www.w3.org/1999/02/22-rdf-syntax-ns#"
   xmlns:svg="http://www.w3.org/2000/svg"
   xmlns="http://www.w3.org/2000/svg"
   xmlns:sodipodi="http://sodipodi.sourceforge.net/DTD/sodipodi-0.dtd"
   xmlns:inkscape="http://www.inkscape.org/namespaces/inkscape"
   version="1.1"
   x="0px"
   y="0px"
   viewBox="0 0 80 100"
   enable-background="new 0 0 80 80"
   xml:space="preserve"
   id="svg2"
   inkscape:version="0.91 r13725"
   sodipodi:docname="visual.svg"><metadata
     id="metadata22"><rdf:RDF><cc:Work
         rdf:about=""><dc:format>image/svg+xml</dc:format><dc:type
           rdf:resource="http://purl.org/dc/dcmitype/StillImage" /></cc:Work></rdf:RDF></metadata><defs
     id="defs20" /><sodipodi:namedview
     pagecolor="#ffffff"
     bordercolor="#666666"
     borderopacity="1"
     objecttolerance="10"
     gridtolerance="10"
     guidetolerance="10"
     inkscape:pageopacity="0"
     inkscape:pageshadow="2"
     inkscape:window-width="640"
     inkscape:window-height="480"
     id="namedview18"
     showgrid="false"
     inkscape:zoom="2.36"
     inkscape:cx="32.584746"
     inkscape:cy="43.416058"
     inkscape:window-x="0"
     inkscape:window-y="0"
     inkscape:window-maximized="0"
     inkscape:current-layer="svg2" /><g
     id="g4150"
     transform="translate(1.2711864,8.0508475)"><g
       id="g4"><path
         id="path6"
         d="M 40,63 C 23.6,63 10,45.6 10,42.5 10,39.5 24,22 40,22 56.1,22 69,40.2 69,42.5 69,44.9 56.5,63 40,63 Z M 12,42.5 C 12.6,45 25.2,61 40,61 54.7,61 66.1,45 67,42.5 66.1,40.6 55,24 40,24 24.9,24 12.6,40.5 12,42.5 Z"
         inkscape:connector-curvature="0"
         style="fill:#000000" /></g><g
       id="g8"><g
         id="g10"><path
           id="path12"
           d="M 39.5,58 C 31,58 24,51 24,42.5 c 0,-1.7 0.3,-3.4 0.8,-5 2.1,-6.3 8,-10.5 14.7,-10.5 2.3,0 4.6,0.5 6.7,1.5 l 2.1,1 -2.1,0.8 c -2,0.8 -3.2,2.6 -3.2,4.7 0,2.8 2.2,5 5,5 1.8,0 3.5,-1 4.4,-2.6 l 1.2,-2.2 0.6,2.4 C 54.7,39.2 55,40.8 55,42.5 55,51 48,58 39.5,58 Z m 0,-29 C 33.7,29 28.6,32.7 26.7,38.2 26.2,39.6 26,41 26,42.5 26,49.9 32.1,56 39.5,56 46.9,56 53,49.9 53,42.5 c 0,-0.8 -0.1,-1.6 -0.2,-2.4 -1.3,1.2 -3,1.9 -4.8,1.9 -3.9,0 -7,-3.1 -7,-7 0,-2.1 0.9,-4.1 2.5,-5.4 -1.3,-0.4 -2.6,-0.6 -4,-0.6 z"
           inkscape:connector-curvature="0"
           style="fill:#000000" /></g></g></g></svg>