<?xml version="1.0" encoding="UTF-8" standalone="no"?>
<svg
   xmlns:dc="http://purl.org/dc/elements/1.1/"
   xmlns:cc="http://creativecommons.org/ns#"
   xmlns:rdf="http://www.w3.org/1999/02/22-rdf-syntax-ns#"
   xmlns:svg="http://www.w3.org/2000/svg"
   xmlns="http://www.w3.org/2000/svg"
   xmlns:sodipodi="http://sodipodi.sourceforge.net/DTD/sodipodi-0.dtd"
   xmlns:inkscape="http://www.inkscape.org/namespaces/inkscape"
   version="1.1"
   x="0px"
   y="0px"
   viewBox="0 0 48 60"
   enable-background="new 0 0 48 48"
   xml:space="preserve"
   id="svg2"
   inkscape:version="0.91 r13725"
   sodipodi:docname="voice.svg"><metadata
     id="metadata16"><rdf:RDF><cc:Work
         rdf:about=""><dc:format>image/svg+xml</dc:format><dc:type
           rdf:resource="http://purl.org/dc/dcmitype/StillImage" /></cc:Work></rdf:RDF></metadata><defs
     id="defs14" /><sodipodi:namedview
     pagecolor="#ffffff"
     bordercolor="#666666"
     borderopacity="1"
     objecttolerance="10"
     gridtolerance="10"
     guidetolerance="10"
     inkscape:pageopacity="0"
     inkscape:pageshadow="2"
     inkscape:window-width="789"
     inkscape:window-height="600"
     id="namedview12"
     showgrid="false"
     inkscape:zoom="3.9333333"
     inkscape:cx="17.580103"
     inkscape:cy="21.506875"
     inkscape:window-x="0"
     inkscape:window-y="0"
     inkscape:window-maximized="0"
     inkscape:current-layer="svg2" /><g
     id="g4"
     transform="matrix(0.87288136,0,0,0.87288136,3.0508475,8.8983051)"><path
       d="m 48,20.9 c 0,-4 -3.1,-7.4 -7,-7.7 l 0,-6 C 41,4.7 38.9,2.6 36.4,2.6 34.2,2.6 32.4,4.1 31.9,6.1 25.3,10 17.8,12 10.2,12 L 8.7,12 C 3.9,12.1 0,16 0,20.9 0,25 2.8,28.4 6.6,29.4 l 2.2,12.1 c 0.4,2.3 2.4,3.9 4.7,3.9 1.4,0 2.7,-0.6 3.6,-1.7 0.9,-1.1 1.3,-2.5 1,-3.9 l -1.7,-9.7 c 5.4,0.8 10.7,2.7 15.5,5.5 0.5,2 2.3,3.5 4.5,3.5 2.5,0 4.6,-2.1 4.6,-4.6 l 0,-5.9 c 3.9,-0.4 7,-3.7 7,-7.7 z m -46,0 c 0,-3.7 3,-6.7 6.7,-6.7 l 1.4,0 c 7.6,0 15,-1.9 21.6,-5.6 l 0,24.6 c -6.6,-3.6 -14,-5.6 -21.6,-5.6 l -1.4,0 C 5,27.6 2,24.6 2,20.9 Z m 14.2,19.2 c 0.1,0.8 -0.1,1.6 -0.6,2.3 -0.5,0.6 -1.3,1 -2.1,1 -1.3,0 -2.5,-1 -2.7,-2.3 L 8.7,29.6 c 0,0 0,0 0,0 l 1.4,0 c 0.9,0 1.7,0 2.6,0.1 0.3,0 0.5,0 0.8,0.1 0.3,0 0.5,0.1 0.8,0.1 l 1.9,10.2 z M 39,34.5 c 0,1.4 -1.2,2.6 -2.6,2.6 -1.4,0 -2.6,-1.2 -2.6,-2.6 l 0,-27.3 c 0,-1.4 1.2,-2.6 2.6,-2.6 1.4,0 2.6,1.2 2.6,2.6 l 0,6.9 0,13.5 0,6.9 z m 2,-7.9 0,-11.4 c 2.8,0.3 5,2.8 5,5.7 0,2.9 -2.2,5.3 -5,5.7 z"
       id="path6"
       inkscape:connector-curvature="0" /></g></svg>