<svg xmlns="http://www.w3.org/2000/svg" xmlns:xlink="http://www.w3.org/1999/xlink" version="1.1" x="0px" y="0px" viewBox="0 0 100 125" enable-background="new 0 0 100 100" xml:space="preserve"><g><g><path d="M11.66,39.3c-1.591,0-2.88,1.29-2.88,2.88v18c0,1.592,1.289,2.881,2.88,2.881c1.591,0,2.88-1.289,2.88-2.881v-18    C14.54,40.59,13.251,39.3,11.66,39.3z M20.3,34.98c-1.591,0-2.88,1.289-2.88,2.88V64.5c0,1.591,1.289,2.88,2.88,2.88    c1.591,0,2.88-1.289,2.88-2.88V37.86C23.18,36.27,21.891,34.98,20.3,34.98z M28.94,22.02c-1.591,0-2.881,1.29-2.881,2.881v51.84    c0,1.591,1.29,2.88,2.881,2.88c1.59,0,2.88-1.289,2.88-2.88V24.9C31.82,23.31,30.53,22.02,28.94,22.02z M37.58,32.82    c-1.591,0-2.88,1.289-2.88,2.88v30.239c0,1.591,1.289,2.881,2.88,2.881c1.591,0,2.88-1.29,2.88-2.881V35.7    C40.46,34.109,39.171,32.82,37.58,32.82z M46.22,41.46c-1.591,0-2.88,1.289-2.88,2.88V57.3c0,1.591,1.289,2.88,2.88,2.88    c1.591,0,2.88-1.289,2.88-2.88V44.34C49.1,42.749,47.811,41.46,46.22,41.46z M54.859,44.3c-1.59,0-2.879,1.29-2.879,2.88v8    c0,1.592,1.289,2.881,2.879,2.881c1.591,0,2.881-1.289,2.881-2.881v-8C57.74,45.59,56.45,44.3,54.859,44.3z M63.5,39.98    c-1.591,0-2.88,1.289-2.88,2.88V59.5c0,1.591,1.289,2.88,2.88,2.88s2.88-1.289,2.88-2.88V42.86    C66.38,41.27,65.091,39.98,63.5,39.98z M72.141,32.02c-1.591,0-2.881,1.29-2.881,2.881v31.84c0,1.591,1.29,2.88,2.881,2.88    c1.59,0,2.879-1.289,2.879-2.88V34.9C75.02,33.31,73.73,32.02,72.141,32.02z M80.779,38.82c-1.59,0-2.879,1.289-2.879,2.88v19.239    c0,1.591,1.289,2.881,2.879,2.881c1.592,0,2.881-1.29,2.881-2.881V41.7C83.66,40.109,82.371,38.82,80.779,38.82z M89.42,41.46    c-1.591,0-2.88,1.289-2.88,2.88V57.3c0,1.591,1.289,2.88,2.88,2.88c1.592,0,2.88-1.289,2.88-2.88V44.34    C92.3,42.749,91.012,41.46,89.42,41.46z"/></g></g><text x="0" y="115" fill="#000000" font-size="5px" font-weight="bold" font-family="'Helvetica Neue', Helvetica, Arial-Unicode, Arial, Sans-serif">Created by Rohith M S</text><text x="0" y="120" fill="#000000" font-size="5px" font-weight="bold" font-family="'Helvetica Neue', Helvetica, Arial-Unicode, Arial, Sans-serif">from the Noun Project</text></svg>